<svg class="main-svg" xmlns="http://www.w3.org/2000/svg" xmlns:xlink="http://www.w3.org/1999/xlink" width="600" height="600" style="" viewBox="0 0 600 600"><rect x="0" y="0" width="600" height="600" style="fill: rgb(255, 255, 255); fill-opacity: 1;"/><defs id="defs-1560a3"><g class="clips"><clipPath id="clip1560a3xyplot" class="plotclip"><rect width="440" height="420"/></clipPath><clipPath class="axesclip" id="clip1560a3x"><rect x="80" y="0" width="440" height="600"/></clipPath><clipPath class="axesclip" id="clip1560a3y"><rect x="0" y="100" width="600" height="420"/></clipPath><clipPath class="axesclip" id="clip1560a3xy"><rect x="80" y="100" width="440" height="420"/></clipPath></g><g class="gradients"/><g class="patterns"/></defs><g class="bglayer"><rect class="bg" x="80" y="100" width="440" height="420" style="fill: rgb(229, 236, 246); fill-opacity: 1; stroke-width: 0;"/></g><g class="layer-below"><g class="imagelayer"/><g class="shapelayer"/></g><g class="cartesianlayer"><g class="subplot xy"><g class="layer-subplot"><g class="shapelayer"/><g class="imagelayer"/></g><g class="minor-gridlayer"><g class="x"/><g class="y"/></g><g class="gridlayer"><g class="x"/><g class="y"><path class="ygrid crisp" transform="translate(0,401.48)" d="M80,0h440" style="stroke: rgb(255, 255, 255); stroke-opacity: 1; stroke-width: 1px;"/><path class="ygrid crisp" transform="translate(0,319.22)" d="M80,0h440" style="stroke: rgb(255, 255, 255); stroke-opacity: 1; stroke-width: 1px;"/><path class="ygrid crisp" transform="translate(0,236.97)" d="M80,0h440" style="stroke: rgb(255, 255, 255); stroke-opacity: 1; stroke-width: 1px;"/><path class="ygrid crisp" transform="translate(0,154.72)" d="M80,0h440" style="stroke: rgb(255, 255, 255); stroke-opacity: 1; stroke-width: 1px;"/></g></g><g class="zerolinelayer"><path class="yzl zl crisp" transform="translate(0,483.73)" d="M80,0h440" style="stroke: rgb(255, 255, 255); stroke-opacity: 1; stroke-width: 2px;"/></g><path class="xlines-below"/><path class="ylines-below"/><g class="overlines-below"/><g class="xaxislayer-below"/><g class="yaxislayer-below"/><g class="overaxes-below"/><g class="plot" transform="translate(80,100)" clip-path="url(#clip1560a3xyplot)"><g class="violinlayer mlayer"><g class="trace violins" style="opacity: 1;"><path class="violin" d="M113.36,399Q115.36,396.97 116.64,396.05C118.14,394.97 119.97,394.02 121.91,393.09C124.15,392.02 126.73,391.08 129.36,390.14C132.25,389.1 135.46,388.15 138.58,387.18C141.79,386.18 145.22,385.25 148.36,384.23C151.32,383.27 154.43,382.36 156.94,381.27C159.03,380.36 161.35,379.53 162.5,378.32C163.33,377.45 164.05,376.3 163.9,375.36C163.74,374.32 162.34,373.3 161.15,372.41C159.64,371.28 157.39,370.4 155.32,369.46C153.05,368.43 150.46,367.49 148.06,366.5C145.68,365.52 143.2,364.58 140.96,363.55C138.88,362.6 136.84,361.64 135.06,360.59C133.48,359.66 131.99,358.7 130.77,357.64C129.7,356.71 128.76,355.72 128.06,354.68C127.43,353.74 126.96,352.74 126.67,351.73C126.39,350.77 126.31,349.76 126.32,348.77C126.33,347.79 126.51,346.8 126.71,345.82C126.92,344.83 127.26,343.85 127.56,342.87C127.87,341.88 128.26,340.9 128.54,339.91C128.82,338.93 129.12,337.95 129.26,336.96C129.39,335.98 129.47,334.98 129.36,334C129.25,333.01 128.98,332.01 128.6,331.05C128.2,330.04 127.6,329.05 126.98,328.09C126.33,327.08 125.52,326.11 124.74,325.14C123.94,324.14 123.06,323.17 122.23,322.18C121.41,321.2 120.57,320.22 119.79,319.23C119.03,318.26 118.29,317.28 117.61,316.28C116.95,315.31 116.32,314.32 115.75,313.32C115.19,312.35 114.67,311.36 114.2,310.37C113.73,309.39 113.31,308.4 112.93,307.41C112.55,306.43 112.22,305.45 111.92,304.46C111.63,303.48 111.37,302.49 111.16,301.5C110.95,300.52 110.79,299.54 110.65,298.55Q110.51,297.57 110.33,295.59L109.67,295.59Q109.49,297.57 109.35,298.55C109.21,299.54 109.05,300.52 108.84,301.5C108.63,302.49 108.37,303.48 108.08,304.46C107.78,305.45 107.45,306.43 107.07,307.41C106.69,308.4 106.27,309.39 105.8,310.37C105.33,311.36 104.81,312.35 104.25,313.32C103.68,314.32 103.05,315.31 102.39,316.28C101.71,317.28 100.97,318.26 100.21,319.23C99.43,320.22 98.59,321.2 97.77,322.18C96.94,323.17 96.06,324.14 95.26,325.14C94.48,326.11 93.67,327.08 93.02,328.09C92.4,329.05 91.8,330.04 91.4,331.05C91.02,332.01 90.75,333.01 90.64,334C90.53,334.98 90.61,335.98 90.74,336.96C90.88,337.95 91.18,338.93 91.46,339.91C91.74,340.9 92.13,341.88 92.44,342.87C92.74,343.85 93.08,344.83 93.29,345.82C93.49,346.8 93.67,347.79 93.68,348.77C93.69,349.76 93.61,350.77 93.33,351.73C93.04,352.74 92.57,353.74 91.94,354.68C91.24,355.72 90.3,356.71 89.23,357.64C88.01,358.7 86.52,359.66 84.94,360.59C83.16,361.64 81.12,362.6 79.04,363.55C76.8,364.58 74.32,365.52 71.94,366.5C69.54,367.49 66.95,368.43 64.68,369.46C62.61,370.4 60.36,371.28 58.85,372.41C57.66,373.3 56.26,374.32 56.1,375.36C55.95,376.3 56.67,377.45 57.5,378.32C58.65,379.53 60.97,380.36 63.06,381.27C65.57,382.36 68.68,383.27 71.64,384.23C74.78,385.25 78.21,386.18 81.42,387.18C84.54,388.15 87.75,389.1 90.64,390.14C93.27,391.08 95.85,392.02 98.09,393.09C100.03,394.02 101.86,394.97 103.36,396.05Q104.64,396.97 106.64,399Z" style="vector-effect: non-scaling-stroke; stroke-width: 2px; stroke: rgb(0, 0, 0); stroke-opacity: 1; fill: rgb(99, 110, 250); fill-opacity: 0.2;"/><path class="box" d="M96.53,373.58H123.48M96.53,376.36H123.48V345.47H96.53ZM110,376.36V380.98M110,345.47V313.62" style="vector-effect: non-scaling-stroke; stroke-width: 2px; stroke: rgb(0, 0, 0); stroke-opacity: 1; fill: rgb(99, 110, 250); fill-opacity: 0.2;"/><g class="points"/></g><g class="trace violins" style="opacity: 1;"><path class="violin" d="M330.28,394.2Q330.48,392.71 330.66,391.98C330.85,391.23 331.07,390.48 331.4,389.76C331.75,389 332.19,388.24 332.75,387.53C333.36,386.75 334.11,386.01 334.96,385.31C335.91,384.52 337.04,383.79 338.24,383.09C339.58,382.3 341.11,381.58 342.67,380.87C344.36,380.1 346.21,379.38 348.05,378.65C349.95,377.9 351.97,377.18 353.9,376.43C355.79,375.7 357.74,374.99 359.5,374.21C361.11,373.5 362.75,372.79 364.06,371.98C365.17,371.29 366.31,370.59 366.96,369.76C367.49,369.08 367.91,368.29 367.94,367.54C367.97,366.81 367.58,366.02 367.18,365.32C366.73,364.54 365.96,363.83 365.29,363.1C364.6,362.35 363.75,361.64 363.09,360.88C362.47,360.16 361.79,359.44 361.42,358.66C361.08,357.95 360.83,357.17 360.87,356.43C360.91,355.68 361.25,354.91 361.68,354.21C362.17,353.42 362.98,352.69 363.79,351.99C364.69,351.21 365.78,350.49 366.86,349.77C368,349.01 369.25,348.29 370.45,347.55C371.66,346.81 372.93,346.08 374.11,345.33C375.26,344.6 376.4,343.87 377.45,343.11C378.44,342.39 379.4,341.65 380.23,340.88C380.99,340.17 381.72,339.43 382.28,338.66C382.8,337.95 383.25,337.2 383.52,336.44C383.77,335.72 383.92,334.96 383.9,334.22C383.88,333.48 383.69,332.71 383.39,332C383.07,331.23 382.55,330.49 381.96,329.78C381.31,329 380.48,328.27 379.6,327.56C378.64,326.78 377.52,326.05 376.39,325.33C375.18,324.56 373.86,323.84 372.54,323.11C371.17,322.36 369.73,321.63 368.31,320.89C366.89,320.15 365.43,319.42 364.02,318.67C362.63,317.94 361.25,317.2 359.92,316.45C358.62,315.72 357.35,314.98 356.12,314.23C354.93,313.5 353.78,312.76 352.64,312.01C351.53,311.28 350.45,310.53 349.38,309.78C348.33,309.04 347.29,308.3 346.26,307.56C345.25,306.82 344.24,306.09 343.26,305.34C342.3,304.61 341.34,303.87 340.43,303.12C339.55,302.39 338.69,301.66 337.89,300.9C337.13,300.18 336.39,299.44 335.73,298.68C335.1,297.96 334.51,297.22 334,296.46C333.51,295.73 333.07,294.99 332.69,294.23C332.32,293.5 332.02,292.76 331.75,292.01C331.49,291.28 331.29,290.53 331.11,289.79C330.93,289.05 330.8,288.31 330.69,287.57C330.58,286.83 330.5,286.09 330.44,285.35C330.38,284.61 330.34,283.87 330.31,283.13C330.28,282.39 330.28,281.65 330.27,280.91C330.26,280.17 330.27,279.42 330.28,278.68C330.29,277.94 330.3,277.2 330.31,276.46C330.32,275.72 330.34,274.98 330.35,274.24C330.36,273.5 330.37,272.76 330.38,272.02C330.39,271.28 330.39,270.54 330.4,269.8C330.4,269.06 330.41,268.32 330.41,267.58C330.41,266.84 330.41,266.1 330.41,265.36C330.41,264.62 330.4,263.87 330.39,263.13C330.38,262.39 330.38,261.65 330.37,260.91C330.36,260.17 330.36,259.43 330.35,258.69C330.34,257.95 330.33,257.21 330.32,256.47C330.31,255.73 330.31,254.99 330.3,254.25C330.29,253.51 330.28,252.77 330.27,252.03C330.26,251.29 330.26,250.55 330.26,249.81C330.26,249.07 330.25,248.32 330.25,247.58C330.25,246.84 330.24,246.1 330.24,245.36C330.24,244.62 330.25,243.88 330.25,243.14C330.25,242.4 330.25,241.66 330.25,240.92C330.25,240.18 330.26,239.44 330.27,238.7C330.28,237.96 330.28,237.22 330.29,236.48C330.3,235.74 330.31,235 330.32,234.26C330.33,233.52 330.34,232.77 330.35,232.03C330.36,231.29 330.38,230.55 330.38,229.81C330.38,229.07 330.38,228.33 330.38,227.59C330.38,226.85 330.37,226.11 330.36,225.37C330.35,224.63 330.33,223.89 330.31,223.15C330.29,222.41 330.28,221.67 330.26,220.93C330.24,220.19 330.22,219.45 330.21,218.71C330.2,217.97 330.2,217.22 330.19,216.48C330.19,215.74 330.18,215 330.18,214.26C330.18,213.52 330.19,212.78 330.19,212.04C330.19,211.3 330.19,210.56 330.19,209.82C330.19,209.08 330.19,208.34 330.18,207.6C330.17,206.86 330.16,206.12 330.15,205.38C330.14,204.64 330.13,203.9 330.12,203.16C330.11,202.42 330.09,201.67 330.08,200.93C330.07,200.19 330.06,199.45 330.05,198.71C330.04,197.97 330.04,197.23 330.03,196.49C330.03,195.75 330.02,195.01 330.02,194.27C330.02,193.53 330.02,192.79 330.02,192.05C330.02,191.31 330.03,190.57 330.03,189.83C330.04,189.09 330.04,188.35 330.05,187.61C330.06,186.87 330.06,186.12 330.07,185.38C330.08,184.64 330.1,183.9 330.11,183.16C330.13,182.42 330.14,181.68 330.16,180.94C330.18,180.2 330.19,179.46 330.21,178.72C330.22,177.98 330.24,177.24 330.25,176.5C330.26,175.76 330.28,175.02 330.29,174.28C330.3,173.54 330.32,172.8 330.33,172.06C330.34,171.32 330.36,170.58 330.37,169.84C330.38,169.1 330.39,168.35 330.39,167.61C330.39,166.87 330.39,166.13 330.39,165.39C330.39,164.65 330.37,163.91 330.36,163.17C330.35,162.43 330.33,161.69 330.31,160.95C330.29,160.21 330.27,159.47 330.25,158.73C330.23,157.99 330.2,157.25 330.18,156.51C330.16,155.77 330.13,155.03 330.11,154.29C330.09,153.55 330.08,152.8 330.07,152.06C330.06,151.32 330.04,150.58 330.03,149.84C330.02,149.1 330.02,148.36 330.02,147.62C330.02,146.88 330.01,146.14 330.01,145.4C330.01,144.66 330,143.92 330,143.18C330,142.44 330,141.7 330,140.96C330,140.22 330,139.48 330,138.74C330,138 330,137.25 330,136.51C330,135.77 330,135.03 330,134.29C330,133.55 330,132.81 330,132.07C330,131.33 330,130.59 330,129.85C330,129.11 330,128.37 330,127.63C330,126.89 330.01,126.15 330.01,125.41C330.01,124.67 330.02,123.93 330.02,123.19C330.03,122.45 330.03,121.7 330.04,120.96C330.05,120.22 330.06,119.48 330.07,118.74C330.08,118 330.09,117.26 330.1,116.52C330.11,115.78 330.13,115.04 330.14,114.3C330.15,113.56 330.16,112.82 330.17,112.08C330.18,111.34 330.18,110.6 330.18,109.86C330.18,109.12 330.17,108.38 330.17,107.64C330.16,106.9 330.16,106.15 330.15,105.41C330.14,104.67 330.13,103.93 330.12,103.19C330.11,102.45 330.1,101.71 330.09,100.97C330.08,100.23 330.08,99.49 330.08,98.75C330.08,98.01 330.08,97.27 330.09,96.53C330.1,95.79 330.11,95.05 330.13,94.31C330.15,93.57 330.18,92.83 330.2,92.09C330.23,91.35 330.25,90.6 330.28,89.86C330.31,89.12 330.34,88.38 330.37,87.64C330.4,86.9 330.43,86.16 330.45,85.42C330.47,84.68 330.49,83.94 330.49,83.2C330.49,82.46 330.49,81.72 330.48,80.98C330.47,80.24 330.46,79.5 330.44,78.76C330.42,78.02 330.39,77.28 330.36,76.54C330.33,75.8 330.3,75.05 330.27,74.31C330.24,73.57 330.22,72.83 330.19,72.09C330.17,71.35 330.14,70.61 330.12,69.87C330.1,69.13 330.09,68.39 330.07,67.65C330.06,66.91 330.04,66.17 330.03,65.43C330.02,64.69 330.02,63.95 330.02,63.21C330.02,62.47 330.01,61.73 330.01,60.99C330.01,60.25 330,59.5 330,58.76C330,58.02 330,57.28 330,56.54C330,55.8 330,55.06 330,54.32C330,53.58 330.01,52.84 330.01,52.1C330.01,51.36 330.01,50.62 330.01,49.88C330.01,49.14 330.02,48.4 330.02,47.66C330.03,46.92 330.03,46.18 330.04,45.44C330.05,44.7 330.06,43.95 330.07,43.21C330.08,42.47 330.1,41.73 330.11,40.99C330.12,40.25 330.13,39.51 330.14,38.77C330.15,38.03 330.16,37.29 330.17,36.55C330.18,35.81 330.18,35.07 330.18,34.33C330.18,33.59 330.18,32.85 330.17,32.11C330.16,31.37 330.15,30.63 330.14,29.89C330.13,29.15 330.12,28.4 330.11,27.66C330.1,26.92 330.08,26.18 330.07,25.44C330.06,24.7 330.05,23.96 330.04,23.22Q330.03,22.48 330.02,21L329.98,21Q329.97,22.48 329.96,23.22C329.95,23.96 329.94,24.7 329.93,25.44C329.92,26.18 329.9,26.92 329.89,27.66C329.88,28.4 329.87,29.15 329.86,29.89C329.85,30.63 329.84,31.37 329.83,32.11C329.82,32.85 329.82,33.59 329.82,34.33C329.82,35.07 329.82,35.81 329.83,36.55C329.84,37.29 329.85,38.03 329.86,38.77C329.87,39.51 329.88,40.25 329.89,40.99C329.9,41.73 329.92,42.47 329.93,43.21C329.94,43.95 329.95,44.7 329.96,45.44C329.97,46.18 329.97,46.92 329.98,47.66C329.98,48.4 329.99,49.14 329.99,49.88C329.99,50.62 329.99,51.36 329.99,52.1C329.99,52.84 330,53.58 330,54.32C330,55.06 330,55.8 330,56.54C330,57.28 330,58.02 330,58.76C330,59.5 329.99,60.25 329.99,60.99C329.99,61.73 329.98,62.47 329.98,63.21C329.98,63.95 329.98,64.69 329.97,65.43C329.96,66.17 329.94,66.91 329.93,67.65C329.91,68.39 329.9,69.13 329.88,69.87C329.86,70.61 329.83,71.35 329.81,72.09C329.78,72.83 329.76,73.57 329.73,74.31C329.7,75.05 329.67,75.8 329.64,76.54C329.61,77.28 329.58,78.02 329.56,78.76C329.54,79.5 329.53,80.24 329.52,80.98C329.51,81.72 329.51,82.46 329.51,83.2C329.51,83.94 329.53,84.68 329.55,85.42C329.57,86.16 329.6,86.9 329.63,87.64C329.66,88.38 329.69,89.12 329.72,89.86C329.75,90.6 329.77,91.35 329.8,92.09C329.82,92.83 329.85,93.57 329.87,94.31C329.89,95.05 329.9,95.79 329.91,96.53C329.92,97.27 329.92,98.01 329.92,98.75C329.92,99.49 329.92,100.23 329.91,100.97C329.9,101.71 329.89,102.45 329.88,103.19C329.87,103.93 329.86,104.67 329.85,105.41C329.84,106.15 329.84,106.9 329.83,107.64C329.83,108.38 329.82,109.12 329.82,109.86C329.82,110.6 329.82,111.34 329.83,112.08C329.84,112.82 329.85,113.56 329.86,114.3C329.87,115.04 329.89,115.78 329.9,116.52C329.91,117.26 329.92,118 329.93,118.74C329.94,119.48 329.95,120.22 329.96,120.96C329.97,121.7 329.97,122.45 329.98,123.19C329.98,123.93 329.99,124.67 329.99,125.41C329.99,126.15 330,126.89 330,127.63C330,128.37 330,129.11 330,129.85C330,130.59 330,131.33 330,132.07C330,132.81 330,133.55 330,134.29C330,135.03 330,135.77 330,136.51C330,137.25 330,138 330,138.74C330,139.48 330,140.22 330,140.96C330,141.7 330,142.44 330,143.18C330,143.92 329.99,144.66 329.99,145.4C329.99,146.14 329.98,146.88 329.98,147.62C329.98,148.36 329.98,149.1 329.97,149.84C329.96,150.58 329.94,151.32 329.93,152.06C329.92,152.8 329.91,153.55 329.89,154.29C329.87,155.03 329.84,155.77 329.82,156.51C329.8,157.25 329.77,157.99 329.75,158.73C329.73,159.47 329.71,160.21 329.69,160.95C329.67,161.69 329.65,162.43 329.64,163.17C329.63,163.91 329.61,164.65 329.61,165.39C329.61,166.13 329.61,166.87 329.61,167.61C329.61,168.35 329.62,169.1 329.63,169.84C329.64,170.58 329.66,171.32 329.67,172.06C329.68,172.8 329.7,173.54 329.71,174.28C329.72,175.02 329.74,175.76 329.75,176.5C329.76,177.24 329.78,177.98 329.79,178.72C329.81,179.46 329.82,180.2 329.84,180.94C329.86,181.68 329.87,182.42 329.89,183.16C329.9,183.9 329.92,184.64 329.93,185.38C329.94,186.12 329.94,186.87 329.95,187.61C329.96,188.35 329.96,189.09 329.97,189.83C329.97,190.57 329.98,191.31 329.98,192.05C329.98,192.79 329.98,193.53 329.98,194.27C329.98,195.01 329.97,195.75 329.97,196.49C329.96,197.23 329.96,197.97 329.95,198.71C329.94,199.45 329.93,200.19 329.92,200.93C329.91,201.67 329.89,202.42 329.88,203.16C329.87,203.9 329.86,204.64 329.85,205.38C329.84,206.12 329.83,206.86 329.82,207.6C329.81,208.34 329.81,209.08 329.81,209.82C329.81,210.56 329.81,211.3 329.81,212.04C329.81,212.78 329.82,213.52 329.82,214.26C329.82,215 329.81,215.74 329.81,216.48C329.8,217.22 329.8,217.97 329.79,218.71C329.78,219.45 329.76,220.19 329.74,220.93C329.72,221.67 329.71,222.41 329.69,223.15C329.67,223.89 329.65,224.63 329.64,225.37C329.63,226.11 329.62,226.85 329.62,227.59C329.62,228.33 329.62,229.07 329.62,229.81C329.62,230.55 329.64,231.29 329.65,232.03C329.66,232.77 329.67,233.52 329.68,234.26C329.69,235 329.7,235.74 329.71,236.48C329.72,237.22 329.72,237.96 329.73,238.7C329.74,239.44 329.75,240.18 329.75,240.92C329.75,241.66 329.75,242.4 329.75,243.14C329.75,243.88 329.76,244.62 329.76,245.36C329.76,246.1 329.75,246.84 329.75,247.58C329.75,248.32 329.74,249.07 329.74,249.81C329.74,250.55 329.74,251.29 329.73,252.03C329.72,252.77 329.71,253.51 329.7,254.25C329.69,254.99 329.69,255.73 329.68,256.47C329.67,257.21 329.66,257.95 329.65,258.69C329.64,259.43 329.64,260.17 329.63,260.91C329.62,261.65 329.62,262.39 329.61,263.13C329.6,263.87 329.59,264.62 329.59,265.36C329.59,266.1 329.59,266.84 329.59,267.58C329.59,268.32 329.6,269.06 329.6,269.8C329.61,270.54 329.61,271.28 329.62,272.02C329.63,272.76 329.64,273.5 329.65,274.24C329.66,274.98 329.68,275.72 329.69,276.46C329.7,277.2 329.71,277.94 329.72,278.68C329.73,279.42 329.74,280.17 329.73,280.91C329.72,281.65 329.72,282.39 329.69,283.13C329.66,283.87 329.62,284.61 329.56,285.35C329.5,286.09 329.42,286.83 329.31,287.57C329.2,288.31 329.07,289.05 328.89,289.79C328.71,290.53 328.51,291.28 328.25,292.01C327.98,292.76 327.68,293.5 327.31,294.23C326.93,294.99 326.49,295.73 326,296.46C325.49,297.22 324.9,297.96 324.27,298.68C323.61,299.44 322.87,300.18 322.11,300.9C321.31,301.66 320.45,302.39 319.57,303.12C318.66,303.87 317.7,304.61 316.74,305.34C315.76,306.09 314.75,306.82 313.74,307.56C312.71,308.3 311.67,309.04 310.62,309.78C309.55,310.53 308.47,311.28 307.36,312.01C306.22,312.76 305.07,313.5 303.88,314.23C302.65,314.98 301.38,315.72 300.08,316.45C298.75,317.2 297.37,317.94 295.98,318.67C294.57,319.42 293.11,320.15 291.69,320.89C290.27,321.63 288.83,322.36 287.46,323.11C286.14,323.84 284.82,324.56 283.61,325.33C282.48,326.05 281.36,326.78 280.4,327.56C279.52,328.27 278.69,329 278.04,329.78C277.45,330.49 276.93,331.23 276.61,332C276.31,332.71 276.12,333.48 276.1,334.22C276.08,334.96 276.23,335.72 276.48,336.44C276.75,337.2 277.2,337.95 277.72,338.66C278.28,339.43 279.01,340.17 279.77,340.88C280.6,341.65 281.56,342.39 282.55,343.11C283.6,343.87 284.74,344.6 285.89,345.33C287.07,346.08 288.34,346.81 289.55,347.55C290.75,348.29 292,349.01 293.14,349.77C294.22,350.49 295.31,351.21 296.21,351.99C297.02,352.69 297.83,353.42 298.32,354.21C298.75,354.91 299.09,355.68 299.13,356.43C299.17,357.17 298.92,357.95 298.58,358.66C298.21,359.44 297.53,360.16 296.91,360.88C296.25,361.64 295.4,362.35 294.71,363.1C294.04,363.83 293.27,364.54 292.82,365.32C292.42,366.02 292.03,366.81 292.06,367.54C292.09,368.29 292.51,369.08 293.04,369.76C293.69,370.59 294.83,371.29 295.94,371.98C297.25,372.79 298.89,373.5 300.5,374.21C302.26,374.99 304.21,375.7 306.1,376.43C308.03,377.18 310.05,377.9 311.95,378.65C313.79,379.38 315.64,380.1 317.33,380.87C318.89,381.58 320.42,382.3 321.76,383.09C322.96,383.79 324.09,384.52 325.04,385.31C325.89,386.01 326.64,386.75 327.25,387.53C327.81,388.24 328.25,389 328.6,389.76C328.93,390.48 329.15,391.23 329.34,391.98Q329.52,392.71 329.72,394.2Z" style="vector-effect: non-scaling-stroke; stroke-width: 2px; stroke: rgb(0, 0, 0); stroke-opacity: 1; fill: rgb(99, 110, 250); fill-opacity: 0.2;"/><path class="box" d="M316.52,339.39H343.48M316.52,360.3H343.48V326.5H316.52ZM330,360.3V380.85M330,326.5V276.12" style="vector-effect: non-scaling-stroke; stroke-width: 2px; stroke: rgb(0, 0, 0); stroke-opacity: 1; fill: rgb(99, 110, 250); fill-opacity: 0.2;"/><g class="points"><path class="point" transform="translate(330,268.71)" d="M3,0A3,3 0 1,1 0,-3A3,3 0 0,1 3,0Z" style="opacity: 1; stroke-width: 0px; fill: rgb(0, 0, 0); fill-opacity: 1;"/><path class="point" transform="translate(330,262.97)" d="M3,0A3,3 0 1,1 0,-3A3,3 0 0,1 3,0Z" style="opacity: 1; stroke-width: 0px; fill: rgb(0, 0, 0); fill-opacity: 1;"/><path class="point" transform="translate(330,253.58)" d="M3,0A3,3 0 1,1 0,-3A3,3 0 0,1 3,0Z" style="opacity: 1; stroke-width: 0px; fill: rgb(0, 0, 0); fill-opacity: 1;"/><path class="point" transform="translate(330,241.19)" d="M3,0A3,3 0 1,1 0,-3A3,3 0 0,1 3,0Z" style="opacity: 1; stroke-width: 0px; fill: rgb(0, 0, 0); fill-opacity: 1;"/><path class="point" transform="translate(330,228.03)" d="M3,0A3,3 0 1,1 0,-3A3,3 0 0,1 3,0Z" style="opacity: 1; stroke-width: 0px; fill: rgb(0, 0, 0); fill-opacity: 1;"/><path class="point" transform="translate(330,226.94)" d="M3,0A3,3 0 1,1 0,-3A3,3 0 0,1 3,0Z" style="opacity: 1; stroke-width: 0px; fill: rgb(0, 0, 0); fill-opacity: 1;"/><path class="point" transform="translate(330,209.12)" d="M3,0A3,3 0 1,1 0,-3A3,3 0 0,1 3,0Z" style="opacity: 1; stroke-width: 0px; fill: rgb(0, 0, 0); fill-opacity: 1;"/><path class="point" transform="translate(330,176.38)" d="M3,0A3,3 0 1,1 0,-3A3,3 0 0,1 3,0Z" style="opacity: 1; stroke-width: 0px; fill: rgb(0, 0, 0); fill-opacity: 1;"/><path class="point" transform="translate(330,166.04)" d="M3,0A3,3 0 1,1 0,-3A3,3 0 0,1 3,0Z" style="opacity: 1; stroke-width: 0px; fill: rgb(0, 0, 0); fill-opacity: 1;"/><path class="point" transform="translate(330,163.05)" d="M3,0A3,3 0 1,1 0,-3A3,3 0 0,1 3,0Z" style="opacity: 1; stroke-width: 0px; fill: rgb(0, 0, 0); fill-opacity: 1;"/><path class="point" transform="translate(330,109.59)" d="M3,0A3,3 0 1,1 0,-3A3,3 0 0,1 3,0Z" style="opacity: 1; stroke-width: 0px; fill: rgb(0, 0, 0); fill-opacity: 1;"/><path class="point" transform="translate(330,84.61)" d="M3,0A3,3 0 1,1 0,-3A3,3 0 0,1 3,0Z" style="opacity: 1; stroke-width: 0px; fill: rgb(0, 0, 0); fill-opacity: 1;"/><path class="point" transform="translate(330,83.37)" d="M3,0A3,3 0 1,1 0,-3A3,3 0 0,1 3,0Z" style="opacity: 1; stroke-width: 0px; fill: rgb(0, 0, 0); fill-opacity: 1;"/><path class="point" transform="translate(330,78.35)" d="M3,0A3,3 0 1,1 0,-3A3,3 0 0,1 3,0Z" style="opacity: 1; stroke-width: 0px; fill: rgb(0, 0, 0); fill-opacity: 1;"/><path class="point" transform="translate(330,34.35)" d="M3,0A3,3 0 1,1 0,-3A3,3 0 0,1 3,0Z" style="opacity: 1; stroke-width: 0px; fill: rgb(0, 0, 0); fill-opacity: 1;"/></g></g></g></g><g class="overplot"/><path class="xlines-above crisp" d="M0,0" style="fill: none;"/><path class="ylines-above crisp" d="M0,0" style="fill: none;"/><g class="overlines-above"/><g class="xaxislayer-above"><g class="xtick"><text text-anchor="middle" x="0" y="533" transform="translate(190,0)" style="font-family: 'Open Sans', verdana, arial, sans-serif; font-size: 12px; fill: rgb(42, 63, 95); fill-opacity: 1; white-space: pre; opacity: 1;">P1000-US</text></g><g class="xtick"><text text-anchor="middle" x="0" y="533" transform="translate(410,0)" style="font-family: 'Open Sans', verdana, arial, sans-serif; font-size: 12px; fill: rgb(42, 63, 95); fill-opacity: 1; white-space: pre; opacity: 1;">MUTO-INTL</text></g></g><g class="yaxislayer-above"><g class="ytick"><text text-anchor="end" x="79" y="4.199999999999999" transform="translate(0,483.73)" style="font-family: 'Open Sans', verdana, arial, sans-serif; font-size: 12px; fill: rgb(42, 63, 95); fill-opacity: 1; white-space: pre; opacity: 1;">0</text></g><g class="ytick"><text text-anchor="end" x="79" y="4.199999999999999" style="font-family: 'Open Sans', verdana, arial, sans-serif; font-size: 12px; fill: rgb(42, 63, 95); fill-opacity: 1; white-space: pre; opacity: 1;" transform="translate(0,401.48)">5B</text></g><g class="ytick"><text text-anchor="end" x="79" y="4.199999999999999" style="font-family: 'Open Sans', verdana, arial, sans-serif; font-size: 12px; fill: rgb(42, 63, 95); fill-opacity: 1; white-space: pre; opacity: 1;" transform="translate(0,319.22)">10B</text></g><g class="ytick"><text text-anchor="end" x="79" y="4.199999999999999" style="font-family: 'Open Sans', verdana, arial, sans-serif; font-size: 12px; fill: rgb(42, 63, 95); fill-opacity: 1; white-space: pre; opacity: 1;" transform="translate(0,236.97)">15B</text></g><g class="ytick"><text text-anchor="end" x="79" y="4.199999999999999" style="font-family: 'Open Sans', verdana, arial, sans-serif; font-size: 12px; fill: rgb(42, 63, 95); fill-opacity: 1; white-space: pre; opacity: 1;" transform="translate(0,154.72)">20B</text></g></g><g class="overaxes-above"/></g></g><g class="polarlayer"/><g class="smithlayer"/><g class="ternarylayer"/><g class="geolayer"/><g class="funnelarealayer"/><g class="pielayer"/><g class="iciclelayer"/><g class="treemaplayer"/><g class="sunburstlayer"/><g class="glimages"/><defs id="topdefs-1560a3"><g class="clips"/></defs><g class="layer-above"><g class="imagelayer"/><g class="shapelayer"/></g><g class="infolayer"><g class="g-gtitle"><text class="gtitle" x="30" y="50" text-anchor="start" dy="0em" style="font-family: 'Open Sans', verdana, arial, sans-serif; font-size: 20px; fill: rgb(42, 63, 95); opacity: 1; font-weight: normal; white-space: pre;">Comparing processing times scoreDn for projects</text></g><g class="g-xtitle"/><g class="g-ytitle"><text class="ytitle" transform="rotate(-90,30.715625000000003,310)" x="30.715625000000003" y="310" text-anchor="middle" style="font-family: 'Open Sans', verdana, arial, sans-serif; font-size: 14px; fill: rgb(42, 63, 95); opacity: 1; font-weight: normal; white-space: pre;">ReadsAlignedPerHour</text></g></g></svg>