<svg class="main-svg" xmlns="http://www.w3.org/2000/svg" xmlns:xlink="http://www.w3.org/1999/xlink" width="600" height="600" style="" viewBox="0 0 600 600"><rect x="0" y="0" width="600" height="600" style="fill: rgb(255, 255, 255); fill-opacity: 1;"/><defs id="defs-ee3bd4"><g class="clips"><clipPath id="clipee3bd4xyplot" class="plotclip"><rect width="440" height="420"/></clipPath><clipPath class="axesclip" id="clipee3bd4x"><rect x="80" y="0" width="440" height="600"/></clipPath><clipPath class="axesclip" id="clipee3bd4y"><rect x="0" y="100" width="600" height="420"/></clipPath><clipPath class="axesclip" id="clipee3bd4xy"><rect x="80" y="100" width="440" height="420"/></clipPath></g><g class="gradients"/><g class="patterns"/></defs><g class="bglayer"><rect class="bg" x="80" y="100" width="440" height="420" style="fill: rgb(229, 236, 246); fill-opacity: 1; stroke-width: 0;"/></g><g class="layer-below"><g class="imagelayer"/><g class="shapelayer"/></g><g class="cartesianlayer"><g class="subplot xy"><g class="layer-subplot"><g class="shapelayer"/><g class="imagelayer"/></g><g class="minor-gridlayer"><g class="x"/><g class="y"/></g><g class="gridlayer"><g class="x"/><g class="y"><path class="ygrid crisp" transform="translate(0,438.68)" d="M80,0h440" style="stroke: rgb(255, 255, 255); stroke-opacity: 1; stroke-width: 1px;"/><path class="ygrid crisp" transform="translate(0,372.89)" d="M80,0h440" style="stroke: rgb(255, 255, 255); stroke-opacity: 1; stroke-width: 1px;"/><path class="ygrid crisp" transform="translate(0,307.1)" d="M80,0h440" style="stroke: rgb(255, 255, 255); stroke-opacity: 1; stroke-width: 1px;"/><path class="ygrid crisp" transform="translate(0,241.3)" d="M80,0h440" style="stroke: rgb(255, 255, 255); stroke-opacity: 1; stroke-width: 1px;"/><path class="ygrid crisp" transform="translate(0,175.51)" d="M80,0h440" style="stroke: rgb(255, 255, 255); stroke-opacity: 1; stroke-width: 1px;"/><path class="ygrid crisp" transform="translate(0,109.72)" d="M80,0h440" style="stroke: rgb(255, 255, 255); stroke-opacity: 1; stroke-width: 1px;"/></g></g><g class="zerolinelayer"><path class="yzl zl crisp" transform="translate(0,504.47)" d="M80,0h440" style="stroke: rgb(255, 255, 255); stroke-opacity: 1; stroke-width: 2px;"/></g><path class="xlines-below"/><path class="ylines-below"/><g class="overlines-below"/><g class="xaxislayer-below"/><g class="yaxislayer-below"/><g class="overaxes-below"/><g class="plot" transform="translate(80,100)" clip-path="url(#clipee3bd4xyplot)"><g class="violinlayer mlayer"><g class="trace violins" style="opacity: 1;"><path class="violin" d="M110.3,388.65Q110.46,387.59 110.59,387.06C110.72,386.53 110.88,386 111.08,385.48C111.29,384.94 111.54,384.41 111.83,383.89C112.14,383.35 112.5,382.82 112.9,382.3C113.32,381.76 113.8,381.23 114.31,380.72C114.85,380.18 115.45,379.65 116.07,379.13C116.71,378.59 117.4,378.07 118.08,377.55C118.78,377.02 119.51,376.49 120.22,375.96C120.93,375.43 121.65,374.91 122.36,374.38C123.06,373.85 123.75,373.32 124.46,372.79C125.17,372.26 125.86,371.72 126.62,371.21C127.42,370.67 128.25,370.13 129.16,369.62C130.16,369.06 131.25,368.54 132.41,368.04C133.71,367.48 135.14,366.96 136.61,366.45C138.22,365.9 139.96,365.38 141.69,364.86C143.5,364.32 145.4,363.81 147.24,363.28C149.05,362.76 150.91,362.24 152.63,361.69C154.22,361.18 155.82,360.68 157.21,360.11C158.43,359.61 159.6,359.1 160.56,358.52C161.36,358.03 162.09,357.52 162.62,356.94C163.07,356.45 163.41,355.9 163.62,355.35C163.82,354.84 163.88,354.3 163.9,353.77C163.92,353.24 163.84,352.7 163.72,352.18C163.6,351.64 163.41,351.1 163.15,350.59C162.87,350.04 162.52,349.51 162.08,349.01C161.59,348.45 160.99,347.92 160.33,347.42C159.58,346.86 158.71,346.34 157.79,345.84C156.78,345.28 155.64,344.76 154.5,344.25C153.28,343.7 151.99,343.19 150.69,342.67C149.35,342.13 147.97,341.61 146.6,341.08C145.22,340.55 143.83,340.03 142.45,339.5C141.08,338.97 139.72,338.44 138.36,337.91C137.02,337.38 135.68,336.86 134.36,336.33C133.06,335.81 131.76,335.28 130.49,334.74C129.25,334.22 128.01,333.69 126.82,333.15C125.67,332.63 124.53,332.11 123.44,331.57C122.4,331.05 121.39,330.52 120.43,329.98C119.52,329.47 118.64,328.94 117.82,328.4C117.04,327.89 116.3,327.36 115.62,326.81C114.98,326.3 114.39,325.78 113.85,325.23C113.35,324.72 112.88,324.18 112.48,323.64C112.1,323.13 111.77,322.6 111.49,322.06C111.22,321.54 111,321.01 110.82,320.47Q110.65,319.95 110.42,318.89L109.58,318.89Q109.35,319.95 109.18,320.47C109,321.01 108.78,321.54 108.51,322.06C108.23,322.6 107.9,323.13 107.52,323.64C107.12,324.18 106.65,324.72 106.15,325.23C105.61,325.78 105.02,326.3 104.38,326.81C103.7,327.36 102.96,327.89 102.18,328.4C101.36,328.94 100.48,329.47 99.57,329.98C98.61,330.52 97.6,331.05 96.56,331.57C95.47,332.11 94.33,332.63 93.18,333.15C91.99,333.69 90.75,334.22 89.51,334.74C88.24,335.28 86.94,335.81 85.64,336.33C84.32,336.86 82.98,337.38 81.64,337.91C80.28,338.44 78.92,338.97 77.55,339.5C76.17,340.03 74.78,340.55 73.4,341.08C72.03,341.61 70.65,342.13 69.31,342.67C68.01,343.19 66.72,343.7 65.5,344.25C64.36,344.76 63.22,345.28 62.21,345.84C61.29,346.34 60.42,346.86 59.67,347.42C59.01,347.92 58.41,348.45 57.92,349.01C57.48,349.51 57.13,350.04 56.85,350.59C56.59,351.1 56.4,351.64 56.28,352.18C56.16,352.7 56.08,353.24 56.1,353.77C56.12,354.3 56.18,354.84 56.38,355.35C56.59,355.9 56.93,356.45 57.38,356.94C57.91,357.52 58.64,358.03 59.44,358.52C60.4,359.1 61.57,359.61 62.79,360.11C64.18,360.68 65.78,361.18 67.37,361.69C69.09,362.24 70.95,362.76 72.76,363.28C74.6,363.81 76.5,364.32 78.31,364.86C80.04,365.38 81.78,365.9 83.39,366.45C84.86,366.96 86.29,367.48 87.59,368.04C88.75,368.54 89.84,369.06 90.84,369.62C91.75,370.13 92.58,370.67 93.38,371.21C94.14,371.72 94.83,372.26 95.54,372.79C96.25,373.32 96.94,373.85 97.64,374.38C98.35,374.91 99.07,375.43 99.78,375.96C100.49,376.49 101.22,377.02 101.92,377.55C102.6,378.07 103.29,378.59 103.93,379.13C104.55,379.65 105.15,380.18 105.69,380.72C106.2,381.23 106.68,381.76 107.1,382.3C107.5,382.82 107.86,383.35 108.17,383.89C108.46,384.41 108.71,384.94 108.92,385.48C109.12,386 109.28,386.53 109.41,387.06Q109.54,387.59 109.7,388.65Z" style="vector-effect: non-scaling-stroke; stroke-width: 2px; stroke: rgb(0, 0, 0); stroke-opacity: 1; fill: rgb(99, 110, 250); fill-opacity: 0.2;"/><path class="box" d="M96.53,352.42H123.48M96.53,359.88H123.48V345.19H96.53ZM110,359.88V378.95M110,345.19V328.59" style="vector-effect: non-scaling-stroke; stroke-width: 2px; stroke: rgb(0, 0, 0); stroke-opacity: 1; fill: rgb(99, 110, 250); fill-opacity: 0.2;"/><g class="points"/></g><g class="trace violins" style="opacity: 1;"><path class="violin" d="M330.06,399Q330.09,398.1 330.11,397.65C330.13,397.2 330.16,396.75 330.19,396.3C330.22,395.85 330.26,395.4 330.3,394.95C330.34,394.5 330.38,394.05 330.43,393.6C330.48,393.15 330.53,392.7 330.58,392.25C330.63,391.8 330.68,391.35 330.73,390.9C330.78,390.45 330.84,390 330.9,389.55C330.96,389.1 331.02,388.65 331.1,388.2C331.18,387.75 331.27,387.3 331.36,386.85C331.46,386.4 331.56,385.95 331.67,385.5C331.78,385.05 331.91,384.6 332.03,384.15C332.15,383.7 332.28,383.25 332.4,382.8C332.52,382.35 332.63,381.9 332.75,381.45C332.87,381 332.98,380.55 333.1,380.1C333.22,379.65 333.34,379.2 333.49,378.75C333.64,378.3 333.79,377.84 333.99,377.4C334.19,376.94 334.42,376.49 334.7,376.05C334.99,375.59 335.33,375.14 335.71,374.7C336.12,374.23 336.59,373.78 337.11,373.35C337.67,372.88 338.31,372.43 338.98,372C339.71,371.53 340.51,371.08 341.35,370.65C342.26,370.18 343.24,369.74 344.25,369.3C345.33,368.83 346.48,368.39 347.66,367.95C348.9,367.49 350.2,367.04 351.51,366.6C352.86,366.14 354.27,365.7 355.66,365.25C357.07,364.8 358.51,364.35 359.92,363.9C361.32,363.45 362.73,363.01 364.11,362.55C365.46,362.1 366.79,361.66 368.1,361.2C369.37,360.76 370.62,360.31 371.83,359.85C373,359.41 374.14,358.96 375.25,358.5C376.31,358.06 377.35,357.62 378.33,357.15C379.24,356.71 380.15,356.28 380.94,355.8C381.65,355.37 382.36,354.94 382.87,354.45C383.31,354.03 383.75,353.58 383.9,353.1C384.04,352.67 384.02,352.17 383.86,351.75C383.68,351.27 383.21,350.82 382.75,350.4C382.2,349.91 381.46,349.48 380.72,349.05C379.91,348.57 378.97,348.14 378.06,347.7C377.11,347.24 376.09,346.8 375.11,346.35C374.13,345.9 373.12,345.46 372.16,345C371.23,344.56 370.31,344.11 369.44,343.65C368.62,343.21 367.83,342.77 367.09,342.3C366.4,341.86 365.75,341.42 365.16,340.95C364.61,340.52 364.1,340.07 363.65,339.6C363.23,339.16 362.85,338.71 362.51,338.25C362.18,337.81 361.91,337.35 361.63,336.9C361.36,336.45 361.12,336 360.87,335.55C360.61,335.1 360.38,334.64 360.1,334.2C359.82,333.74 359.52,333.29 359.19,332.85C358.85,332.39 358.49,331.94 358.1,331.5C357.7,331.04 357.27,330.59 356.83,330.15C356.37,329.69 355.89,329.24 355.39,328.8C354.88,328.34 354.36,327.89 353.82,327.45C353.26,326.99 352.69,326.54 352.09,326.1C351.47,325.64 350.84,325.19 350.18,324.75C349.49,324.29 348.78,323.84 348.05,323.4C347.3,322.94 346.51,322.5 345.73,322.05C344.93,321.6 344.11,321.15 343.31,320.7C342.51,320.25 341.7,319.8 340.92,319.35C340.15,318.9 339.39,318.46 338.66,318C337.96,317.56 337.28,317.11 336.65,316.65C336.05,316.21 335.47,315.76 334.95,315.3C334.46,314.86 333.99,314.41 333.58,313.95C333.2,313.51 332.85,313.06 332.55,312.6C332.27,312.16 332.03,311.71 331.82,311.25C331.62,310.81 331.46,310.35 331.33,309.9C331.2,309.45 331.1,309 331.02,308.55C330.94,308.1 330.89,307.65 330.84,307.2C330.79,306.75 330.77,306.3 330.74,305.85C330.72,305.4 330.71,304.95 330.69,304.5C330.68,304.05 330.66,303.6 330.65,303.15C330.64,302.7 330.64,302.25 330.63,301.8C330.62,301.35 330.61,300.9 330.6,300.45C330.59,300 330.57,299.55 330.56,299.1C330.54,298.65 330.53,298.2 330.51,297.75C330.49,297.3 330.47,296.85 330.45,296.4C330.43,295.95 330.4,295.5 330.38,295.05C330.35,294.6 330.33,294.15 330.3,293.7C330.28,293.25 330.25,292.8 330.23,292.35C330.21,291.9 330.19,291.45 330.18,291C330.17,290.55 330.15,290.1 330.15,289.65C330.15,289.2 330.15,288.75 330.15,288.3C330.15,287.85 330.16,287.4 330.16,286.95C330.17,286.5 330.18,286.05 330.18,285.6C330.18,285.15 330.18,284.7 330.18,284.25C330.18,283.8 330.18,283.35 330.17,282.9C330.16,282.45 330.15,282 330.14,281.55C330.13,281.1 330.12,280.65 330.11,280.2C330.1,279.75 330.08,279.3 330.07,278.85C330.06,278.4 330.05,277.95 330.04,277.5C330.03,277.05 330.03,276.6 330.02,276.15C330.02,275.7 330.01,275.25 330.01,274.8C330.01,274.35 330,273.9 330,273.45C330,273 330,272.55 330,272.1C330,271.65 330,271.2 330,270.75C330,270.3 330,269.85 330,269.4C330,268.95 330,268.5 330,268.05C330,267.6 330,267.15 330,266.7C330,266.25 330,265.8 330,265.35C330,264.9 330,264.45 330,264C330,263.55 330,263.1 330,262.65C330,262.2 330,261.75 330,261.3C330,260.85 330,260.4 330,259.95C330,259.5 330,259.05 330,258.6C330,258.15 330,257.7 330,257.25C330,256.8 330.01,256.35 330.01,255.9C330.01,255.45 330.01,255 330.02,254.55C330.03,254.1 330.04,253.65 330.05,253.2C330.06,252.75 330.07,252.3 330.09,251.85C330.11,251.4 330.14,250.95 330.17,250.5C330.2,250.05 330.24,249.6 330.28,249.15C330.32,248.7 330.37,248.25 330.42,247.8C330.46,247.35 330.51,246.9 330.55,246.45C330.59,246 330.63,245.55 330.66,245.1C330.68,244.65 330.7,244.2 330.7,243.75C330.7,243.3 330.69,242.85 330.67,242.4C330.65,241.95 330.62,241.5 330.58,241.05C330.54,240.6 330.49,240.15 330.44,239.7C330.4,239.25 330.35,238.8 330.31,238.35C330.27,237.9 330.22,237.45 330.19,237C330.16,236.55 330.13,236.1 330.11,235.65C330.09,235.2 330.07,234.75 330.05,234.3C330.04,233.85 330.03,233.4 330.02,232.95C330.01,232.5 330.01,232.05 330.01,231.6C330.01,231.15 330,230.7 330,230.25C330,229.8 330,229.35 330,228.9C330,228.45 330,228 330,227.55C330,227.1 330,226.65 330,226.2C330,225.75 330,225.3 330,224.85C330,224.4 330.01,223.95 330.01,223.5C330.01,223.05 330.01,222.6 330.01,222.15C330.01,221.7 330.02,221.25 330.03,220.8C330.04,220.35 330.05,219.9 330.06,219.45C330.07,219 330.09,218.55 330.11,218.1C330.13,217.65 330.15,217.2 330.17,216.75C330.19,216.3 330.22,215.85 330.24,215.4C330.26,214.95 330.29,214.5 330.31,214.05C330.33,213.6 330.35,213.15 330.36,212.7C330.37,212.25 330.38,211.8 330.38,211.35C330.38,210.9 330.37,210.45 330.36,210C330.35,209.55 330.34,209.1 330.33,208.65C330.32,208.2 330.31,207.75 330.3,207.3C330.29,206.85 330.28,206.4 330.27,205.95C330.26,205.5 330.25,205.05 330.24,204.6C330.23,204.15 330.23,203.7 330.22,203.25C330.21,202.8 330.2,202.35 330.19,201.9C330.18,201.45 330.16,201 330.15,200.55C330.14,200.1 330.12,199.65 330.11,199.2C330.1,198.75 330.09,198.3 330.08,197.85C330.07,197.4 330.06,196.95 330.05,196.5C330.04,196.05 330.04,195.6 330.03,195.15C330.02,194.7 330.01,194.25 330.01,193.8C330.01,193.35 330.01,192.9 330.01,192.45C330.01,192 330,191.55 330,191.1C330,190.65 330,190.2 330,189.75C330,189.3 330,188.85 330,188.4C330,187.95 330,187.5 330,187.05C330,186.6 330,186.15 330,185.7C330,185.25 330,184.8 330,184.35C330,183.9 330,183.45 330,183C330,182.55 330,182.1 330,181.65C330,181.2 330,180.75 330,180.3C330,179.85 330,179.4 330,178.95C330,178.5 330,178.05 330,177.6C330,177.15 330,176.7 330,176.25C330,175.8 330,175.35 330,174.9C330,174.45 330,174 330,173.55C330,173.1 330,172.65 330,172.2C330,171.75 330,171.3 330,170.85C330,170.4 330,169.95 330,169.5C330,169.05 330,168.6 330,168.15C330,167.7 330,167.25 330,166.8C330,166.35 330,165.9 330,165.45C330,165 330,164.55 330,164.1C330,163.65 330,163.2 330,162.75C330,162.3 330,161.85 330,161.4C330,160.95 330.01,160.5 330.01,160.05C330.01,159.6 330.02,159.15 330.02,158.7C330.02,158.25 330.02,157.8 330.03,157.35C330.04,156.9 330.06,156.45 330.07,156C330.09,155.55 330.1,155.1 330.12,154.65C330.14,154.2 330.17,153.75 330.2,153.3C330.23,152.85 330.26,152.4 330.3,151.95C330.34,151.5 330.38,151.05 330.42,150.6C330.46,150.15 330.5,149.7 330.53,149.25C330.56,148.8 330.59,148.35 330.61,147.9C330.63,147.45 330.65,147 330.65,146.55C330.65,146.1 330.65,145.65 330.63,145.2C330.61,144.75 330.58,144.3 330.55,143.85C330.52,143.4 330.48,142.95 330.44,142.5C330.4,142.05 330.37,141.6 330.33,141.15C330.29,140.7 330.25,140.25 330.22,139.8C330.19,139.35 330.16,138.9 330.14,138.45C330.12,138 330.11,137.55 330.1,137.1C330.09,136.65 330.09,136.2 330.09,135.75C330.09,135.3 330.1,134.85 330.11,134.4C330.12,133.95 330.13,133.5 330.14,133.05C330.15,132.6 330.17,132.15 330.18,131.7C330.19,131.25 330.2,130.8 330.21,130.35C330.22,129.9 330.23,129.45 330.24,129C330.25,128.55 330.25,128.1 330.25,127.65C330.25,127.2 330.26,126.75 330.26,126.3C330.26,125.85 330.25,125.4 330.25,124.95C330.24,124.5 330.24,124.05 330.23,123.6C330.22,123.15 330.22,122.7 330.21,122.25C330.2,121.8 330.18,121.35 330.17,120.9C330.16,120.45 330.14,120 330.13,119.55C330.12,119.1 330.1,118.65 330.09,118.2C330.08,117.75 330.07,117.3 330.06,116.85C330.05,116.4 330.04,115.95 330.03,115.5C330.02,115.05 330.02,114.6 330.02,114.15C330.02,113.7 330.01,113.25 330.01,112.8C330.01,112.35 330.01,111.9 330.01,111.45C330.01,111 330.02,110.55 330.02,110.1C330.03,109.65 330.03,109.2 330.04,108.75C330.05,108.3 330.05,107.85 330.06,107.4C330.07,106.95 330.09,106.5 330.1,106.05C330.11,105.6 330.12,105.15 330.13,104.7C330.14,104.25 330.15,103.8 330.16,103.35C330.17,102.9 330.18,102.45 330.18,102C330.18,101.55 330.17,101.1 330.17,100.65C330.16,100.2 330.16,99.75 330.15,99.3C330.14,98.85 330.13,98.4 330.12,97.95C330.11,97.5 330.1,97.05 330.09,96.6C330.08,96.15 330.07,95.7 330.06,95.25C330.05,94.8 330.05,94.35 330.04,93.9C330.04,93.45 330.03,93 330.03,92.55C330.03,92.1 330.04,91.65 330.04,91.2C330.05,90.75 330.05,90.3 330.06,89.85C330.07,89.4 330.09,88.95 330.1,88.5C330.11,88.05 330.13,87.6 330.14,87.15C330.15,86.7 330.16,86.25 330.17,85.8C330.18,85.35 330.19,84.9 330.2,84.45C330.21,84 330.21,83.55 330.22,83.1C330.23,82.65 330.24,82.2 330.24,81.75C330.24,81.3 330.24,80.85 330.24,80.4C330.24,79.95 330.24,79.5 330.24,79.05C330.24,78.6 330.23,78.15 330.23,77.7C330.22,77.25 330.22,76.8 330.21,76.35C330.2,75.9 330.19,75.45 330.18,75C330.17,74.55 330.15,74.1 330.14,73.65C330.13,73.2 330.11,72.75 330.1,72.3C330.09,71.85 330.08,71.4 330.07,70.95C330.06,70.5 330.05,70.05 330.04,69.6C330.03,69.15 330.03,68.7 330.02,68.25C330.02,67.8 330.01,67.35 330.01,66.9C330.01,66.45 330.01,66 330.01,65.55C330.01,65.1 330.01,64.65 330.01,64.2C330.01,63.75 330.02,63.3 330.03,62.85C330.04,62.4 330.04,61.95 330.05,61.5C330.06,61.05 330.07,60.6 330.08,60.15C330.09,59.7 330.1,59.25 330.11,58.8C330.12,58.35 330.14,57.9 330.15,57.45C330.16,57 330.16,56.55 330.17,56.1C330.17,55.65 330.18,55.2 330.18,54.75C330.18,54.3 330.18,53.85 330.17,53.4C330.16,52.95 330.15,52.5 330.14,52.05C330.13,51.6 330.11,51.15 330.1,50.7C330.09,50.25 330.08,49.8 330.07,49.35C330.06,48.9 330.05,48.45 330.04,48C330.03,47.55 330.03,47.1 330.02,46.65C330.02,46.2 330.01,45.75 330.01,45.3C330.01,44.85 330,44.4 330,43.95C330,43.5 330,43.05 330,42.6C330,42.15 330,41.7 330,41.25C330,40.8 330.01,40.35 330.01,39.9C330.01,39.45 330.01,39 330.01,38.55C330.01,38.1 330.02,37.65 330.02,37.2C330.03,36.75 330.03,36.3 330.04,35.85C330.05,35.4 330.06,34.95 330.07,34.5C330.08,34.05 330.1,33.6 330.11,33.15C330.12,32.7 330.13,32.25 330.14,31.8C330.15,31.35 330.16,30.9 330.17,30.45C330.18,30 330.18,29.55 330.18,29.1C330.18,28.65 330.18,28.2 330.17,27.75C330.16,27.3 330.15,26.85 330.14,26.4C330.13,25.95 330.12,25.5 330.11,25.05C330.1,24.6 330.08,24.15 330.07,23.7C330.06,23.25 330.05,22.8 330.04,22.35Q330.03,21.9 330.02,21L329.98,21Q329.97,21.9 329.96,22.35C329.95,22.8 329.94,23.25 329.93,23.7C329.92,24.15 329.9,24.6 329.89,25.05C329.88,25.5 329.87,25.95 329.86,26.4C329.85,26.85 329.84,27.3 329.83,27.75C329.82,28.2 329.82,28.65 329.82,29.1C329.82,29.55 329.82,30 329.83,30.45C329.84,30.9 329.85,31.35 329.86,31.8C329.87,32.25 329.88,32.7 329.89,33.15C329.9,33.6 329.92,34.05 329.93,34.5C329.94,34.95 329.95,35.4 329.96,35.85C329.97,36.3 329.97,36.75 329.98,37.2C329.98,37.65 329.99,38.1 329.99,38.55C329.99,39 329.99,39.45 329.99,39.9C329.99,40.35 330,40.8 330,41.25C330,41.7 330,42.15 330,42.6C330,43.05 330,43.5 330,43.95C330,44.4 329.99,44.85 329.99,45.3C329.99,45.75 329.98,46.2 329.98,46.65C329.97,47.1 329.97,47.55 329.96,48C329.95,48.45 329.94,48.9 329.93,49.35C329.92,49.8 329.91,50.25 329.9,50.7C329.89,51.15 329.87,51.6 329.86,52.05C329.85,52.5 329.84,52.95 329.83,53.4C329.82,53.85 329.82,54.3 329.82,54.75C329.82,55.2 329.83,55.65 329.83,56.1C329.84,56.55 329.84,57 329.85,57.45C329.86,57.9 329.88,58.35 329.89,58.8C329.9,59.25 329.91,59.7 329.92,60.15C329.93,60.6 329.94,61.05 329.95,61.5C329.96,61.95 329.96,62.4 329.97,62.85C329.98,63.3 329.99,63.75 329.99,64.2C329.99,64.65 329.99,65.1 329.99,65.55C329.99,66 329.99,66.45 329.99,66.9C329.99,67.35 329.98,67.8 329.98,68.25C329.97,68.7 329.97,69.15 329.96,69.6C329.95,70.05 329.94,70.5 329.93,70.95C329.92,71.4 329.91,71.85 329.9,72.3C329.89,72.75 329.87,73.2 329.86,73.65C329.85,74.1 329.83,74.55 329.82,75C329.81,75.45 329.8,75.9 329.79,76.35C329.78,76.8 329.78,77.25 329.77,77.7C329.77,78.15 329.76,78.6 329.76,79.05C329.76,79.5 329.76,79.95 329.76,80.4C329.76,80.85 329.76,81.3 329.76,81.75C329.76,82.2 329.77,82.65 329.78,83.1C329.79,83.55 329.79,84 329.8,84.45C329.81,84.9 329.82,85.35 329.83,85.8C329.84,86.25 329.85,86.7 329.86,87.15C329.87,87.6 329.89,88.05 329.9,88.5C329.91,88.95 329.93,89.4 329.94,89.85C329.95,90.3 329.95,90.75 329.96,91.2C329.96,91.65 329.97,92.1 329.97,92.55C329.97,93 329.96,93.45 329.96,93.9C329.95,94.35 329.95,94.8 329.94,95.25C329.93,95.7 329.92,96.15 329.91,96.6C329.9,97.05 329.89,97.5 329.88,97.95C329.87,98.4 329.86,98.85 329.85,99.3C329.84,99.75 329.84,100.2 329.83,100.65C329.83,101.1 329.82,101.55 329.82,102C329.82,102.45 329.83,102.9 329.84,103.35C329.85,103.8 329.86,104.25 329.87,104.7C329.88,105.15 329.89,105.6 329.9,106.05C329.91,106.5 329.93,106.95 329.94,107.4C329.95,107.85 329.95,108.3 329.96,108.75C329.97,109.2 329.97,109.65 329.98,110.1C329.98,110.55 329.99,111 329.99,111.45C329.99,111.9 329.99,112.35 329.99,112.8C329.99,113.25 329.98,113.7 329.98,114.15C329.98,114.6 329.98,115.05 329.97,115.5C329.96,115.95 329.95,116.4 329.94,116.85C329.93,117.3 329.92,117.75 329.91,118.2C329.9,118.65 329.88,119.1 329.87,119.55C329.86,120 329.84,120.45 329.83,120.9C329.82,121.35 329.8,121.8 329.79,122.25C329.78,122.7 329.78,123.15 329.77,123.6C329.76,124.05 329.76,124.5 329.75,124.95C329.75,125.4 329.74,125.85 329.74,126.3C329.74,126.75 329.75,127.2 329.75,127.65C329.75,128.1 329.75,128.55 329.76,129C329.77,129.45 329.78,129.9 329.79,130.35C329.8,130.8 329.81,131.25 329.82,131.7C329.83,132.15 329.85,132.6 329.86,133.05C329.87,133.5 329.88,133.95 329.89,134.4C329.9,134.85 329.91,135.3 329.91,135.75C329.91,136.2 329.91,136.65 329.9,137.1C329.89,137.55 329.88,138 329.86,138.45C329.84,138.9 329.81,139.35 329.78,139.8C329.75,140.25 329.71,140.7 329.67,141.15C329.63,141.6 329.6,142.05 329.56,142.5C329.52,142.95 329.48,143.4 329.45,143.85C329.42,144.3 329.39,144.75 329.37,145.2C329.35,145.65 329.35,146.1 329.35,146.55C329.35,147 329.37,147.45 329.39,147.9C329.41,148.35 329.44,148.8 329.47,149.25C329.5,149.7 329.54,150.15 329.58,150.6C329.62,151.05 329.66,151.5 329.7,151.95C329.74,152.4 329.77,152.85 329.8,153.3C329.83,153.75 329.86,154.2 329.88,154.65C329.9,155.1 329.91,155.55 329.93,156C329.94,156.45 329.96,156.9 329.97,157.35C329.98,157.8 329.98,158.25 329.98,158.7C329.98,159.15 329.99,159.6 329.99,160.05C329.99,160.5 330,160.95 330,161.4C330,161.85 330,162.3 330,162.75C330,163.2 330,163.65 330,164.1C330,164.55 330,165 330,165.45C330,165.9 330,166.35 330,166.8C330,167.25 330,167.7 330,168.15C330,168.6 330,169.05 330,169.5C330,169.95 330,170.4 330,170.85C330,171.3 330,171.75 330,172.2C330,172.65 330,173.1 330,173.55C330,174 330,174.45 330,174.9C330,175.35 330,175.8 330,176.25C330,176.7 330,177.15 330,177.6C330,178.05 330,178.5 330,178.95C330,179.4 330,179.85 330,180.3C330,180.75 330,181.2 330,181.65C330,182.1 330,182.55 330,183C330,183.45 330,183.9 330,184.35C330,184.8 330,185.25 330,185.7C330,186.15 330,186.6 330,187.05C330,187.5 330,187.95 330,188.4C330,188.85 330,189.3 330,189.75C330,190.2 330,190.65 330,191.1C330,191.55 329.99,192 329.99,192.45C329.99,192.9 329.99,193.35 329.99,193.8C329.99,194.25 329.98,194.7 329.97,195.15C329.96,195.6 329.96,196.05 329.95,196.5C329.94,196.95 329.93,197.4 329.92,197.85C329.91,198.3 329.9,198.75 329.89,199.2C329.88,199.65 329.86,200.1 329.85,200.55C329.84,201 329.82,201.45 329.81,201.9C329.8,202.35 329.79,202.8 329.78,203.25C329.77,203.7 329.77,204.15 329.76,204.6C329.75,205.05 329.74,205.5 329.73,205.95C329.72,206.4 329.71,206.85 329.7,207.3C329.69,207.75 329.68,208.2 329.67,208.65C329.66,209.1 329.65,209.55 329.64,210C329.63,210.45 329.62,210.9 329.62,211.35C329.62,211.8 329.63,212.25 329.64,212.7C329.65,213.15 329.67,213.6 329.69,214.05C329.71,214.5 329.74,214.95 329.76,215.4C329.78,215.85 329.81,216.3 329.83,216.75C329.85,217.2 329.87,217.65 329.89,218.1C329.91,218.55 329.93,219 329.94,219.45C329.95,219.9 329.96,220.35 329.97,220.8C329.98,221.25 329.99,221.7 329.99,222.15C329.99,222.6 329.99,223.05 329.99,223.5C329.99,223.95 330,224.4 330,224.85C330,225.3 330,225.75 330,226.2C330,226.65 330,227.1 330,227.55C330,228 330,228.45 330,228.9C330,229.35 330,229.8 330,230.25C330,230.7 329.99,231.15 329.99,231.6C329.99,232.05 329.99,232.5 329.98,232.95C329.97,233.4 329.96,233.85 329.95,234.3C329.93,234.75 329.91,235.2 329.89,235.65C329.87,236.1 329.84,236.55 329.81,237C329.78,237.45 329.73,237.9 329.69,238.35C329.65,238.8 329.6,239.25 329.56,239.7C329.51,240.15 329.46,240.6 329.42,241.05C329.38,241.5 329.35,241.95 329.33,242.4C329.31,242.85 329.3,243.3 329.3,243.75C329.3,244.2 329.32,244.65 329.34,245.1C329.37,245.55 329.41,246 329.45,246.45C329.49,246.9 329.54,247.35 329.58,247.8C329.63,248.25 329.68,248.7 329.72,249.15C329.76,249.6 329.8,250.05 329.83,250.5C329.86,250.95 329.89,251.4 329.91,251.85C329.93,252.3 329.94,252.75 329.95,253.2C329.96,253.65 329.97,254.1 329.98,254.55C329.99,255 329.99,255.45 329.99,255.9C329.99,256.35 330,256.8 330,257.25C330,257.7 330,258.15 330,258.6C330,259.05 330,259.5 330,259.95C330,260.4 330,260.85 330,261.3C330,261.75 330,262.2 330,262.65C330,263.1 330,263.55 330,264C330,264.45 330,264.9 330,265.35C330,265.8 330,266.25 330,266.7C330,267.15 330,267.6 330,268.05C330,268.5 330,268.95 330,269.4C330,269.85 330,270.3 330,270.75C330,271.2 330,271.65 330,272.1C330,272.55 330,273 330,273.45C330,273.9 329.99,274.35 329.99,274.8C329.99,275.25 329.98,275.7 329.98,276.15C329.97,276.6 329.97,277.05 329.96,277.5C329.95,277.95 329.94,278.4 329.93,278.85C329.92,279.3 329.9,279.75 329.89,280.2C329.88,280.65 329.87,281.1 329.86,281.55C329.85,282 329.84,282.45 329.83,282.9C329.82,283.35 329.82,283.8 329.82,284.25C329.82,284.7 329.82,285.15 329.82,285.6C329.82,286.05 329.83,286.5 329.84,286.95C329.84,287.4 329.85,287.85 329.85,288.3C329.85,288.75 329.85,289.2 329.85,289.65C329.85,290.1 329.83,290.55 329.82,291C329.81,291.45 329.79,291.9 329.77,292.35C329.75,292.8 329.72,293.25 329.7,293.7C329.67,294.15 329.65,294.6 329.62,295.05C329.6,295.5 329.57,295.95 329.55,296.4C329.53,296.85 329.51,297.3 329.49,297.75C329.47,298.2 329.46,298.65 329.44,299.1C329.43,299.55 329.41,300 329.4,300.45C329.39,300.9 329.38,301.35 329.37,301.8C329.36,302.25 329.36,302.7 329.35,303.15C329.34,303.6 329.32,304.05 329.31,304.5C329.29,304.95 329.28,305.4 329.26,305.85C329.23,306.3 329.21,306.75 329.16,307.2C329.11,307.65 329.06,308.1 328.98,308.55C328.9,309 328.8,309.45 328.67,309.9C328.54,310.35 328.38,310.81 328.18,311.25C327.97,311.71 327.73,312.16 327.45,312.6C327.15,313.06 326.8,313.51 326.42,313.95C326.01,314.41 325.54,314.86 325.05,315.3C324.53,315.76 323.95,316.21 323.35,316.65C322.72,317.11 322.04,317.56 321.34,318C320.61,318.46 319.85,318.9 319.08,319.35C318.3,319.8 317.49,320.25 316.69,320.7C315.89,321.15 315.07,321.6 314.27,322.05C313.49,322.5 312.7,322.94 311.95,323.4C311.22,323.84 310.51,324.29 309.82,324.75C309.16,325.19 308.53,325.64 307.91,326.1C307.31,326.54 306.74,326.99 306.18,327.45C305.64,327.89 305.12,328.34 304.61,328.8C304.11,329.24 303.63,329.69 303.17,330.15C302.73,330.59 302.3,331.04 301.9,331.5C301.51,331.94 301.15,332.39 300.81,332.85C300.48,333.29 300.18,333.74 299.9,334.2C299.62,334.64 299.39,335.1 299.13,335.55C298.88,336 298.64,336.45 298.37,336.9C298.09,337.35 297.82,337.81 297.49,338.25C297.15,338.71 296.77,339.16 296.35,339.6C295.9,340.07 295.39,340.52 294.84,340.95C294.25,341.42 293.6,341.86 292.91,342.3C292.17,342.77 291.38,343.21 290.56,343.65C289.69,344.11 288.77,344.56 287.84,345C286.88,345.46 285.87,345.9 284.89,346.35C283.91,346.8 282.89,347.24 281.94,347.7C281.03,348.14 280.09,348.57 279.28,349.05C278.54,349.48 277.8,349.91 277.25,350.4C276.79,350.82 276.32,351.27 276.14,351.75C275.98,352.17 275.96,352.67 276.1,353.1C276.25,353.58 276.69,354.03 277.13,354.45C277.64,354.94 278.35,355.37 279.06,355.8C279.85,356.28 280.76,356.71 281.67,357.15C282.65,357.62 283.69,358.06 284.75,358.5C285.86,358.96 287,359.41 288.17,359.85C289.38,360.31 290.63,360.76 291.9,361.2C293.21,361.66 294.54,362.1 295.89,362.55C297.27,363.01 298.68,363.45 300.08,363.9C301.49,364.35 302.93,364.8 304.34,365.25C305.73,365.7 307.14,366.14 308.49,366.6C309.8,367.04 311.1,367.49 312.34,367.95C313.52,368.39 314.67,368.83 315.75,369.3C316.76,369.74 317.74,370.18 318.65,370.65C319.49,371.08 320.29,371.53 321.02,372C321.69,372.43 322.33,372.88 322.89,373.35C323.41,373.78 323.88,374.23 324.29,374.7C324.67,375.14 325.01,375.59 325.3,376.05C325.58,376.49 325.81,376.94 326.01,377.4C326.21,377.84 326.36,378.3 326.51,378.75C326.66,379.2 326.78,379.65 326.9,380.1C327.02,380.55 327.13,381 327.25,381.45C327.37,381.9 327.48,382.35 327.6,382.8C327.72,383.25 327.85,383.7 327.97,384.15C328.09,384.6 328.22,385.05 328.33,385.5C328.44,385.95 328.54,386.4 328.64,386.85C328.73,387.3 328.82,387.75 328.9,388.2C328.98,388.65 329.04,389.1 329.1,389.55C329.16,390 329.22,390.45 329.27,390.9C329.32,391.35 329.37,391.8 329.42,392.25C329.47,392.7 329.52,393.15 329.57,393.6C329.62,394.05 329.66,394.5 329.7,394.95C329.74,395.4 329.78,395.85 329.81,396.3C329.84,396.75 329.87,397.2 329.89,397.65Q329.91,398.1 329.94,399Z" style="vector-effect: non-scaling-stroke; stroke-width: 2px; stroke: rgb(0, 0, 0); stroke-opacity: 1; fill: rgb(99, 110, 250); fill-opacity: 0.2;"/><path class="box" d="M316.52,348.99H343.48M316.52,356.82H343.48V336.09H316.52ZM330,356.82V384.4M330,336.09V306.98" style="vector-effect: non-scaling-stroke; stroke-width: 2px; stroke: rgb(0, 0, 0); stroke-opacity: 1; fill: rgb(99, 110, 250); fill-opacity: 0.2;"/><g class="points"><path class="point" transform="translate(330,390.89)" d="M3,0A3,3 0 1,1 0,-3A3,3 0 0,1 3,0Z" style="opacity: 1; stroke-width: 0px; fill: rgb(0, 0, 0); fill-opacity: 1;"/><path class="point" transform="translate(330,390.32)" d="M3,0A3,3 0 1,1 0,-3A3,3 0 0,1 3,0Z" style="opacity: 1; stroke-width: 0px; fill: rgb(0, 0, 0); fill-opacity: 1;"/><path class="point" transform="translate(330,389.98)" d="M3,0A3,3 0 1,1 0,-3A3,3 0 0,1 3,0Z" style="opacity: 1; stroke-width: 0px; fill: rgb(0, 0, 0); fill-opacity: 1;"/><path class="point" transform="translate(330,303.21)" d="M3,0A3,3 0 1,1 0,-3A3,3 0 0,1 3,0Z" style="opacity: 1; stroke-width: 0px; fill: rgb(0, 0, 0); fill-opacity: 1;"/><path class="point" transform="translate(330,302.72)" d="M3,0A3,3 0 1,1 0,-3A3,3 0 0,1 3,0Z" style="opacity: 1; stroke-width: 0px; fill: rgb(0, 0, 0); fill-opacity: 1;"/><path class="point" transform="translate(330,297.52)" d="M3,0A3,3 0 1,1 0,-3A3,3 0 0,1 3,0Z" style="opacity: 1; stroke-width: 0px; fill: rgb(0, 0, 0); fill-opacity: 1;"/><path class="point" transform="translate(330,296.12)" d="M3,0A3,3 0 1,1 0,-3A3,3 0 0,1 3,0Z" style="opacity: 1; stroke-width: 0px; fill: rgb(0, 0, 0); fill-opacity: 1;"/><path class="point" transform="translate(330,284.33)" d="M3,0A3,3 0 1,1 0,-3A3,3 0 0,1 3,0Z" style="opacity: 1; stroke-width: 0px; fill: rgb(0, 0, 0); fill-opacity: 1;"/><path class="point" transform="translate(330,244.29)" d="M3,0A3,3 0 1,1 0,-3A3,3 0 0,1 3,0Z" style="opacity: 1; stroke-width: 0px; fill: rgb(0, 0, 0); fill-opacity: 1;"/><path class="point" transform="translate(330,244.12)" d="M3,0A3,3 0 1,1 0,-3A3,3 0 0,1 3,0Z" style="opacity: 1; stroke-width: 0px; fill: rgb(0, 0, 0); fill-opacity: 1;"/><path class="point" transform="translate(330,243.56)" d="M3,0A3,3 0 1,1 0,-3A3,3 0 0,1 3,0Z" style="opacity: 1; stroke-width: 0px; fill: rgb(0, 0, 0); fill-opacity: 1;"/><path class="point" transform="translate(330,242.53)" d="M3,0A3,3 0 1,1 0,-3A3,3 0 0,1 3,0Z" style="opacity: 1; stroke-width: 0px; fill: rgb(0, 0, 0); fill-opacity: 1;"/><path class="point" transform="translate(330,212.07)" d="M3,0A3,3 0 1,1 0,-3A3,3 0 0,1 3,0Z" style="opacity: 1; stroke-width: 0px; fill: rgb(0, 0, 0); fill-opacity: 1;"/><path class="point" transform="translate(330,211.5)" d="M3,0A3,3 0 1,1 0,-3A3,3 0 0,1 3,0Z" style="opacity: 1; stroke-width: 0px; fill: rgb(0, 0, 0); fill-opacity: 1;"/><path class="point" transform="translate(330,203.11)" d="M3,0A3,3 0 1,1 0,-3A3,3 0 0,1 3,0Z" style="opacity: 1; stroke-width: 0px; fill: rgb(0, 0, 0); fill-opacity: 1;"/><path class="point" transform="translate(330,149.26)" d="M3,0A3,3 0 1,1 0,-3A3,3 0 0,1 3,0Z" style="opacity: 1; stroke-width: 0px; fill: rgb(0, 0, 0); fill-opacity: 1;"/><path class="point" transform="translate(330,146.92)" d="M3,0A3,3 0 1,1 0,-3A3,3 0 0,1 3,0Z" style="opacity: 1; stroke-width: 0px; fill: rgb(0, 0, 0); fill-opacity: 1;"/><path class="point" transform="translate(330,144.91)" d="M3,0A3,3 0 1,1 0,-3A3,3 0 0,1 3,0Z" style="opacity: 1; stroke-width: 0px; fill: rgb(0, 0, 0); fill-opacity: 1;"/><path class="point" transform="translate(330,144.83)" d="M3,0A3,3 0 1,1 0,-3A3,3 0 0,1 3,0Z" style="opacity: 1; stroke-width: 0px; fill: rgb(0, 0, 0); fill-opacity: 1;"/><path class="point" transform="translate(330,129.64)" d="M3,0A3,3 0 1,1 0,-3A3,3 0 0,1 3,0Z" style="opacity: 1; stroke-width: 0px; fill: rgb(0, 0, 0); fill-opacity: 1;"/><path class="point" transform="translate(330,123.02)" d="M3,0A3,3 0 1,1 0,-3A3,3 0 0,1 3,0Z" style="opacity: 1; stroke-width: 0px; fill: rgb(0, 0, 0); fill-opacity: 1;"/><path class="point" transform="translate(330,101.53)" d="M3,0A3,3 0 1,1 0,-3A3,3 0 0,1 3,0Z" style="opacity: 1; stroke-width: 0px; fill: rgb(0, 0, 0); fill-opacity: 1;"/><path class="point" transform="translate(330,83.88)" d="M3,0A3,3 0 1,1 0,-3A3,3 0 0,1 3,0Z" style="opacity: 1; stroke-width: 0px; fill: rgb(0, 0, 0); fill-opacity: 1;"/><path class="point" transform="translate(330,76.65)" d="M3,0A3,3 0 1,1 0,-3A3,3 0 0,1 3,0Z" style="opacity: 1; stroke-width: 0px; fill: rgb(0, 0, 0); fill-opacity: 1;"/><path class="point" transform="translate(330,54.93)" d="M3,0A3,3 0 1,1 0,-3A3,3 0 0,1 3,0Z" style="opacity: 1; stroke-width: 0px; fill: rgb(0, 0, 0); fill-opacity: 1;"/><path class="point" transform="translate(330,29.11)" d="M3,0A3,3 0 1,1 0,-3A3,3 0 0,1 3,0Z" style="opacity: 1; stroke-width: 0px; fill: rgb(0, 0, 0); fill-opacity: 1;"/></g></g></g></g><g class="overplot"/><path class="xlines-above crisp" d="M0,0" style="fill: none;"/><path class="ylines-above crisp" d="M0,0" style="fill: none;"/><g class="overlines-above"/><g class="xaxislayer-above"><g class="xtick"><text text-anchor="middle" x="0" y="533" transform="translate(190,0)" style="font-family: 'Open Sans', verdana, arial, sans-serif; font-size: 12px; fill: rgb(42, 63, 95); fill-opacity: 1; white-space: pre; opacity: 1;">P1000-US</text></g><g class="xtick"><text text-anchor="middle" x="0" y="533" transform="translate(410,0)" style="font-family: 'Open Sans', verdana, arial, sans-serif; font-size: 12px; fill: rgb(42, 63, 95); fill-opacity: 1; white-space: pre; opacity: 1;">MUTO-INTL</text></g></g><g class="yaxislayer-above"><g class="ytick"><text text-anchor="end" x="79" y="4.199999999999999" transform="translate(0,504.47)" style="font-family: 'Open Sans', verdana, arial, sans-serif; font-size: 12px; fill: rgb(42, 63, 95); fill-opacity: 1; white-space: pre; opacity: 1;">0</text></g><g class="ytick"><text text-anchor="end" x="79" y="4.199999999999999" style="font-family: 'Open Sans', verdana, arial, sans-serif; font-size: 12px; fill: rgb(42, 63, 95); fill-opacity: 1; white-space: pre; opacity: 1;" transform="translate(0,438.68)">0.5B</text></g><g class="ytick"><text text-anchor="end" x="79" y="4.199999999999999" style="font-family: 'Open Sans', verdana, arial, sans-serif; font-size: 12px; fill: rgb(42, 63, 95); fill-opacity: 1; white-space: pre; opacity: 1;" transform="translate(0,372.89)">1B</text></g><g class="ytick"><text text-anchor="end" x="79" y="4.199999999999999" style="font-family: 'Open Sans', verdana, arial, sans-serif; font-size: 12px; fill: rgb(42, 63, 95); fill-opacity: 1; white-space: pre; opacity: 1;" transform="translate(0,307.1)">1.5B</text></g><g class="ytick"><text text-anchor="end" x="79" y="4.199999999999999" style="font-family: 'Open Sans', verdana, arial, sans-serif; font-size: 12px; fill: rgb(42, 63, 95); fill-opacity: 1; white-space: pre; opacity: 1;" transform="translate(0,241.3)">2B</text></g><g class="ytick"><text text-anchor="end" x="79" y="4.199999999999999" style="font-family: 'Open Sans', verdana, arial, sans-serif; font-size: 12px; fill: rgb(42, 63, 95); fill-opacity: 1; white-space: pre; opacity: 1;" transform="translate(0,175.51)">2.5B</text></g><g class="ytick"><text text-anchor="end" x="79" y="4.199999999999999" style="font-family: 'Open Sans', verdana, arial, sans-serif; font-size: 12px; fill: rgb(42, 63, 95); fill-opacity: 1; white-space: pre; opacity: 1;" transform="translate(0,109.72)">3B</text></g></g><g class="overaxes-above"/></g></g><g class="polarlayer"/><g class="smithlayer"/><g class="ternarylayer"/><g class="geolayer"/><g class="funnelarealayer"/><g class="pielayer"/><g class="iciclelayer"/><g class="treemaplayer"/><g class="sunburstlayer"/><g class="glimages"/><defs id="topdefs-ee3bd4"><g class="clips"/></defs><g class="layer-above"><g class="imagelayer"/><g class="shapelayer"/></g><g class="infolayer"><g class="g-gtitle"><text class="gtitle" x="30" y="50" text-anchor="start" dy="0em" style="font-family: 'Open Sans', verdana, arial, sans-serif; font-size: 20px; fill: rgb(42, 63, 95); opacity: 1; font-weight: normal; white-space: pre;">Comparing processing times alignedSeqQC for projects</text></g><g class="g-xtitle"/><g class="g-ytitle"><text class="ytitle" transform="rotate(-90,26.340625000000003,310)" x="26.340625000000003" y="310" text-anchor="middle" style="font-family: 'Open Sans', verdana, arial, sans-serif; font-size: 14px; fill: rgb(42, 63, 95); opacity: 1; font-weight: normal; white-space: pre;">ReadsAlignedPerHour</text></g></g></svg>