<svg class="main-svg" xmlns="http://www.w3.org/2000/svg" xmlns:xlink="http://www.w3.org/1999/xlink" width="600" height="600" style="" viewBox="0 0 600 600"><rect x="0" y="0" width="600" height="600" style="fill: rgb(255, 255, 255); fill-opacity: 1;"/><defs id="defs-4352c5"><g class="clips"><clipPath id="clip4352c5xyplot" class="plotclip"><rect width="440" height="420"/></clipPath><clipPath class="axesclip" id="clip4352c5x"><rect x="80" y="0" width="440" height="600"/></clipPath><clipPath class="axesclip" id="clip4352c5y"><rect x="0" y="100" width="600" height="420"/></clipPath><clipPath class="axesclip" id="clip4352c5xy"><rect x="80" y="100" width="440" height="420"/></clipPath></g><g class="gradients"/><g class="patterns"/></defs><g class="bglayer"><rect class="bg" x="80" y="100" width="440" height="420" style="fill: rgb(229, 236, 246); fill-opacity: 1; stroke-width: 0;"/></g><g class="layer-below"><g class="imagelayer"/><g class="shapelayer"/></g><g class="cartesianlayer"><g class="subplot xy"><g class="layer-subplot"><g class="shapelayer"/><g class="imagelayer"/></g><g class="minor-gridlayer"><g class="x"/><g class="y"/></g><g class="gridlayer"><g class="x"/><g class="y"><path class="ygrid crisp" transform="translate(0,419.14)" d="M80,0h440" style="stroke: rgb(255, 255, 255); stroke-opacity: 1; stroke-width: 1px;"/><path class="ygrid crisp" transform="translate(0,325.13)" d="M80,0h440" style="stroke: rgb(255, 255, 255); stroke-opacity: 1; stroke-width: 1px;"/><path class="ygrid crisp" transform="translate(0,231.12)" d="M80,0h440" style="stroke: rgb(255, 255, 255); stroke-opacity: 1; stroke-width: 1px;"/><path class="ygrid crisp" transform="translate(0,137.11)" d="M80,0h440" style="stroke: rgb(255, 255, 255); stroke-opacity: 1; stroke-width: 1px;"/></g></g><g class="zerolinelayer"><path class="yzl zl crisp" transform="translate(0,513.15)" d="M80,0h440" style="stroke: rgb(255, 255, 255); stroke-opacity: 1; stroke-width: 2px;"/></g><path class="xlines-below"/><path class="ylines-below"/><g class="overlines-below"/><g class="xaxislayer-below"/><g class="yaxislayer-below"/><g class="overaxes-below"/><g class="plot" transform="translate(80,100)" clip-path="url(#clip4352c5xyplot)"><g class="violinlayer mlayer"><g class="trace violins" style="opacity: 1;"><path class="violin" d="M110.35,397.6Q110.55,396.47 110.7,395.91C110.86,395.34 111.04,394.77 111.28,394.22C111.52,393.65 111.82,393.08 112.15,392.53C112.5,391.95 112.9,391.39 113.34,390.84C113.8,390.26 114.32,389.7 114.86,389.14C115.42,388.56 116.02,388.01 116.64,387.45C117.28,386.88 117.94,386.32 118.62,385.76C119.32,385.19 120.03,384.63 120.77,384.07C121.53,383.5 122.31,382.93 123.13,382.38C124,381.8 124.89,381.23 125.85,380.68C126.88,380.09 127.97,379.53 129.14,378.99C130.42,378.4 131.8,377.84 133.24,377.3C134.81,376.71 136.5,376.16 138.22,375.61C140.05,375.03 142,374.48 143.92,373.92C145.89,373.35 147.94,372.8 149.9,372.23C151.81,371.67 153.75,371.12 155.52,370.53C157.13,369.99 158.75,369.47 160.08,368.84C161.18,368.32 162.33,367.82 162.98,367.15C163.47,366.65 163.92,366.02 163.9,365.46C163.88,364.89 163.32,364.28 162.79,363.77C162.11,363.12 160.99,362.6 159.93,362.07C158.71,361.46 157.27,360.93 155.87,360.38C154.4,359.8 152.81,359.26 151.32,358.69C149.88,358.13 148.39,357.59 147.07,357C145.87,356.46 144.68,355.92 143.7,355.31C142.86,354.78 142.08,354.23 141.48,353.62C140.96,353.09 140.59,352.5 140.26,351.92C139.95,351.37 139.8,350.79 139.54,350.23C139.28,349.66 139.06,349.08 138.71,348.54C138.33,347.95 137.85,347.38 137.29,346.85C136.67,346.25 135.9,345.7 135.1,345.16C134.22,344.57 133.23,344.01 132.23,343.46C131.18,342.88 130.06,342.33 128.96,341.77C127.84,341.2 126.68,340.65 125.56,340.08C124.45,339.52 123.33,338.96 122.26,338.39C121.22,337.84 120.2,337.28 119.23,336.7C118.31,336.15 117.42,335.59 116.6,335.01C115.83,334.46 115.09,333.9 114.43,333.31C113.82,332.77 113.26,332.2 112.78,331.62C112.33,331.08 111.95,330.51 111.62,329.93C111.31,329.38 111.06,328.81 110.86,328.24Q110.66,327.68 110.42,326.55L109.58,326.55Q109.34,327.68 109.14,328.24C108.94,328.81 108.69,329.38 108.38,329.93C108.05,330.51 107.67,331.08 107.22,331.62C106.74,332.2 106.18,332.77 105.57,333.31C104.91,333.9 104.17,334.46 103.4,335.01C102.58,335.59 101.69,336.15 100.77,336.7C99.8,337.28 98.78,337.84 97.74,338.39C96.67,338.96 95.55,339.52 94.44,340.08C93.32,340.65 92.16,341.2 91.04,341.77C89.94,342.33 88.82,342.88 87.77,343.46C86.77,344.01 85.78,344.57 84.9,345.16C84.1,345.7 83.33,346.25 82.71,346.85C82.15,347.38 81.67,347.95 81.29,348.54C80.94,349.08 80.72,349.66 80.46,350.23C80.2,350.79 80.05,351.37 79.74,351.92C79.41,352.5 79.04,353.09 78.52,353.62C77.92,354.23 77.14,354.78 76.3,355.31C75.32,355.92 74.13,356.46 72.93,357C71.61,357.59 70.12,358.13 68.68,358.69C67.19,359.26 65.6,359.8 64.13,360.38C62.73,360.93 61.29,361.46 60.07,362.07C59.01,362.6 57.89,363.12 57.21,363.77C56.68,364.28 56.12,364.89 56.1,365.46C56.08,366.02 56.53,366.65 57.02,367.15C57.67,367.82 58.82,368.32 59.92,368.84C61.25,369.47 62.87,369.99 64.48,370.53C66.25,371.12 68.19,371.67 70.1,372.23C72.06,372.8 74.11,373.35 76.08,373.92C78,374.48 79.95,375.03 81.78,375.61C83.5,376.16 85.19,376.71 86.76,377.3C88.2,377.84 89.58,378.4 90.86,378.99C92.03,379.53 93.12,380.09 94.15,380.68C95.11,381.23 96,381.8 96.87,382.38C97.69,382.93 98.47,383.5 99.23,384.07C99.97,384.63 100.68,385.19 101.38,385.76C102.06,386.32 102.72,386.88 103.36,387.45C103.98,388.01 104.58,388.56 105.14,389.14C105.68,389.7 106.2,390.26 106.66,390.84C107.1,391.39 107.5,391.95 107.85,392.53C108.18,393.08 108.48,393.65 108.72,394.22C108.96,394.77 109.14,395.34 109.3,395.91Q109.45,396.47 109.65,397.6Z" style="vector-effect: non-scaling-stroke; stroke-width: 2px; stroke: rgb(0, 0, 0); stroke-opacity: 1; fill: rgb(99, 110, 250); fill-opacity: 0.2;"/><path class="box" d="M96.53,363.75H123.48M96.53,369.24H123.48V352.55H96.53ZM110,369.24V387.23M110,352.55V336.92" style="vector-effect: non-scaling-stroke; stroke-width: 2px; stroke: rgb(0, 0, 0); stroke-opacity: 1; fill: rgb(99, 110, 250); fill-opacity: 0.2;"/><g class="points"/></g><g class="trace violins" style="opacity: 1;"><path class="violin" d="M330.03,399Q330.05,398.19 330.06,397.79C330.08,397.39 330.09,396.98 330.12,396.58C330.15,396.18 330.18,395.78 330.22,395.38C330.26,394.98 330.3,394.57 330.36,394.17C330.42,393.77 330.48,393.36 330.56,392.96C330.64,392.56 330.72,392.15 330.82,391.75C330.92,391.35 331.03,390.95 331.15,390.55C331.27,390.15 331.4,389.74 331.55,389.34C331.7,388.93 331.86,388.53 332.05,388.13C332.24,387.72 332.45,387.32 332.69,386.92C332.93,386.51 333.2,386.11 333.49,385.72C333.8,385.31 334.13,384.9 334.49,384.51C334.87,384.1 335.28,383.69 335.73,383.3C336.2,382.88 336.71,382.48 337.26,382.09C337.85,381.67 338.48,381.27 339.15,380.88C339.88,380.46 340.66,380.07 341.49,379.68C342.39,379.26 343.34,378.86 344.34,378.47C345.43,378.05 346.58,377.65 347.78,377.26C349.06,376.84 350.42,376.44 351.8,376.05C353.26,375.64 354.78,375.24 356.31,374.85C357.9,374.44 359.54,374.04 361.17,373.64C362.82,373.23 364.5,372.84 366.15,372.43C367.78,372.03 369.42,371.63 370.99,371.22C372.5,370.83 374,370.44 375.4,370.02C376.68,369.63 377.95,369.24 379.07,368.81C380.05,368.43 381.01,368.05 381.77,367.6C382.4,367.23 383.02,366.84 383.38,366.39C383.67,366.02 383.88,365.59 383.9,365.19C383.91,364.79 383.71,364.36 383.48,363.98C383.21,363.54 382.76,363.15 382.3,362.77C381.78,362.34 381.16,361.94 380.51,361.56C379.79,361.13 378.99,360.74 378.15,360.35C377.24,359.93 376.25,359.54 375.24,359.15C374.15,358.73 372.99,358.33 371.82,357.94C370.59,357.53 369.31,357.13 368.04,356.73C366.75,356.32 365.42,355.92 364.12,355.52C362.84,355.12 361.56,354.73 360.32,354.32C359.12,353.93 357.95,353.52 356.81,353.11C355.73,352.72 354.67,352.31 353.65,351.9C352.68,351.51 351.74,351.1 350.82,350.69C349.93,350.3 349.07,349.9 348.21,349.49C347.37,349.09 346.55,348.69 345.73,348.28C344.92,347.88 344.13,347.48 343.34,347.07C342.56,346.67 341.79,346.27 341.04,345.86C340.31,345.46 339.58,345.06 338.88,344.65C338.21,344.26 337.56,343.86 336.94,343.45C336.35,343.06 335.79,342.66 335.27,342.24C334.78,341.85 334.31,341.45 333.89,341.03C333.49,340.64 333.13,340.23 332.8,339.82C332.49,339.43 332.21,339.03 331.96,338.62C331.72,338.23 331.53,337.82 331.35,337.41C331.18,337.01 331.03,336.61 330.91,336.2C330.79,335.8 330.69,335.39 330.61,334.99C330.53,334.59 330.47,334.19 330.42,333.79C330.37,333.39 330.33,332.98 330.3,332.58C330.27,332.18 330.26,331.77 330.24,331.37C330.22,330.97 330.21,330.56 330.2,330.16C330.19,329.76 330.19,329.36 330.18,328.96C330.17,328.56 330.17,328.15 330.16,327.75C330.16,327.35 330.15,326.94 330.15,326.54C330.15,326.14 330.16,325.73 330.16,325.33C330.16,324.93 330.16,324.52 330.17,324.12C330.18,323.72 330.2,323.32 330.21,322.92C330.23,322.52 330.24,322.11 330.26,321.71C330.27,321.31 330.29,320.9 330.3,320.5C330.31,320.1 330.31,319.69 330.32,319.29C330.32,318.89 330.33,318.49 330.33,318.09C330.33,317.69 330.33,317.28 330.32,316.88C330.31,316.48 330.3,316.07 330.29,315.67C330.28,315.27 330.27,314.86 330.26,314.46C330.25,314.06 330.24,313.66 330.23,313.26C330.22,312.86 330.22,312.45 330.21,312.05C330.2,311.65 330.19,311.24 330.19,310.84C330.19,310.44 330.19,310.03 330.19,309.63C330.19,309.23 330.18,308.82 330.18,308.42C330.18,308.02 330.19,307.62 330.19,307.22C330.19,306.82 330.19,306.41 330.19,306.01C330.19,305.61 330.19,305.2 330.19,304.8C330.19,304.4 330.19,303.99 330.19,303.59C330.19,303.19 330.19,302.79 330.19,302.39C330.19,301.99 330.2,301.58 330.2,301.18C330.2,300.78 330.2,300.37 330.2,299.97C330.2,299.57 330.2,299.16 330.2,298.76C330.2,298.36 330.2,297.96 330.2,297.56C330.2,297.16 330.2,296.75 330.2,296.35C330.2,295.95 330.21,295.54 330.21,295.14C330.21,294.74 330.22,294.33 330.22,293.93C330.22,293.53 330.23,293.13 330.23,292.73C330.23,292.33 330.24,291.92 330.24,291.52C330.24,291.12 330.24,290.71 330.24,290.31C330.24,289.91 330.23,289.5 330.22,289.1C330.21,288.7 330.21,288.29 330.2,287.89C330.19,287.49 330.17,287.09 330.16,286.69C330.15,286.29 330.13,285.88 330.12,285.48C330.11,285.08 330.09,284.67 330.08,284.27C330.07,283.87 330.06,283.46 330.05,283.06C330.04,282.66 330.03,282.26 330.03,281.86C330.02,281.46 330.02,281.05 330.02,280.65C330.02,280.25 330.02,279.84 330.02,279.44C330.02,279.04 330.03,278.63 330.04,278.23C330.05,277.83 330.05,277.43 330.06,277.03C330.07,276.63 330.09,276.22 330.1,275.82C330.11,275.42 330.13,275.01 330.14,274.61C330.16,274.21 330.17,273.8 330.19,273.4C330.21,273 330.23,272.59 330.25,272.19C330.27,271.79 330.28,271.39 330.29,270.99C330.3,270.59 330.31,270.18 330.32,269.78C330.33,269.38 330.33,268.97 330.33,268.57C330.33,268.17 330.33,267.76 330.33,267.36C330.33,266.96 330.32,266.56 330.31,266.16C330.3,265.76 330.29,265.35 330.28,264.95C330.27,264.55 330.27,264.14 330.26,263.74C330.25,263.34 330.25,262.93 330.24,262.53C330.24,262.13 330.23,261.73 330.23,261.33C330.23,260.93 330.24,260.52 330.24,260.12C330.25,259.72 330.25,259.31 330.26,258.91C330.27,258.51 330.28,258.1 330.29,257.7C330.3,257.3 330.3,256.9 330.31,256.5C330.32,256.1 330.34,255.69 330.34,255.29C330.34,254.89 330.34,254.48 330.34,254.08C330.34,253.68 330.34,253.27 330.34,252.87C330.34,252.47 330.32,252.06 330.31,251.66C330.3,251.26 330.29,250.86 330.28,250.46C330.27,250.06 330.26,249.65 330.25,249.25C330.24,248.85 330.23,248.44 330.22,248.04C330.21,247.64 330.21,247.23 330.2,246.83C330.19,246.43 330.19,246.03 330.18,245.63C330.17,245.23 330.17,244.82 330.16,244.42C330.15,244.02 330.14,243.61 330.13,243.21C330.12,242.81 330.11,242.4 330.1,242C330.09,241.6 330.08,241.2 330.07,240.8C330.06,240.4 330.06,239.99 330.05,239.59C330.04,239.19 330.04,238.78 330.03,238.38C330.03,237.98 330.02,237.57 330.02,237.17C330.02,236.77 330.02,236.36 330.02,235.96C330.02,235.56 330.03,235.16 330.03,234.76C330.04,234.36 330.04,233.95 330.05,233.55C330.06,233.15 330.07,232.74 330.08,232.34C330.09,231.94 330.1,231.53 330.11,231.13C330.12,230.73 330.12,230.33 330.13,229.93C330.14,229.53 330.15,229.12 330.15,228.72C330.15,228.32 330.15,227.91 330.15,227.51C330.15,227.11 330.14,226.7 330.14,226.3C330.14,225.9 330.13,225.5 330.13,225.1C330.13,224.7 330.13,224.29 330.13,223.89C330.13,223.49 330.13,223.08 330.13,222.68C330.13,222.28 330.14,221.87 330.14,221.47C330.14,221.07 330.15,220.67 330.15,220.27C330.15,219.87 330.15,219.46 330.15,219.06C330.15,218.66 330.14,218.25 330.13,217.85C330.12,217.45 330.12,217.04 330.11,216.64C330.1,216.24 330.09,215.83 330.08,215.43C330.07,215.03 330.06,214.63 330.05,214.23C330.04,213.83 330.04,213.42 330.03,213.02C330.03,212.62 330.02,212.21 330.02,211.81C330.02,211.41 330.01,211 330.01,210.6C330.01,210.2 330,209.8 330,209.4C330,209 330,208.59 330,208.19C330,207.79 330,207.38 330,206.98C330,206.58 330,206.17 330,205.77C330,205.37 330,204.97 330,204.57C330,204.17 330,203.76 330,203.36C330,202.96 330,202.55 330,202.15C330,201.75 330,201.34 330,200.94C330,200.54 330,200.13 330,199.73C330,199.33 330,198.93 330,198.53C330,198.13 330,197.72 330,197.32C330,196.92 330,196.51 330,196.11C330,195.71 330,195.3 330,194.9C330,194.5 330,194.1 330,193.7C330,193.3 330,192.89 330,192.49C330,192.09 330,191.68 330,191.28C330,190.88 330,190.47 330,190.07C330,189.67 330,189.27 330,188.87C330,188.47 330,188.06 330,187.66C330,187.26 330,186.85 330,186.45C330,186.05 330,185.64 330,185.24C330,184.84 330,184.44 330,184.04C330,183.64 330,183.23 330,182.83C330,182.43 330,182.02 330,181.62C330,181.22 330,180.81 330,180.41C330,180.01 330,179.6 330,179.2C330,178.8 330,178.4 330,178C330,177.6 330,177.19 330,176.79C330,176.39 330,175.98 330,175.58C330,175.18 330,174.77 330,174.37C330,173.97 330,173.57 330,173.17C330,172.77 330,172.36 330,171.96C330,171.56 330,171.15 330,170.75C330,170.35 330.01,169.94 330.01,169.54C330.01,169.14 330.02,168.74 330.02,168.34C330.02,167.94 330.02,167.53 330.03,167.13C330.04,166.73 330.05,166.32 330.06,165.92C330.07,165.52 330.07,165.11 330.08,164.71C330.09,164.31 330.1,163.9 330.11,163.5C330.12,163.1 330.13,162.7 330.13,162.3C330.14,161.9 330.14,161.49 330.14,161.09C330.14,160.69 330.14,160.28 330.14,159.88C330.14,159.48 330.13,159.07 330.12,158.67C330.11,158.27 330.1,157.87 330.09,157.47C330.08,157.07 330.07,156.66 330.06,156.26C330.05,155.86 330.05,155.45 330.04,155.05C330.03,154.65 330.03,154.24 330.02,153.84C330.02,153.44 330.01,153.04 330.01,152.64C330.01,152.24 330.01,151.83 330.01,151.43C330.01,151.03 330.01,150.62 330.01,150.22C330.01,149.82 330.01,149.41 330.01,149.01C330.01,148.61 330.02,148.21 330.02,147.81C330.03,147.41 330.03,147 330.04,146.6C330.05,146.2 330.05,145.79 330.06,145.39C330.07,144.99 330.08,144.58 330.09,144.18C330.1,143.78 330.11,143.37 330.12,142.97C330.13,142.57 330.14,142.17 330.14,141.77C330.14,141.37 330.14,140.96 330.14,140.56C330.14,140.16 330.13,139.75 330.13,139.35C330.12,138.95 330.12,138.54 330.11,138.14C330.1,137.74 330.09,137.34 330.08,136.94C330.07,136.54 330.07,136.13 330.06,135.73C330.05,135.33 330.04,134.92 330.03,134.52C330.02,134.12 330.02,133.71 330.02,133.31C330.02,132.91 330.01,132.51 330.01,132.11C330.01,131.71 330,131.3 330,130.9C330,130.5 330,130.09 330,129.69C330,129.29 330,128.88 330,128.48C330,128.08 330,127.67 330,127.27C330,126.87 330,126.47 330,126.07C330,125.67 330,125.26 330,124.86C330,124.46 330,124.05 330,123.65C330,123.25 330,122.84 330,122.44C330,122.04 330,121.64 330,121.24C330,120.84 330.01,120.43 330.01,120.03C330.01,119.63 330.02,119.22 330.02,118.82C330.02,118.42 330.02,118.01 330.03,117.61C330.04,117.21 330.05,116.81 330.06,116.41C330.07,116.01 330.07,115.6 330.08,115.2C330.09,114.8 330.1,114.39 330.11,113.99C330.12,113.59 330.12,113.18 330.13,112.78C330.13,112.38 330.14,111.98 330.14,111.58C330.14,111.18 330.14,110.77 330.14,110.37C330.14,109.97 330.13,109.56 330.12,109.16C330.11,108.76 330.1,108.35 330.09,107.95C330.08,107.55 330.07,107.14 330.06,106.74C330.05,106.34 330.05,105.94 330.04,105.54C330.03,105.14 330.03,104.73 330.02,104.33C330.02,103.93 330.01,103.52 330.01,103.12C330.01,102.72 330.01,102.31 330.01,101.91C330.01,101.51 330.02,101.11 330.02,100.71C330.02,100.31 330.02,99.9 330.03,99.5C330.04,99.1 330.05,98.69 330.06,98.29C330.07,97.89 330.08,97.48 330.1,97.08C330.12,96.68 330.14,96.28 330.16,95.88C330.18,95.48 330.19,95.07 330.21,94.67C330.23,94.27 330.25,93.86 330.26,93.46C330.27,93.06 330.28,92.65 330.28,92.25C330.28,91.85 330.29,91.44 330.28,91.04C330.27,90.64 330.25,90.24 330.24,89.84C330.22,89.44 330.21,89.03 330.19,88.63C330.17,88.23 330.15,87.82 330.13,87.42C330.11,87.02 330.09,86.61 330.08,86.21C330.07,85.81 330.06,85.41 330.05,85.01C330.04,84.61 330.03,84.2 330.02,83.8C330.01,83.4 330.01,82.99 330.01,82.59C330.01,82.19 330,81.78 330,81.38C330,80.98 330,80.58 330,80.18C330,79.78 330,79.37 330,78.97C330,78.57 330,78.16 330,77.76C330,77.36 330,76.95 330,76.55C330,76.15 330,75.75 330,75.35C330,74.95 330,74.54 330,74.14C330,73.74 330,73.33 330,72.93C330,72.53 330,72.12 330,71.72C330,71.32 330,70.91 330,70.51C330,70.11 330,69.71 330,69.31C330,68.91 330,68.5 330,68.1C330,67.7 330,67.29 330,66.89C330,66.49 330,66.08 330,65.68C330,65.28 330,64.88 330,64.48C330,64.08 330,63.67 330,63.27C330,62.87 330,62.46 330,62.06C330,61.66 330,61.25 330,60.85C330,60.45 330,60.05 330,59.65C330,59.25 330,58.84 330,58.44C330,58.04 330,57.63 330,57.23C330,56.83 330,56.42 330,56.02C330,55.62 330,55.21 330,54.81C330,54.41 330,54.01 330,53.61C330,53.21 330,52.8 330,52.4C330,52 330,51.59 330,51.19C330,50.79 330,50.38 330,49.98C330,49.58 330,49.18 330,48.78C330,48.38 330,47.97 330,47.57C330,47.17 330,46.76 330,46.36C330,45.96 330,45.55 330,45.15C330,44.75 330,44.35 330,43.95C330,43.55 330,43.14 330,42.74C330,42.34 330,41.93 330,41.53C330,41.13 330,40.72 330,40.32C330,39.92 330,39.52 330,39.12C330,38.72 330,38.31 330,37.91C330,37.51 330.01,37.1 330.01,36.7C330.01,36.3 330.02,35.89 330.02,35.49C330.03,35.09 330.03,34.68 330.04,34.28C330.05,33.88 330.05,33.48 330.06,33.08C330.07,32.68 330.08,32.27 330.09,31.87C330.1,31.47 330.1,31.06 330.11,30.66C330.12,30.26 330.12,29.85 330.13,29.45C330.13,29.05 330.14,28.65 330.14,28.25C330.14,27.85 330.13,27.44 330.13,27.04C330.12,26.64 330.12,26.23 330.11,25.83C330.1,25.43 330.1,25.02 330.09,24.62C330.08,24.22 330.07,23.82 330.06,23.42C330.05,23.02 330.05,22.61 330.04,22.21Q330.03,21.81 330.02,21L329.98,21Q329.97,21.81 329.96,22.21C329.95,22.61 329.95,23.02 329.94,23.42C329.93,23.82 329.92,24.22 329.91,24.62C329.9,25.02 329.9,25.43 329.89,25.83C329.88,26.23 329.88,26.64 329.87,27.04C329.87,27.44 329.86,27.85 329.86,28.25C329.86,28.65 329.87,29.05 329.87,29.45C329.88,29.85 329.88,30.26 329.89,30.66C329.9,31.06 329.9,31.47 329.91,31.87C329.92,32.27 329.93,32.68 329.94,33.08C329.95,33.48 329.95,33.88 329.96,34.28C329.97,34.68 329.97,35.09 329.98,35.49C329.98,35.89 329.99,36.3 329.99,36.7C329.99,37.1 330,37.51 330,37.91C330,38.31 330,38.72 330,39.12C330,39.52 330,39.92 330,40.32C330,40.72 330,41.13 330,41.53C330,41.93 330,42.34 330,42.74C330,43.14 330,43.55 330,43.95C330,44.35 330,44.75 330,45.15C330,45.55 330,45.96 330,46.36C330,46.76 330,47.17 330,47.57C330,47.97 330,48.38 330,48.78C330,49.18 330,49.58 330,49.98C330,50.38 330,50.79 330,51.19C330,51.59 330,52 330,52.4C330,52.8 330,53.21 330,53.61C330,54.01 330,54.41 330,54.81C330,55.21 330,55.62 330,56.02C330,56.42 330,56.83 330,57.23C330,57.63 330,58.04 330,58.44C330,58.84 330,59.25 330,59.65C330,60.05 330,60.45 330,60.85C330,61.25 330,61.66 330,62.06C330,62.46 330,62.87 330,63.27C330,63.67 330,64.08 330,64.48C330,64.88 330,65.28 330,65.68C330,66.08 330,66.49 330,66.89C330,67.29 330,67.7 330,68.1C330,68.5 330,68.91 330,69.31C330,69.71 330,70.11 330,70.51C330,70.91 330,71.32 330,71.72C330,72.12 330,72.53 330,72.93C330,73.33 330,73.74 330,74.14C330,74.54 330,74.95 330,75.35C330,75.75 330,76.15 330,76.55C330,76.95 330,77.36 330,77.76C330,78.16 330,78.57 330,78.97C330,79.37 330,79.78 330,80.18C330,80.58 330,80.98 330,81.38C330,81.78 329.99,82.19 329.99,82.59C329.99,82.99 329.99,83.4 329.98,83.8C329.97,84.2 329.96,84.61 329.95,85.01C329.94,85.41 329.93,85.81 329.92,86.21C329.91,86.61 329.89,87.02 329.87,87.42C329.85,87.82 329.83,88.23 329.81,88.63C329.79,89.03 329.78,89.44 329.76,89.84C329.75,90.24 329.73,90.64 329.72,91.04C329.71,91.44 329.72,91.85 329.72,92.25C329.72,92.65 329.73,93.06 329.74,93.46C329.75,93.86 329.77,94.27 329.79,94.67C329.81,95.07 329.82,95.48 329.84,95.88C329.86,96.28 329.88,96.68 329.9,97.08C329.92,97.48 329.93,97.89 329.94,98.29C329.95,98.69 329.96,99.1 329.97,99.5C329.98,99.9 329.98,100.31 329.98,100.71C329.98,101.11 329.99,101.51 329.99,101.91C329.99,102.31 329.99,102.72 329.99,103.12C329.99,103.52 329.98,103.93 329.98,104.33C329.97,104.73 329.97,105.14 329.96,105.54C329.95,105.94 329.95,106.34 329.94,106.74C329.93,107.14 329.92,107.55 329.91,107.95C329.9,108.35 329.89,108.76 329.88,109.16C329.87,109.56 329.86,109.97 329.86,110.37C329.86,110.77 329.86,111.18 329.86,111.58C329.86,111.98 329.87,112.38 329.87,112.78C329.88,113.18 329.88,113.59 329.89,113.99C329.9,114.39 329.91,114.8 329.92,115.2C329.93,115.6 329.93,116.01 329.94,116.41C329.95,116.81 329.96,117.21 329.97,117.61C329.98,118.01 329.98,118.42 329.98,118.82C329.98,119.22 329.99,119.63 329.99,120.03C329.99,120.43 330,120.84 330,121.24C330,121.64 330,122.04 330,122.44C330,122.84 330,123.25 330,123.65C330,124.05 330,124.46 330,124.86C330,125.26 330,125.67 330,126.07C330,126.47 330,126.87 330,127.27C330,127.67 330,128.08 330,128.48C330,128.88 330,129.29 330,129.69C330,130.09 330,130.5 330,130.9C330,131.3 329.99,131.71 329.99,132.11C329.99,132.51 329.98,132.91 329.98,133.31C329.98,133.71 329.98,134.12 329.97,134.52C329.96,134.92 329.95,135.33 329.94,135.73C329.93,136.13 329.93,136.54 329.92,136.94C329.91,137.34 329.9,137.74 329.89,138.14C329.88,138.54 329.88,138.95 329.87,139.35C329.87,139.75 329.86,140.16 329.86,140.56C329.86,140.96 329.86,141.37 329.86,141.77C329.86,142.17 329.87,142.57 329.88,142.97C329.89,143.37 329.9,143.78 329.91,144.18C329.92,144.58 329.93,144.99 329.94,145.39C329.95,145.79 329.95,146.2 329.96,146.6C329.97,147 329.97,147.41 329.98,147.81C329.98,148.21 329.99,148.61 329.99,149.01C329.99,149.41 329.99,149.82 329.99,150.22C329.99,150.62 329.99,151.03 329.99,151.43C329.99,151.83 329.99,152.24 329.99,152.64C329.99,153.04 329.98,153.44 329.98,153.84C329.97,154.24 329.97,154.65 329.96,155.05C329.95,155.45 329.95,155.86 329.94,156.26C329.93,156.66 329.92,157.07 329.91,157.47C329.9,157.87 329.89,158.27 329.88,158.67C329.87,159.07 329.86,159.48 329.86,159.88C329.86,160.28 329.86,160.69 329.86,161.09C329.86,161.49 329.86,161.9 329.87,162.3C329.87,162.7 329.88,163.1 329.89,163.5C329.9,163.9 329.91,164.31 329.92,164.71C329.93,165.11 329.93,165.52 329.94,165.92C329.95,166.32 329.96,166.73 329.97,167.13C329.98,167.53 329.98,167.94 329.98,168.34C329.98,168.74 329.99,169.14 329.99,169.54C329.99,169.94 330,170.35 330,170.75C330,171.15 330,171.56 330,171.96C330,172.36 330,172.77 330,173.17C330,173.57 330,173.97 330,174.37C330,174.77 330,175.18 330,175.58C330,175.98 330,176.39 330,176.79C330,177.19 330,177.6 330,178C330,178.4 330,178.8 330,179.2C330,179.6 330,180.01 330,180.41C330,180.81 330,181.22 330,181.62C330,182.02 330,182.43 330,182.83C330,183.23 330,183.64 330,184.04C330,184.44 330,184.84 330,185.24C330,185.64 330,186.05 330,186.45C330,186.85 330,187.26 330,187.66C330,188.06 330,188.47 330,188.87C330,189.27 330,189.67 330,190.07C330,190.47 330,190.88 330,191.28C330,191.68 330,192.09 330,192.49C330,192.89 330,193.3 330,193.7C330,194.1 330,194.5 330,194.9C330,195.3 330,195.71 330,196.11C330,196.51 330,196.92 330,197.32C330,197.72 330,198.13 330,198.53C330,198.93 330,199.33 330,199.73C330,200.13 330,200.54 330,200.94C330,201.34 330,201.75 330,202.15C330,202.55 330,202.96 330,203.36C330,203.76 330,204.17 330,204.57C330,204.97 330,205.37 330,205.77C330,206.17 330,206.58 330,206.98C330,207.38 330,207.79 330,208.19C330,208.59 330,209 330,209.4C330,209.8 329.99,210.2 329.99,210.6C329.99,211 329.98,211.41 329.98,211.81C329.98,212.21 329.97,212.62 329.97,213.02C329.96,213.42 329.96,213.83 329.95,214.23C329.94,214.63 329.93,215.03 329.92,215.43C329.91,215.83 329.9,216.24 329.89,216.64C329.88,217.04 329.88,217.45 329.87,217.85C329.86,218.25 329.85,218.66 329.85,219.06C329.85,219.46 329.85,219.87 329.85,220.27C329.85,220.67 329.86,221.07 329.86,221.47C329.86,221.87 329.87,222.28 329.87,222.68C329.87,223.08 329.87,223.49 329.87,223.89C329.87,224.29 329.87,224.7 329.87,225.1C329.87,225.5 329.86,225.9 329.86,226.3C329.86,226.7 329.85,227.11 329.85,227.51C329.85,227.91 329.85,228.32 329.85,228.72C329.85,229.12 329.86,229.53 329.87,229.93C329.88,230.33 329.88,230.73 329.89,231.13C329.9,231.53 329.91,231.94 329.92,232.34C329.93,232.74 329.94,233.15 329.95,233.55C329.96,233.95 329.96,234.36 329.97,234.76C329.97,235.16 329.98,235.56 329.98,235.96C329.98,236.36 329.98,236.77 329.98,237.17C329.98,237.57 329.97,237.98 329.97,238.38C329.96,238.78 329.96,239.19 329.95,239.59C329.94,239.99 329.94,240.4 329.93,240.8C329.92,241.2 329.91,241.6 329.9,242C329.89,242.4 329.88,242.81 329.87,243.21C329.86,243.61 329.85,244.02 329.84,244.42C329.83,244.82 329.83,245.23 329.82,245.63C329.81,246.03 329.81,246.43 329.8,246.83C329.79,247.23 329.79,247.64 329.78,248.04C329.77,248.44 329.76,248.85 329.75,249.25C329.74,249.65 329.73,250.06 329.72,250.46C329.71,250.86 329.7,251.26 329.69,251.66C329.68,252.06 329.66,252.47 329.66,252.87C329.66,253.27 329.66,253.68 329.66,254.08C329.66,254.48 329.66,254.89 329.66,255.29C329.66,255.69 329.68,256.1 329.69,256.5C329.7,256.9 329.7,257.3 329.71,257.7C329.72,258.1 329.73,258.51 329.74,258.91C329.75,259.31 329.75,259.72 329.76,260.12C329.76,260.52 329.77,260.93 329.77,261.33C329.77,261.73 329.76,262.13 329.76,262.53C329.75,262.93 329.75,263.34 329.74,263.74C329.73,264.14 329.73,264.55 329.72,264.95C329.71,265.35 329.7,265.76 329.69,266.16C329.68,266.56 329.67,266.96 329.67,267.36C329.67,267.76 329.67,268.17 329.67,268.57C329.67,268.97 329.67,269.38 329.68,269.78C329.69,270.18 329.7,270.59 329.71,270.99C329.72,271.39 329.73,271.79 329.75,272.19C329.77,272.59 329.79,273 329.81,273.4C329.83,273.8 329.84,274.21 329.86,274.61C329.87,275.01 329.89,275.42 329.9,275.82C329.91,276.22 329.93,276.63 329.94,277.03C329.95,277.43 329.95,277.83 329.96,278.23C329.97,278.63 329.98,279.04 329.98,279.44C329.98,279.84 329.98,280.25 329.98,280.65C329.98,281.05 329.98,281.46 329.97,281.86C329.97,282.26 329.96,282.66 329.95,283.06C329.94,283.46 329.93,283.87 329.92,284.27C329.91,284.67 329.89,285.08 329.88,285.48C329.87,285.88 329.85,286.29 329.84,286.69C329.83,287.09 329.81,287.49 329.8,287.89C329.79,288.29 329.79,288.7 329.78,289.1C329.77,289.5 329.76,289.91 329.76,290.31C329.76,290.71 329.76,291.12 329.76,291.52C329.76,291.92 329.77,292.33 329.77,292.73C329.77,293.13 329.78,293.53 329.78,293.93C329.78,294.33 329.79,294.74 329.79,295.14C329.79,295.54 329.8,295.95 329.8,296.35C329.8,296.75 329.8,297.16 329.8,297.56C329.8,297.96 329.8,298.36 329.8,298.76C329.8,299.16 329.8,299.57 329.8,299.97C329.8,300.37 329.8,300.78 329.8,301.18C329.8,301.58 329.81,301.99 329.81,302.39C329.81,302.79 329.81,303.19 329.81,303.59C329.81,303.99 329.81,304.4 329.81,304.8C329.81,305.2 329.81,305.61 329.81,306.01C329.81,306.41 329.81,306.82 329.81,307.22C329.81,307.62 329.82,308.02 329.82,308.42C329.82,308.82 329.81,309.23 329.81,309.63C329.81,310.03 329.81,310.44 329.81,310.84C329.81,311.24 329.8,311.65 329.79,312.05C329.78,312.45 329.78,312.86 329.77,313.26C329.76,313.66 329.75,314.06 329.74,314.46C329.73,314.86 329.72,315.27 329.71,315.67C329.7,316.07 329.69,316.48 329.68,316.88C329.67,317.28 329.67,317.69 329.67,318.09C329.67,318.49 329.68,318.89 329.68,319.29C329.69,319.69 329.69,320.1 329.7,320.5C329.71,320.9 329.73,321.31 329.74,321.71C329.76,322.11 329.77,322.52 329.79,322.92C329.8,323.32 329.82,323.72 329.83,324.12C329.84,324.52 329.84,324.93 329.84,325.33C329.84,325.73 329.85,326.14 329.85,326.54C329.85,326.94 329.84,327.35 329.84,327.75C329.83,328.15 329.83,328.56 329.82,328.96C329.81,329.36 329.81,329.76 329.8,330.16C329.79,330.56 329.78,330.97 329.76,331.37C329.74,331.77 329.73,332.18 329.7,332.58C329.67,332.98 329.63,333.39 329.58,333.79C329.53,334.19 329.47,334.59 329.39,334.99C329.31,335.39 329.21,335.8 329.09,336.2C328.97,336.61 328.82,337.01 328.65,337.41C328.47,337.82 328.28,338.23 328.04,338.62C327.79,339.03 327.51,339.43 327.2,339.82C326.87,340.23 326.51,340.64 326.11,341.03C325.69,341.45 325.22,341.85 324.73,342.24C324.21,342.66 323.65,343.06 323.06,343.45C322.44,343.86 321.79,344.26 321.12,344.65C320.42,345.06 319.69,345.46 318.96,345.86C318.21,346.27 317.44,346.67 316.66,347.07C315.87,347.48 315.08,347.88 314.27,348.28C313.45,348.69 312.63,349.09 311.79,349.49C310.93,349.9 310.07,350.3 309.18,350.69C308.26,351.1 307.32,351.51 306.35,351.9C305.33,352.31 304.27,352.72 303.19,353.11C302.05,353.52 300.88,353.93 299.68,354.32C298.44,354.73 297.16,355.12 295.88,355.52C294.58,355.92 293.25,356.32 291.96,356.73C290.69,357.13 289.41,357.53 288.18,357.94C287.01,358.33 285.85,358.73 284.76,359.15C283.75,359.54 282.76,359.93 281.85,360.35C281.01,360.74 280.21,361.13 279.49,361.56C278.84,361.94 278.22,362.34 277.7,362.77C277.24,363.15 276.79,363.54 276.52,363.98C276.29,364.36 276.09,364.79 276.1,365.19C276.12,365.59 276.33,366.02 276.62,366.39C276.98,366.84 277.6,367.23 278.23,367.6C278.99,368.05 279.95,368.43 280.93,368.81C282.05,369.24 283.32,369.63 284.6,370.02C286,370.44 287.5,370.83 289.01,371.22C290.58,371.63 292.22,372.03 293.85,372.43C295.5,372.84 297.18,373.23 298.83,373.64C300.46,374.04 302.1,374.44 303.69,374.85C305.22,375.24 306.74,375.64 308.2,376.05C309.58,376.44 310.94,376.84 312.22,377.26C313.42,377.65 314.57,378.05 315.66,378.47C316.66,378.86 317.61,379.26 318.51,379.68C319.34,380.07 320.12,380.46 320.85,380.88C321.52,381.27 322.15,381.67 322.74,382.09C323.29,382.48 323.8,382.88 324.27,383.3C324.72,383.69 325.13,384.1 325.51,384.51C325.87,384.9 326.2,385.31 326.51,385.72C326.8,386.11 327.07,386.51 327.31,386.92C327.55,387.32 327.76,387.72 327.95,388.13C328.14,388.53 328.3,388.93 328.45,389.34C328.6,389.74 328.73,390.15 328.85,390.55C328.97,390.95 329.08,391.35 329.18,391.75C329.28,392.15 329.36,392.56 329.44,392.96C329.52,393.36 329.58,393.77 329.64,394.17C329.7,394.57 329.74,394.98 329.78,395.38C329.82,395.78 329.85,396.18 329.88,396.58C329.91,396.98 329.92,397.39 329.94,397.79Q329.95,398.19 329.97,399Z" style="vector-effect: non-scaling-stroke; stroke-width: 2px; stroke: rgb(0, 0, 0); stroke-opacity: 1; fill: rgb(99, 110, 250); fill-opacity: 0.2;"/><path class="box" d="M316.52,363.84H343.48M316.52,369.19H343.48V357.58H316.52ZM330,369.19V386.35M330,357.58V341.59" style="vector-effect: non-scaling-stroke; stroke-width: 2px; stroke: rgb(0, 0, 0); stroke-opacity: 1; fill: rgb(99, 110, 250); fill-opacity: 0.2;"/><g class="points"><path class="point" transform="translate(330,391.73)" d="M3,0A3,3 0 1,1 0,-3A3,3 0 0,1 3,0Z" style="opacity: 1; stroke-width: 0px; fill: rgb(0, 0, 0); fill-opacity: 1;"/><path class="point" transform="translate(330,389.01)" d="M3,0A3,3 0 1,1 0,-3A3,3 0 0,1 3,0Z" style="opacity: 1; stroke-width: 0px; fill: rgb(0, 0, 0); fill-opacity: 1;"/><path class="point" transform="translate(330,388.86)" d="M3,0A3,3 0 1,1 0,-3A3,3 0 0,1 3,0Z" style="opacity: 1; stroke-width: 0px; fill: rgb(0, 0, 0); fill-opacity: 1;"/><path class="point" transform="translate(330,388.77)" d="M3,0A3,3 0 1,1 0,-3A3,3 0 0,1 3,0Z" style="opacity: 1; stroke-width: 0px; fill: rgb(0, 0, 0); fill-opacity: 1;"/><path class="point" transform="translate(330,387.75)" d="M3,0A3,3 0 1,1 0,-3A3,3 0 0,1 3,0Z" style="opacity: 1; stroke-width: 0px; fill: rgb(0, 0, 0); fill-opacity: 1;"/><path class="point" transform="translate(330,387.5)" d="M3,0A3,3 0 1,1 0,-3A3,3 0 0,1 3,0Z" style="opacity: 1; stroke-width: 0px; fill: rgb(0, 0, 0); fill-opacity: 1;"/><path class="point" transform="translate(330,340.1)" d="M3,0A3,3 0 1,1 0,-3A3,3 0 0,1 3,0Z" style="opacity: 1; stroke-width: 0px; fill: rgb(0, 0, 0); fill-opacity: 1;"/><path class="point" transform="translate(330,339.81)" d="M3,0A3,3 0 1,1 0,-3A3,3 0 0,1 3,0Z" style="opacity: 1; stroke-width: 0px; fill: rgb(0, 0, 0); fill-opacity: 1;"/><path class="point" transform="translate(330,339.73)" d="M3,0A3,3 0 1,1 0,-3A3,3 0 0,1 3,0Z" style="opacity: 1; stroke-width: 0px; fill: rgb(0, 0, 0); fill-opacity: 1;"/><path class="point" transform="translate(330,338.97)" d="M3,0A3,3 0 1,1 0,-3A3,3 0 0,1 3,0Z" style="opacity: 1; stroke-width: 0px; fill: rgb(0, 0, 0); fill-opacity: 1;"/><path class="point" transform="translate(330,336.15)" d="M3,0A3,3 0 1,1 0,-3A3,3 0 0,1 3,0Z" style="opacity: 1; stroke-width: 0px; fill: rgb(0, 0, 0); fill-opacity: 1;"/><path class="point" transform="translate(330,329.2)" d="M3,0A3,3 0 1,1 0,-3A3,3 0 0,1 3,0Z" style="opacity: 1; stroke-width: 0px; fill: rgb(0, 0, 0); fill-opacity: 1;"/><path class="point" transform="translate(330,319.46)" d="M3,0A3,3 0 1,1 0,-3A3,3 0 0,1 3,0Z" style="opacity: 1; stroke-width: 0px; fill: rgb(0, 0, 0); fill-opacity: 1;"/><path class="point" transform="translate(330,319.17)" d="M3,0A3,3 0 1,1 0,-3A3,3 0 0,1 3,0Z" style="opacity: 1; stroke-width: 0px; fill: rgb(0, 0, 0); fill-opacity: 1;"/><path class="point" transform="translate(330,313.37)" d="M3,0A3,3 0 1,1 0,-3A3,3 0 0,1 3,0Z" style="opacity: 1; stroke-width: 0px; fill: rgb(0, 0, 0); fill-opacity: 1;"/><path class="point" transform="translate(330,306.19)" d="M3,0A3,3 0 1,1 0,-3A3,3 0 0,1 3,0Z" style="opacity: 1; stroke-width: 0px; fill: rgb(0, 0, 0); fill-opacity: 1;"/><path class="point" transform="translate(330,299.63)" d="M3,0A3,3 0 1,1 0,-3A3,3 0 0,1 3,0Z" style="opacity: 1; stroke-width: 0px; fill: rgb(0, 0, 0); fill-opacity: 1;"/><path class="point" transform="translate(330,292.96)" d="M3,0A3,3 0 1,1 0,-3A3,3 0 0,1 3,0Z" style="opacity: 1; stroke-width: 0px; fill: rgb(0, 0, 0); fill-opacity: 1;"/><path class="point" transform="translate(330,288.31)" d="M3,0A3,3 0 1,1 0,-3A3,3 0 0,1 3,0Z" style="opacity: 1; stroke-width: 0px; fill: rgb(0, 0, 0); fill-opacity: 1;"/><path class="point" transform="translate(330,271.72)" d="M3,0A3,3 0 1,1 0,-3A3,3 0 0,1 3,0Z" style="opacity: 1; stroke-width: 0px; fill: rgb(0, 0, 0); fill-opacity: 1;"/><path class="point" transform="translate(330,268.48)" d="M3,0A3,3 0 1,1 0,-3A3,3 0 0,1 3,0Z" style="opacity: 1; stroke-width: 0px; fill: rgb(0, 0, 0); fill-opacity: 1;"/><path class="point" transform="translate(330,265.03)" d="M3,0A3,3 0 1,1 0,-3A3,3 0 0,1 3,0Z" style="opacity: 1; stroke-width: 0px; fill: rgb(0, 0, 0); fill-opacity: 1;"/><path class="point" transform="translate(330,258.33)" d="M3,0A3,3 0 1,1 0,-3A3,3 0 0,1 3,0Z" style="opacity: 1; stroke-width: 0px; fill: rgb(0, 0, 0); fill-opacity: 1;"/><path class="point" transform="translate(330,253.91)" d="M3,0A3,3 0 1,1 0,-3A3,3 0 0,1 3,0Z" style="opacity: 1; stroke-width: 0px; fill: rgb(0, 0, 0); fill-opacity: 1;"/><path class="point" transform="translate(330,252.11)" d="M3,0A3,3 0 1,1 0,-3A3,3 0 0,1 3,0Z" style="opacity: 1; stroke-width: 0px; fill: rgb(0, 0, 0); fill-opacity: 1;"/><path class="point" transform="translate(330,245.13)" d="M3,0A3,3 0 1,1 0,-3A3,3 0 0,1 3,0Z" style="opacity: 1; stroke-width: 0px; fill: rgb(0, 0, 0); fill-opacity: 1;"/><path class="point" transform="translate(330,228.37)" d="M3,0A3,3 0 1,1 0,-3A3,3 0 0,1 3,0Z" style="opacity: 1; stroke-width: 0px; fill: rgb(0, 0, 0); fill-opacity: 1;"/><path class="point" transform="translate(330,219.25)" d="M3,0A3,3 0 1,1 0,-3A3,3 0 0,1 3,0Z" style="opacity: 1; stroke-width: 0px; fill: rgb(0, 0, 0); fill-opacity: 1;"/><path class="point" transform="translate(330,160.95)" d="M3,0A3,3 0 1,1 0,-3A3,3 0 0,1 3,0Z" style="opacity: 1; stroke-width: 0px; fill: rgb(0, 0, 0); fill-opacity: 1;"/><path class="point" transform="translate(330,140.66)" d="M3,0A3,3 0 1,1 0,-3A3,3 0 0,1 3,0Z" style="opacity: 1; stroke-width: 0px; fill: rgb(0, 0, 0); fill-opacity: 1;"/><path class="point" transform="translate(330,111.46)" d="M3,0A3,3 0 1,1 0,-3A3,3 0 0,1 3,0Z" style="opacity: 1; stroke-width: 0px; fill: rgb(0, 0, 0); fill-opacity: 1;"/><path class="point" transform="translate(330,91.95)" d="M3,0A3,3 0 1,1 0,-3A3,3 0 0,1 3,0Z" style="opacity: 1; stroke-width: 0px; fill: rgb(0, 0, 0); fill-opacity: 1;"/><path class="point" transform="translate(330,91.91)" d="M3,0A3,3 0 1,1 0,-3A3,3 0 0,1 3,0Z" style="opacity: 1; stroke-width: 0px; fill: rgb(0, 0, 0); fill-opacity: 1;"/><path class="point" transform="translate(330,28.27)" d="M3,0A3,3 0 1,1 0,-3A3,3 0 0,1 3,0Z" style="opacity: 1; stroke-width: 0px; fill: rgb(0, 0, 0); fill-opacity: 1;"/></g></g></g></g><g class="overplot"/><path class="xlines-above crisp" d="M0,0" style="fill: none;"/><path class="ylines-above crisp" d="M0,0" style="fill: none;"/><g class="overlines-above"/><g class="xaxislayer-above"><g class="xtick"><text text-anchor="middle" x="0" y="533" transform="translate(190,0)" style="font-family: 'Open Sans', verdana, arial, sans-serif; font-size: 12px; fill: rgb(42, 63, 95); fill-opacity: 1; white-space: pre; opacity: 1;">P1000-US</text></g><g class="xtick"><text text-anchor="middle" x="0" y="533" transform="translate(410,0)" style="font-family: 'Open Sans', verdana, arial, sans-serif; font-size: 12px; fill: rgb(42, 63, 95); fill-opacity: 1; white-space: pre; opacity: 1;">MUTO-INTL</text></g></g><g class="yaxislayer-above"><g class="ytick"><text text-anchor="end" x="79" y="4.199999999999999" transform="translate(0,513.15)" style="font-family: 'Open Sans', verdana, arial, sans-serif; font-size: 12px; fill: rgb(42, 63, 95); fill-opacity: 1; white-space: pre; opacity: 1;">0</text></g><g class="ytick"><text text-anchor="end" x="79" y="4.199999999999999" style="font-family: 'Open Sans', verdana, arial, sans-serif; font-size: 12px; fill: rgb(42, 63, 95); fill-opacity: 1; white-space: pre; opacity: 1;" transform="translate(0,419.14)">0.5B</text></g><g class="ytick"><text text-anchor="end" x="79" y="4.199999999999999" style="font-family: 'Open Sans', verdana, arial, sans-serif; font-size: 12px; fill: rgb(42, 63, 95); fill-opacity: 1; white-space: pre; opacity: 1;" transform="translate(0,325.13)">1B</text></g><g class="ytick"><text text-anchor="end" x="79" y="4.199999999999999" style="font-family: 'Open Sans', verdana, arial, sans-serif; font-size: 12px; fill: rgb(42, 63, 95); fill-opacity: 1; white-space: pre; opacity: 1;" transform="translate(0,231.12)">1.5B</text></g><g class="ytick"><text text-anchor="end" x="79" y="4.199999999999999" style="font-family: 'Open Sans', verdana, arial, sans-serif; font-size: 12px; fill: rgb(42, 63, 95); fill-opacity: 1; white-space: pre; opacity: 1;" transform="translate(0,137.11)">2B</text></g></g><g class="overaxes-above"/></g></g><g class="polarlayer"/><g class="smithlayer"/><g class="ternarylayer"/><g class="geolayer"/><g class="funnelarealayer"/><g class="pielayer"/><g class="iciclelayer"/><g class="treemaplayer"/><g class="sunburstlayer"/><g class="glimages"/><defs id="topdefs-4352c5"><g class="clips"/></defs><g class="layer-above"><g class="imagelayer"/><g class="shapelayer"/></g><g class="infolayer"><g class="g-gtitle"><text class="gtitle" x="30" y="50" text-anchor="start" dy="0em" style="font-family: 'Open Sans', verdana, arial, sans-serif; font-size: 20px; fill: rgb(42, 63, 95); opacity: 1; font-weight: normal; white-space: pre;">Comparing processing times merSorMkdup for projects</text></g><g class="g-xtitle"/><g class="g-ytitle"><text class="ytitle" transform="rotate(-90,26.340625000000003,310)" x="26.340625000000003" y="310" text-anchor="middle" style="font-family: 'Open Sans', verdana, arial, sans-serif; font-size: 14px; fill: rgb(42, 63, 95); opacity: 1; font-weight: normal; white-space: pre;">ReadsAlignedPerHour</text></g></g></svg>