<svg class="main-svg" xmlns="http://www.w3.org/2000/svg" xmlns:xlink="http://www.w3.org/1999/xlink" width="600" height="600" style="" viewBox="0 0 600 600"><rect x="0" y="0" width="600" height="600" style="fill: rgb(255, 255, 255); fill-opacity: 1;"/><defs id="defs-e472ab"><g class="clips"><clipPath id="clipe472abxyplot" class="plotclip"><rect width="440" height="420"/></clipPath><clipPath class="axesclip" id="clipe472abx"><rect x="80" y="0" width="440" height="600"/></clipPath><clipPath class="axesclip" id="clipe472aby"><rect x="0" y="100" width="600" height="420"/></clipPath><clipPath class="axesclip" id="clipe472abxy"><rect x="80" y="100" width="440" height="420"/></clipPath></g><g class="gradients"/><g class="patterns"/></defs><g class="bglayer"><rect class="bg" x="80" y="100" width="440" height="420" style="fill: rgb(229, 236, 246); fill-opacity: 1; stroke-width: 0;"/></g><g class="layer-below"><g class="imagelayer"/><g class="shapelayer"/></g><g class="cartesianlayer"><g class="subplot xy"><g class="layer-subplot"><g class="shapelayer"/><g class="imagelayer"/></g><g class="minor-gridlayer"><g class="x"/><g class="y"/></g><g class="gridlayer"><g class="x"/><g class="y"><path class="ygrid crisp" transform="translate(0,426.69)" d="M80,0h440" style="stroke: rgb(255, 255, 255); stroke-opacity: 1; stroke-width: 1px;"/><path class="ygrid crisp" transform="translate(0,361.05)" d="M80,0h440" style="stroke: rgb(255, 255, 255); stroke-opacity: 1; stroke-width: 1px;"/><path class="ygrid crisp" transform="translate(0,295.4)" d="M80,0h440" style="stroke: rgb(255, 255, 255); stroke-opacity: 1; stroke-width: 1px;"/><path class="ygrid crisp" transform="translate(0,229.76)" d="M80,0h440" style="stroke: rgb(255, 255, 255); stroke-opacity: 1; stroke-width: 1px;"/><path class="ygrid crisp" transform="translate(0,164.12)" d="M80,0h440" style="stroke: rgb(255, 255, 255); stroke-opacity: 1; stroke-width: 1px;"/></g></g><g class="zerolinelayer"><path class="yzl zl crisp" transform="translate(0,492.33)" d="M80,0h440" style="stroke: rgb(255, 255, 255); stroke-opacity: 1; stroke-width: 2px;"/></g><path class="xlines-below"/><path class="ylines-below"/><g class="overlines-below"/><g class="xaxislayer-below"/><g class="yaxislayer-below"/><g class="overaxes-below"/><g class="plot" transform="translate(80,100)" clip-path="url(#clipe472abxyplot)"><g class="violinlayer mlayer"><g class="trace violins" style="opacity: 1;"><path class="violin" d="M111.56,394.7Q112.6,394.34 113.24,394.18C114.07,393.98 115.07,393.82 116.15,393.66C117.49,393.46 119.03,393.3 120.66,393.14C122.58,392.95 124.74,392.79 126.96,392.63C129.43,392.45 132.13,392.28 134.81,392.11C137.63,391.93 140.63,391.76 143.5,391.59C146.33,391.42 149.25,391.26 151.91,391.08C154.31,390.92 156.77,390.76 158.77,390.56C160.34,390.4 162.08,390.33 162.96,390.04C163.4,389.9 163.92,389.67 163.9,389.52C163.87,389.3 162.55,389.16 161.66,389.01C160.38,388.79 158.61,388.65 156.94,388.49C155.05,388.3 152.92,388.14 150.9,387.97C148.88,387.8 146.75,387.64 144.82,387.46C143.07,387.3 141.3,387.14 139.82,386.94C138.64,386.78 137.42,386.66 136.64,386.42C136.16,386.27 135.53,386.09 135.51,385.9C135.49,385.74 135.89,385.54 136.19,385.39C136.64,385.17 137.4,385.04 138.05,384.87C138.76,384.69 139.58,384.53 140.28,384.35C140.92,384.19 141.62,384.05 142.1,383.84C142.45,383.69 142.91,383.52 142.95,383.32C142.99,383.16 142.8,382.95 142.61,382.8C142.3,382.56 141.65,382.44 141.07,382.28C140.33,382.08 139.42,381.93 138.5,381.77C137.44,381.58 136.26,381.42 135.07,381.25C133.78,381.07 132.4,380.9 131.02,380.73C129.59,380.55 128.09,380.38 126.63,380.21C125.18,380.04 123.71,379.88 122.31,379.7C120.98,379.53 119.66,379.36 118.44,379.18C117.35,379.01 116.28,378.85 115.33,378.66C114.52,378.5 113.74,378.34 113.08,378.15C112.54,377.99 112.03,377.83 111.62,377.63Q111.29,377.47 110.78,377.11L109.22,377.11Q108.71,377.47 108.38,377.63C107.97,377.83 107.46,377.99 106.92,378.15C106.26,378.34 105.48,378.5 104.67,378.66C103.72,378.85 102.65,379.01 101.56,379.18C100.34,379.36 99.02,379.53 97.69,379.7C96.29,379.88 94.82,380.04 93.37,380.21C91.91,380.38 90.41,380.55 88.98,380.73C87.6,380.9 86.22,381.07 84.93,381.25C83.74,381.42 82.56,381.58 81.5,381.77C80.58,381.93 79.67,382.08 78.93,382.28C78.35,382.44 77.7,382.56 77.39,382.8C77.2,382.95 77.01,383.16 77.05,383.32C77.09,383.52 77.55,383.69 77.9,383.84C78.38,384.05 79.08,384.19 79.72,384.35C80.42,384.53 81.24,384.69 81.95,384.87C82.6,385.04 83.36,385.17 83.81,385.39C84.11,385.54 84.51,385.74 84.49,385.9C84.47,386.09 83.84,386.27 83.36,386.42C82.58,386.66 81.36,386.78 80.18,386.94C78.7,387.14 76.93,387.3 75.18,387.46C73.25,387.64 71.12,387.8 69.1,387.97C67.08,388.14 64.95,388.3 63.06,388.49C61.39,388.65 59.62,388.79 58.34,389.01C57.45,389.16 56.13,389.3 56.1,389.52C56.08,389.67 56.6,389.9 57.04,390.04C57.92,390.33 59.66,390.4 61.23,390.56C63.23,390.76 65.69,390.92 68.09,391.08C70.75,391.26 73.67,391.42 76.5,391.59C79.37,391.76 82.37,391.93 85.19,392.11C87.87,392.28 90.57,392.45 93.04,392.63C95.26,392.79 97.42,392.95 99.34,393.14C100.97,393.3 102.51,393.46 103.85,393.66C104.93,393.82 105.93,393.98 106.76,394.18Q107.4,394.34 108.44,394.7Z" style="vector-effect: non-scaling-stroke; stroke-width: 2px; stroke: rgb(0, 0, 0); stroke-opacity: 1; fill: rgb(99, 110, 250); fill-opacity: 0.2;"/><path class="box" d="M96.53,388.3H123.48M96.53,390.03H123.48V383.57H96.53ZM110,390.03V391.55M110,383.57V380.26" style="vector-effect: non-scaling-stroke; stroke-width: 2px; stroke: rgb(0, 0, 0); stroke-opacity: 1; fill: rgb(99, 110, 250); fill-opacity: 0.2;"/><g class="points"/></g><g class="trace violins" style="opacity: 1;"><path class="violin" d="M330.11,399Q330.18,398.17 330.25,397.75C330.32,397.33 330.39,396.91 330.51,396.5C330.63,396.08 330.79,395.66 330.98,395.25C331.18,394.82 331.42,394.4 331.71,393.99C332.01,393.56 332.38,393.14 332.77,392.74C333.19,392.31 333.67,391.9 334.16,391.49C334.68,391.06 335.25,390.65 335.83,390.24C336.43,389.82 337.06,389.41 337.68,388.99C338.3,388.57 338.94,388.16 339.54,387.74C340.13,387.33 340.72,386.91 341.26,386.48C341.77,386.07 342.26,385.66 342.68,385.23C343.07,384.83 343.43,384.41 343.71,383.98C343.97,383.58 344.17,383.16 344.31,382.73C344.44,382.32 344.51,381.9 344.53,381.48C344.55,381.06 344.51,380.65 344.46,380.23C344.41,379.81 344.32,379.39 344.24,378.97C344.16,378.55 344.06,378.14 343.99,377.72C343.92,377.3 343.86,376.89 343.83,376.47C343.8,376.05 343.8,375.64 343.83,375.22C343.86,374.8 343.93,374.38 344.03,373.97C344.13,373.55 344.27,373.13 344.45,372.72C344.63,372.29 344.85,371.87 345.11,371.46C345.38,371.03 345.69,370.62 346.03,370.21C346.39,369.78 346.79,369.37 347.22,368.96C347.68,368.53 348.18,368.12 348.7,367.71C349.25,367.28 349.84,366.87 350.44,366.46C351.06,366.04 351.72,365.62 352.38,365.21C353.06,364.79 353.76,364.37 354.47,363.95C355.18,363.53 355.91,363.11 356.64,362.7C357.38,362.28 358.13,361.86 358.89,361.45C359.66,361.03 360.43,360.61 361.23,360.2C362.05,359.78 362.88,359.36 363.73,358.95C364.6,358.53 365.5,358.11 366.41,357.7C367.35,357.28 368.32,356.85 369.29,356.44C370.28,356.02 371.29,355.61 372.29,355.19C373.29,354.77 374.3,354.36 375.27,353.94C376.21,353.53 377.16,353.12 378.04,352.69C378.86,352.29 379.68,351.88 380.4,351.44C381.06,351.04 381.7,350.64 382.22,350.19C382.68,349.79 383.11,349.38 383.39,348.93C383.64,348.53 383.84,348.1 383.9,347.68C383.96,347.27 383.89,346.83 383.75,346.43C383.6,346 383.3,345.58 382.97,345.18C382.6,344.74 382.11,344.33 381.6,343.93C381.03,343.49 380.36,343.08 379.66,342.68C378.89,342.24 378.05,341.82 377.17,341.42C376.21,340.98 375.18,340.57 374.11,340.17C372.95,339.74 371.72,339.32 370.45,338.92C369.09,338.49 367.66,338.08 366.21,337.67C364.69,337.24 363.11,336.83 361.53,336.42C359.92,336 358.27,335.59 356.65,335.17C355.05,334.75 353.43,334.34 351.88,333.91C350.39,333.5 348.91,333.09 347.52,332.66C346.22,332.26 344.96,331.85 343.78,331.41C342.71,331.01 341.68,330.6 340.74,330.16C339.89,329.76 339.08,329.35 338.35,328.91C337.68,328.51 337.07,328.1 336.51,327.66C335.99,327.26 335.52,326.83 335.08,326.4C334.67,325.99 334.3,325.58 333.95,325.15C333.61,324.74 333.31,324.32 333.02,323.9C332.74,323.49 332.48,323.07 332.24,322.65C332.01,322.24 331.79,321.82 331.6,321.4C331.41,320.99 331.24,320.57 331.09,320.15C330.94,319.73 330.82,319.31 330.71,318.89C330.61,318.47 330.53,318.06 330.46,317.64C330.4,317.22 330.35,316.81 330.32,316.39C330.29,315.97 330.28,315.56 330.28,315.14C330.28,314.72 330.3,314.31 330.31,313.89C330.33,313.47 330.35,313.06 330.37,312.64C330.39,312.22 330.42,311.8 330.44,311.38C330.46,310.96 330.48,310.55 330.49,310.13C330.5,309.71 330.51,309.3 330.51,308.88C330.51,308.46 330.5,308.05 330.5,307.63C330.49,307.21 330.49,306.8 330.48,306.38C330.47,305.96 330.46,305.55 330.46,305.13C330.46,304.71 330.46,304.29 330.47,303.87C330.47,303.45 330.48,303.04 330.49,302.62C330.5,302.2 330.52,301.79 330.54,301.37C330.55,300.95 330.57,300.54 330.58,300.12C330.59,299.7 330.61,299.29 330.61,298.87C330.61,298.45 330.61,298.04 330.61,297.62C330.61,297.2 330.6,296.78 330.58,296.36C330.56,295.94 330.53,295.53 330.51,295.11C330.48,294.69 330.46,294.28 330.43,293.86C330.4,293.44 330.37,293.03 330.34,292.61C330.31,292.19 330.28,291.78 330.25,291.36C330.22,290.94 330.19,290.53 330.17,290.11C330.15,289.69 330.13,289.27 330.11,288.85C330.09,288.43 330.08,288.02 330.07,287.6C330.06,287.18 330.05,286.77 330.05,286.35C330.05,285.93 330.06,285.52 330.06,285.1C330.07,284.68 330.07,284.27 330.08,283.85C330.09,283.43 330.1,283.02 330.11,282.6C330.12,282.18 330.14,281.76 330.15,281.34C330.16,280.92 330.18,280.51 330.19,280.09C330.2,279.67 330.21,279.26 330.22,278.84C330.23,278.42 330.23,278.01 330.24,277.59C330.25,277.17 330.25,276.76 330.26,276.34C330.27,275.92 330.28,275.51 330.29,275.09C330.3,274.67 330.31,274.25 330.32,273.83C330.33,273.41 330.35,273 330.36,272.58C330.37,272.16 330.38,271.75 330.38,271.33C330.38,270.91 330.38,270.5 330.37,270.08C330.36,269.66 330.36,269.25 330.34,268.83C330.32,268.41 330.29,268 330.27,267.58C330.25,267.16 330.22,266.74 330.2,266.32C330.18,265.9 330.16,265.49 330.14,265.07C330.12,264.65 330.1,264.24 330.09,263.82C330.08,263.4 330.06,262.99 330.06,262.57C330.06,262.15 330.06,261.74 330.06,261.32C330.06,260.9 330.07,260.49 330.08,260.07C330.09,259.65 330.1,259.23 330.12,258.81C330.14,258.39 330.16,257.98 330.19,257.56C330.22,257.14 330.25,256.73 330.28,256.31C330.31,255.89 330.35,255.48 330.39,255.06C330.43,254.64 330.46,254.23 330.5,253.81C330.54,253.39 330.58,252.98 330.61,252.56C330.65,252.14 330.68,251.72 330.71,251.3C330.74,250.88 330.75,250.47 330.77,250.05C330.78,249.63 330.8,249.22 330.8,248.8C330.8,248.38 330.79,247.97 330.78,247.55C330.77,247.13 330.75,246.72 330.73,246.3C330.71,245.88 330.67,245.47 330.64,245.05C330.61,244.63 330.57,244.21 330.53,243.79C330.49,243.37 330.44,242.96 330.4,242.54C330.36,242.12 330.32,241.71 330.28,241.29C330.24,240.87 330.21,240.46 330.18,240.04C330.15,239.62 330.13,239.21 330.11,238.79C330.09,238.37 330.07,237.96 330.06,237.54C330.05,237.12 330.04,236.7 330.03,236.28C330.02,235.86 330.02,235.45 330.01,235.03C330.01,234.61 330,234.2 330,233.78C330,233.36 330,232.95 330,232.53C330,232.11 330,231.7 330,231.28C330,230.86 330,230.45 330,230.03C330,229.61 330,229.19 330,228.77C330,228.35 330,227.94 330,227.52C330,227.1 330,226.69 330,226.27C330,225.85 330,225.44 330,225.02C330,224.6 330,224.19 330,223.77C330,223.35 330,222.94 330,222.52C330,222.1 330.01,221.68 330.01,221.26C330.01,220.84 330.02,220.43 330.02,220.01C330.02,219.59 330.02,219.18 330.03,218.76C330.04,218.34 330.05,217.93 330.06,217.51C330.07,217.09 330.08,216.68 330.09,216.26C330.1,215.84 330.11,215.43 330.12,215.01C330.13,214.59 330.15,214.17 330.16,213.75C330.17,213.33 330.18,212.92 330.18,212.5C330.18,212.08 330.18,211.67 330.18,211.25C330.18,210.83 330.18,210.42 330.17,210C330.16,209.58 330.14,209.17 330.13,208.75C330.12,208.33 330.11,207.92 330.1,207.5C330.09,207.08 330.07,206.67 330.06,206.25C330.05,205.83 330.05,205.41 330.04,204.99C330.03,204.57 330.03,204.16 330.02,203.74C330.02,203.32 330.01,202.91 330.01,202.49C330.01,202.07 330,201.66 330,201.24C330,200.82 330,200.41 330,199.99C330,199.57 330,199.16 330,198.74C330,198.32 330,197.9 330,197.48C330,197.06 330,196.65 330,196.23C330,195.81 330,195.4 330,194.98C330,194.56 330,194.15 330,193.73C330,193.31 330,192.9 330,192.48C330,192.06 330,191.65 330,191.23C330,190.81 330,190.39 330,189.97C330,189.55 330,189.14 330,188.72C330,188.3 330,187.89 330,187.47C330,187.05 330,186.64 330,186.22C330,185.8 330,185.39 330,184.97C330,184.55 330,184.14 330,183.72C330,183.3 330,182.88 330,182.46C330,182.04 330,181.63 330,181.21C330,180.79 330,180.38 330,179.96C330,179.54 330,179.13 330,178.71C330,178.29 330,177.88 330,177.46C330,177.04 330,176.63 330,176.21C330,175.79 330,175.37 330,174.95C330,174.53 330,174.12 330,173.7C330,173.28 330,172.87 330,172.45C330,172.03 330,171.62 330,171.2C330,170.78 330,170.37 330,169.95C330,169.53 330,169.12 330,168.7C330,168.28 330,167.86 330,167.44C330,167.02 330,166.61 330,166.19C330,165.77 330,165.36 330,164.94C330,164.52 330,164.11 330,163.69C330,163.27 330,162.86 330,162.44C330,162.02 330,161.61 330,161.19C330,160.77 330,160.35 330,159.93C330,159.51 330,159.1 330,158.68C330,158.26 330,157.85 330,157.43C330,157.01 330,156.6 330,156.18C330,155.76 330,155.35 330,154.93C330,154.51 330.01,154.1 330.01,153.68C330.01,153.26 330.01,152.84 330.01,152.42C330.01,152 330.02,151.59 330.03,151.17C330.04,150.75 330.04,150.34 330.05,149.92C330.06,149.5 330.07,149.09 330.08,148.67C330.09,148.25 330.11,147.84 330.12,147.42C330.13,147 330.14,146.59 330.15,146.17C330.16,145.75 330.18,145.33 330.18,144.91C330.18,144.49 330.18,144.08 330.18,143.66C330.18,143.24 330.18,142.83 330.17,142.41C330.16,141.99 330.15,141.58 330.14,141.16C330.13,140.74 330.11,140.33 330.1,139.91C330.09,139.49 330.08,139.08 330.07,138.66C330.06,138.24 330.05,137.82 330.04,137.4C330.03,136.98 330.03,136.57 330.02,136.15C330.02,135.73 330.01,135.32 330.01,134.9C330.01,134.48 330,134.07 330,133.65C330,133.23 330,132.82 330,132.4C330,131.98 330,131.57 330,131.15C330,130.73 330,130.31 330,129.89C330,129.47 330,129.06 330,128.64C330,128.22 330,127.81 330,127.39C330,126.97 330,126.56 330,126.14C330,125.72 330,125.31 330,124.89C330,124.47 330,124.06 330,123.64C330,123.22 330,122.8 330,122.38C330,121.96 330,121.55 330,121.13C330,120.71 330,120.3 330,119.88C330,119.46 330,119.05 330,118.63C330,118.21 330,117.8 330,117.38C330,116.96 330,116.55 330,116.13C330,115.71 330,115.29 330,114.87C330,114.45 330,114.04 330,113.62C330,113.2 330,112.79 330,112.37C330,111.95 330,111.54 330,111.12C330,110.7 330,110.29 330,109.87C330,109.45 330,109.04 330,108.62C330,108.2 330,107.78 330,107.36C330,106.94 330,106.53 330,106.11C330,105.69 330,105.28 330,104.86C330,104.44 330,104.03 330,103.61C330,103.19 330,102.78 330,102.36C330,101.94 330,101.53 330,101.11C330,100.69 330,100.27 330,99.85C330,99.43 330,99.02 330,98.6C330,98.18 330,97.77 330,97.35C330,96.93 330,96.52 330,96.1C330,95.68 330,95.27 330,94.85C330,94.43 330,94.02 330,93.6C330,93.18 330,92.76 330,92.34C330,91.92 330,91.51 330,91.09C330,90.67 330,90.26 330,89.84C330,89.42 330,89.01 330,88.59C330,88.17 330,87.76 330,87.34C330,86.92 330,86.51 330,86.09C330,85.67 330,85.25 330,84.83C330,84.41 330,84 330,83.58C330,83.16 330,82.75 330,82.33C330,81.91 330,81.5 330,81.08C330,80.66 330,80.25 330,79.83C330,79.41 330,79 330,78.58C330,78.16 330,77.74 330,77.32C330,76.9 330,76.49 330,76.07C330,75.65 330,75.24 330,74.82C330,74.4 330.01,73.99 330.01,73.57C330.01,73.15 330.02,72.74 330.02,72.32C330.02,71.9 330.02,71.49 330.03,71.07C330.04,70.65 330.05,70.23 330.06,69.81C330.07,69.39 330.08,68.98 330.09,68.56C330.1,68.14 330.12,67.73 330.13,67.31C330.14,66.89 330.16,66.48 330.17,66.06C330.18,65.64 330.19,65.23 330.2,64.81C330.21,64.39 330.21,63.98 330.21,63.56C330.21,63.14 330.22,62.72 330.22,62.3C330.22,61.88 330.22,61.47 330.22,61.05C330.22,60.63 330.22,60.22 330.22,59.8C330.22,59.38 330.22,58.97 330.22,58.55C330.22,58.13 330.21,57.72 330.21,57.3C330.21,56.88 330.21,56.47 330.2,56.05C330.19,55.63 330.18,55.21 330.17,54.79C330.16,54.37 330.14,53.96 330.13,53.54C330.12,53.12 330.11,52.71 330.1,52.29C330.09,51.87 330.07,51.46 330.06,51.04C330.05,50.62 330.05,50.21 330.04,49.79C330.03,49.37 330.02,48.96 330.02,48.54C330.01,48.12 330.01,47.7 330.01,47.28C330.01,46.86 330,46.45 330,46.03C330,45.61 330,45.2 330,44.78C330,44.36 330,43.95 330,43.53C330,43.11 330,42.7 330,42.28C330,41.86 330,41.45 330,41.03C330,40.61 330.01,40.19 330.01,39.77C330.01,39.35 330.02,38.94 330.02,38.52C330.03,38.1 330.03,37.69 330.04,37.27C330.05,36.85 330.07,36.44 330.08,36.02C330.1,35.6 330.11,35.19 330.13,34.77C330.15,34.35 330.17,33.94 330.19,33.52C330.21,33.1 330.24,32.68 330.26,32.26C330.28,31.84 330.3,31.43 330.32,31.01C330.34,30.59 330.36,30.18 330.36,29.76C330.36,29.34 330.36,28.93 330.35,28.51C330.34,28.09 330.33,27.68 330.31,27.26C330.29,26.84 330.27,26.43 330.25,26.01C330.23,25.59 330.2,25.17 330.18,24.75C330.16,24.33 330.14,23.92 330.12,23.5C330.1,23.08 330.09,22.67 330.07,22.25Q330.06,21.83 330.03,21L329.97,21Q329.94,21.83 329.93,22.25C329.91,22.67 329.9,23.08 329.88,23.5C329.86,23.92 329.84,24.33 329.82,24.75C329.8,25.17 329.77,25.59 329.75,26.01C329.73,26.43 329.71,26.84 329.69,27.26C329.67,27.68 329.66,28.09 329.65,28.51C329.64,28.93 329.64,29.34 329.64,29.76C329.64,30.18 329.66,30.59 329.68,31.01C329.7,31.43 329.72,31.84 329.74,32.26C329.76,32.68 329.79,33.1 329.81,33.52C329.83,33.94 329.85,34.35 329.87,34.77C329.89,35.19 329.9,35.6 329.92,36.02C329.93,36.44 329.95,36.85 329.96,37.27C329.97,37.69 329.97,38.1 329.98,38.52C329.98,38.94 329.99,39.35 329.99,39.77C329.99,40.19 330,40.61 330,41.03C330,41.45 330,41.86 330,42.28C330,42.7 330,43.11 330,43.53C330,43.95 330,44.36 330,44.78C330,45.2 330,45.61 330,46.03C330,46.45 329.99,46.86 329.99,47.28C329.99,47.7 329.99,48.12 329.98,48.54C329.98,48.96 329.97,49.37 329.96,49.79C329.95,50.21 329.95,50.62 329.94,51.04C329.93,51.46 329.91,51.87 329.9,52.29C329.89,52.71 329.88,53.12 329.87,53.54C329.86,53.96 329.84,54.37 329.83,54.79C329.82,55.21 329.81,55.63 329.8,56.05C329.79,56.47 329.79,56.88 329.79,57.3C329.79,57.72 329.78,58.13 329.78,58.55C329.78,58.97 329.78,59.38 329.78,59.8C329.78,60.22 329.78,60.63 329.78,61.05C329.78,61.47 329.78,61.88 329.78,62.3C329.78,62.72 329.79,63.14 329.79,63.56C329.79,63.98 329.79,64.39 329.8,64.81C329.81,65.23 329.82,65.64 329.83,66.06C329.84,66.48 329.86,66.89 329.87,67.31C329.88,67.73 329.9,68.14 329.91,68.56C329.92,68.98 329.93,69.39 329.94,69.81C329.95,70.23 329.96,70.65 329.97,71.07C329.98,71.49 329.98,71.9 329.98,72.32C329.98,72.74 329.99,73.15 329.99,73.57C329.99,73.99 330,74.4 330,74.82C330,75.24 330,75.65 330,76.07C330,76.49 330,76.9 330,77.32C330,77.74 330,78.16 330,78.58C330,79 330,79.41 330,79.83C330,80.25 330,80.66 330,81.08C330,81.5 330,81.91 330,82.33C330,82.75 330,83.16 330,83.58C330,84 330,84.41 330,84.83C330,85.25 330,85.67 330,86.09C330,86.51 330,86.92 330,87.34C330,87.76 330,88.17 330,88.59C330,89.01 330,89.42 330,89.84C330,90.26 330,90.67 330,91.09C330,91.51 330,91.92 330,92.34C330,92.76 330,93.18 330,93.6C330,94.02 330,94.43 330,94.85C330,95.27 330,95.68 330,96.1C330,96.52 330,96.93 330,97.35C330,97.77 330,98.18 330,98.6C330,99.02 330,99.43 330,99.85C330,100.27 330,100.69 330,101.11C330,101.53 330,101.94 330,102.36C330,102.78 330,103.19 330,103.61C330,104.03 330,104.44 330,104.86C330,105.28 330,105.69 330,106.11C330,106.53 330,106.94 330,107.36C330,107.78 330,108.2 330,108.62C330,109.04 330,109.45 330,109.87C330,110.29 330,110.7 330,111.12C330,111.54 330,111.95 330,112.37C330,112.79 330,113.2 330,113.62C330,114.04 330,114.45 330,114.87C330,115.29 330,115.71 330,116.13C330,116.55 330,116.96 330,117.38C330,117.8 330,118.21 330,118.63C330,119.05 330,119.46 330,119.88C330,120.3 330,120.71 330,121.13C330,121.55 330,121.96 330,122.38C330,122.8 330,123.22 330,123.64C330,124.06 330,124.47 330,124.89C330,125.31 330,125.72 330,126.14C330,126.56 330,126.97 330,127.39C330,127.81 330,128.22 330,128.64C330,129.06 330,129.47 330,129.89C330,130.31 330,130.73 330,131.15C330,131.57 330,131.98 330,132.4C330,132.82 330,133.23 330,133.65C330,134.07 329.99,134.48 329.99,134.9C329.99,135.32 329.98,135.73 329.98,136.15C329.97,136.57 329.97,136.98 329.96,137.4C329.95,137.82 329.94,138.24 329.93,138.66C329.92,139.08 329.91,139.49 329.9,139.91C329.89,140.33 329.87,140.74 329.86,141.16C329.85,141.58 329.84,141.99 329.83,142.41C329.82,142.83 329.82,143.24 329.82,143.66C329.82,144.08 329.82,144.49 329.82,144.91C329.82,145.33 329.84,145.75 329.85,146.17C329.86,146.59 329.87,147 329.88,147.42C329.89,147.84 329.91,148.25 329.92,148.67C329.93,149.09 329.94,149.5 329.95,149.92C329.96,150.34 329.96,150.75 329.97,151.17C329.98,151.59 329.99,152 329.99,152.42C329.99,152.84 329.99,153.26 329.99,153.68C329.99,154.1 330,154.51 330,154.93C330,155.35 330,155.76 330,156.18C330,156.6 330,157.01 330,157.43C330,157.85 330,158.26 330,158.68C330,159.1 330,159.51 330,159.93C330,160.35 330,160.77 330,161.19C330,161.61 330,162.02 330,162.44C330,162.86 330,163.27 330,163.69C330,164.11 330,164.52 330,164.94C330,165.36 330,165.77 330,166.19C330,166.61 330,167.02 330,167.44C330,167.86 330,168.28 330,168.7C330,169.12 330,169.53 330,169.95C330,170.37 330,170.78 330,171.2C330,171.62 330,172.03 330,172.45C330,172.87 330,173.28 330,173.7C330,174.12 330,174.53 330,174.95C330,175.37 330,175.79 330,176.21C330,176.63 330,177.04 330,177.46C330,177.88 330,178.29 330,178.71C330,179.13 330,179.54 330,179.96C330,180.38 330,180.79 330,181.21C330,181.63 330,182.04 330,182.46C330,182.88 330,183.3 330,183.72C330,184.14 330,184.55 330,184.97C330,185.39 330,185.8 330,186.22C330,186.64 330,187.05 330,187.47C330,187.89 330,188.3 330,188.72C330,189.14 330,189.55 330,189.97C330,190.39 330,190.81 330,191.23C330,191.65 330,192.06 330,192.48C330,192.9 330,193.31 330,193.73C330,194.15 330,194.56 330,194.98C330,195.4 330,195.81 330,196.23C330,196.65 330,197.06 330,197.48C330,197.9 330,198.32 330,198.74C330,199.16 330,199.57 330,199.99C330,200.41 330,200.82 330,201.24C330,201.66 329.99,202.07 329.99,202.49C329.99,202.91 329.98,203.32 329.98,203.74C329.97,204.16 329.97,204.57 329.96,204.99C329.95,205.41 329.95,205.83 329.94,206.25C329.93,206.67 329.91,207.08 329.9,207.5C329.89,207.92 329.88,208.33 329.87,208.75C329.86,209.17 329.84,209.58 329.83,210C329.82,210.42 329.82,210.83 329.82,211.25C329.82,211.67 329.82,212.08 329.82,212.5C329.82,212.92 329.83,213.33 329.84,213.75C329.85,214.17 329.87,214.59 329.88,215.01C329.89,215.43 329.9,215.84 329.91,216.26C329.92,216.68 329.93,217.09 329.94,217.51C329.95,217.93 329.96,218.34 329.97,218.76C329.98,219.18 329.98,219.59 329.98,220.01C329.98,220.43 329.99,220.84 329.99,221.26C329.99,221.68 330,222.1 330,222.52C330,222.94 330,223.35 330,223.77C330,224.19 330,224.6 330,225.02C330,225.44 330,225.85 330,226.27C330,226.69 330,227.1 330,227.52C330,227.94 330,228.35 330,228.77C330,229.19 330,229.61 330,230.03C330,230.45 330,230.86 330,231.28C330,231.7 330,232.11 330,232.53C330,232.95 330,233.36 330,233.78C330,234.2 329.99,234.61 329.99,235.03C329.98,235.45 329.98,235.86 329.97,236.28C329.96,236.7 329.95,237.12 329.94,237.54C329.93,237.96 329.91,238.37 329.89,238.79C329.87,239.21 329.85,239.62 329.82,240.04C329.79,240.46 329.76,240.87 329.72,241.29C329.68,241.71 329.64,242.12 329.6,242.54C329.56,242.96 329.51,243.37 329.47,243.79C329.43,244.21 329.39,244.63 329.36,245.05C329.33,245.47 329.29,245.88 329.27,246.3C329.25,246.72 329.23,247.13 329.22,247.55C329.21,247.97 329.2,248.38 329.2,248.8C329.2,249.22 329.22,249.63 329.23,250.05C329.25,250.47 329.26,250.88 329.29,251.3C329.32,251.72 329.35,252.14 329.39,252.56C329.42,252.98 329.46,253.39 329.5,253.81C329.54,254.23 329.57,254.64 329.61,255.06C329.65,255.48 329.69,255.89 329.72,256.31C329.75,256.73 329.78,257.14 329.81,257.56C329.84,257.98 329.86,258.39 329.88,258.81C329.9,259.23 329.91,259.65 329.92,260.07C329.93,260.49 329.94,260.9 329.94,261.32C329.94,261.74 329.94,262.15 329.94,262.57C329.94,262.99 329.92,263.4 329.91,263.82C329.9,264.24 329.88,264.65 329.86,265.07C329.84,265.49 329.82,265.9 329.8,266.32C329.78,266.74 329.75,267.16 329.73,267.58C329.71,268 329.68,268.41 329.66,268.83C329.64,269.25 329.64,269.66 329.63,270.08C329.62,270.5 329.62,270.91 329.62,271.33C329.62,271.75 329.63,272.16 329.64,272.58C329.65,273 329.67,273.41 329.68,273.83C329.69,274.25 329.7,274.67 329.71,275.09C329.72,275.51 329.73,275.92 329.74,276.34C329.75,276.76 329.75,277.17 329.76,277.59C329.77,278.01 329.77,278.42 329.78,278.84C329.79,279.26 329.8,279.67 329.81,280.09C329.82,280.51 329.84,280.92 329.85,281.34C329.86,281.76 329.88,282.18 329.89,282.6C329.9,283.02 329.91,283.43 329.92,283.85C329.93,284.27 329.93,284.68 329.94,285.1C329.94,285.52 329.95,285.93 329.95,286.35C329.95,286.77 329.94,287.18 329.93,287.6C329.92,288.02 329.91,288.43 329.89,288.85C329.87,289.27 329.85,289.69 329.83,290.11C329.81,290.53 329.78,290.94 329.75,291.36C329.72,291.78 329.69,292.19 329.66,292.61C329.63,293.03 329.6,293.44 329.57,293.86C329.54,294.28 329.52,294.69 329.49,295.11C329.47,295.53 329.44,295.94 329.42,296.36C329.4,296.78 329.39,297.2 329.39,297.62C329.39,298.04 329.39,298.45 329.39,298.87C329.39,299.29 329.41,299.7 329.42,300.12C329.43,300.54 329.45,300.95 329.46,301.37C329.48,301.79 329.5,302.2 329.51,302.62C329.52,303.04 329.53,303.45 329.53,303.87C329.54,304.29 329.54,304.71 329.54,305.13C329.54,305.55 329.53,305.96 329.52,306.38C329.51,306.8 329.51,307.21 329.5,307.63C329.5,308.05 329.49,308.46 329.49,308.88C329.49,309.3 329.5,309.71 329.51,310.13C329.52,310.55 329.54,310.96 329.56,311.38C329.58,311.8 329.61,312.22 329.63,312.64C329.65,313.06 329.67,313.47 329.69,313.89C329.7,314.31 329.72,314.72 329.72,315.14C329.72,315.56 329.71,315.97 329.68,316.39C329.65,316.81 329.6,317.22 329.54,317.64C329.47,318.06 329.39,318.47 329.29,318.89C329.18,319.31 329.06,319.73 328.91,320.15C328.76,320.57 328.59,320.99 328.4,321.4C328.21,321.82 327.99,322.24 327.76,322.65C327.52,323.07 327.26,323.49 326.98,323.9C326.69,324.32 326.39,324.74 326.05,325.15C325.7,325.58 325.33,325.99 324.92,326.4C324.48,326.83 324.01,327.26 323.49,327.66C322.93,328.1 322.32,328.51 321.65,328.91C320.92,329.35 320.11,329.76 319.26,330.16C318.32,330.6 317.29,331.01 316.22,331.41C315.04,331.85 313.78,332.26 312.48,332.66C311.09,333.09 309.61,333.5 308.12,333.91C306.57,334.34 304.95,334.75 303.35,335.17C301.73,335.59 300.08,336 298.47,336.42C296.89,336.83 295.31,337.24 293.79,337.67C292.34,338.08 290.91,338.49 289.55,338.92C288.28,339.32 287.05,339.74 285.89,340.17C284.82,340.57 283.79,340.98 282.83,341.42C281.95,341.82 281.11,342.24 280.34,342.68C279.64,343.08 278.97,343.49 278.4,343.93C277.89,344.33 277.4,344.74 277.03,345.18C276.7,345.58 276.4,346 276.25,346.43C276.11,346.83 276.04,347.27 276.1,347.68C276.16,348.1 276.36,348.53 276.61,348.93C276.89,349.38 277.32,349.79 277.78,350.19C278.3,350.64 278.94,351.04 279.6,351.44C280.32,351.88 281.14,352.29 281.96,352.69C282.84,353.12 283.79,353.53 284.73,353.94C285.7,354.36 286.71,354.77 287.71,355.19C288.71,355.61 289.72,356.02 290.71,356.44C291.68,356.85 292.65,357.28 293.59,357.7C294.5,358.11 295.4,358.53 296.27,358.95C297.12,359.36 297.95,359.78 298.77,360.2C299.57,360.61 300.34,361.03 301.11,361.45C301.87,361.86 302.62,362.28 303.36,362.7C304.09,363.11 304.82,363.53 305.53,363.95C306.24,364.37 306.94,364.79 307.62,365.21C308.28,365.62 308.94,366.04 309.56,366.46C310.16,366.87 310.75,367.28 311.3,367.71C311.82,368.12 312.32,368.53 312.78,368.96C313.21,369.37 313.61,369.78 313.97,370.21C314.31,370.62 314.62,371.03 314.89,371.46C315.15,371.87 315.37,372.29 315.55,372.72C315.73,373.13 315.87,373.55 315.97,373.97C316.07,374.38 316.14,374.8 316.17,375.22C316.2,375.64 316.2,376.05 316.17,376.47C316.14,376.89 316.08,377.3 316.01,377.72C315.94,378.14 315.84,378.55 315.76,378.97C315.68,379.39 315.59,379.81 315.54,380.23C315.49,380.65 315.45,381.06 315.47,381.48C315.49,381.9 315.56,382.32 315.69,382.73C315.83,383.16 316.03,383.58 316.29,383.98C316.57,384.41 316.93,384.83 317.32,385.23C317.74,385.66 318.23,386.07 318.74,386.48C319.28,386.91 319.87,387.33 320.46,387.74C321.06,388.16 321.7,388.57 322.32,388.99C322.94,389.41 323.57,389.82 324.17,390.24C324.75,390.65 325.32,391.06 325.84,391.49C326.33,391.9 326.81,392.31 327.23,392.74C327.62,393.14 327.99,393.56 328.29,393.99C328.58,394.4 328.82,394.82 329.02,395.25C329.21,395.66 329.37,396.08 329.49,396.5C329.61,396.91 329.68,397.33 329.75,397.75Q329.82,398.17 329.89,399Z" style="vector-effect: non-scaling-stroke; stroke-width: 2px; stroke: rgb(0, 0, 0); stroke-opacity: 1; fill: rgb(99, 110, 250); fill-opacity: 0.2;"/><path class="box" d="M316.52,350.63H343.48M316.52,361.78H343.48V342.57H316.52ZM330,361.78V389.85M330,342.57V321.99" style="vector-effect: non-scaling-stroke; stroke-width: 2px; stroke: rgb(0, 0, 0); stroke-opacity: 1; fill: rgb(99, 110, 250); fill-opacity: 0.2;"/><g class="points"><path class="point" transform="translate(330,391.49)" d="M3,0A3,3 0 1,1 0,-3A3,3 0 0,1 3,0Z" style="opacity: 1; stroke-width: 0px; fill: rgb(0, 0, 0); fill-opacity: 1;"/><path class="point" transform="translate(330,310.31)" d="M3,0A3,3 0 1,1 0,-3A3,3 0 0,1 3,0Z" style="opacity: 1; stroke-width: 0px; fill: rgb(0, 0, 0); fill-opacity: 1;"/><path class="point" transform="translate(330,310.23)" d="M3,0A3,3 0 1,1 0,-3A3,3 0 0,1 3,0Z" style="opacity: 1; stroke-width: 0px; fill: rgb(0, 0, 0); fill-opacity: 1;"/><path class="point" transform="translate(330,306.42)" d="M3,0A3,3 0 1,1 0,-3A3,3 0 0,1 3,0Z" style="opacity: 1; stroke-width: 0px; fill: rgb(0, 0, 0); fill-opacity: 1;"/><path class="point" transform="translate(330,299.79)" d="M3,0A3,3 0 1,1 0,-3A3,3 0 0,1 3,0Z" style="opacity: 1; stroke-width: 0px; fill: rgb(0, 0, 0); fill-opacity: 1;"/><path class="point" transform="translate(330,299.76)" d="M3,0A3,3 0 1,1 0,-3A3,3 0 0,1 3,0Z" style="opacity: 1; stroke-width: 0px; fill: rgb(0, 0, 0); fill-opacity: 1;"/><path class="point" transform="translate(330,296.57)" d="M3,0A3,3 0 1,1 0,-3A3,3 0 0,1 3,0Z" style="opacity: 1; stroke-width: 0px; fill: rgb(0, 0, 0); fill-opacity: 1;"/><path class="point" transform="translate(330,293.87)" d="M3,0A3,3 0 1,1 0,-3A3,3 0 0,1 3,0Z" style="opacity: 1; stroke-width: 0px; fill: rgb(0, 0, 0); fill-opacity: 1;"/><path class="point" transform="translate(330,278.65)" d="M3,0A3,3 0 1,1 0,-3A3,3 0 0,1 3,0Z" style="opacity: 1; stroke-width: 0px; fill: rgb(0, 0, 0); fill-opacity: 1;"/><path class="point" transform="translate(330,271.16)" d="M3,0A3,3 0 1,1 0,-3A3,3 0 0,1 3,0Z" style="opacity: 1; stroke-width: 0px; fill: rgb(0, 0, 0); fill-opacity: 1;"/><path class="point" transform="translate(330,269.72)" d="M3,0A3,3 0 1,1 0,-3A3,3 0 0,1 3,0Z" style="opacity: 1; stroke-width: 0px; fill: rgb(0, 0, 0); fill-opacity: 1;"/><path class="point" transform="translate(330,254.1)" d="M3,0A3,3 0 1,1 0,-3A3,3 0 0,1 3,0Z" style="opacity: 1; stroke-width: 0px; fill: rgb(0, 0, 0); fill-opacity: 1;"/><path class="point" transform="translate(330,250.88)" d="M3,0A3,3 0 1,1 0,-3A3,3 0 0,1 3,0Z" style="opacity: 1; stroke-width: 0px; fill: rgb(0, 0, 0); fill-opacity: 1;"/><path class="point" transform="translate(330,249.84)" d="M3,0A3,3 0 1,1 0,-3A3,3 0 0,1 3,0Z" style="opacity: 1; stroke-width: 0px; fill: rgb(0, 0, 0); fill-opacity: 1;"/><path class="point" transform="translate(330,248.16)" d="M3,0A3,3 0 1,1 0,-3A3,3 0 0,1 3,0Z" style="opacity: 1; stroke-width: 0px; fill: rgb(0, 0, 0); fill-opacity: 1;"/><path class="point" transform="translate(330,245.33)" d="M3,0A3,3 0 1,1 0,-3A3,3 0 0,1 3,0Z" style="opacity: 1; stroke-width: 0px; fill: rgb(0, 0, 0); fill-opacity: 1;"/><path class="point" transform="translate(330,244.55)" d="M3,0A3,3 0 1,1 0,-3A3,3 0 0,1 3,0Z" style="opacity: 1; stroke-width: 0px; fill: rgb(0, 0, 0); fill-opacity: 1;"/><path class="point" transform="translate(330,211.71)" d="M3,0A3,3 0 1,1 0,-3A3,3 0 0,1 3,0Z" style="opacity: 1; stroke-width: 0px; fill: rgb(0, 0, 0); fill-opacity: 1;"/><path class="point" transform="translate(330,143.89)" d="M3,0A3,3 0 1,1 0,-3A3,3 0 0,1 3,0Z" style="opacity: 1; stroke-width: 0px; fill: rgb(0, 0, 0); fill-opacity: 1;"/><path class="point" transform="translate(330,64.21)" d="M3,0A3,3 0 1,1 0,-3A3,3 0 0,1 3,0Z" style="opacity: 1; stroke-width: 0px; fill: rgb(0, 0, 0); fill-opacity: 1;"/><path class="point" transform="translate(330,56.61)" d="M3,0A3,3 0 1,1 0,-3A3,3 0 0,1 3,0Z" style="opacity: 1; stroke-width: 0px; fill: rgb(0, 0, 0); fill-opacity: 1;"/><path class="point" transform="translate(330,30.03)" d="M3,0A3,3 0 1,1 0,-3A3,3 0 0,1 3,0Z" style="opacity: 1; stroke-width: 0px; fill: rgb(0, 0, 0); fill-opacity: 1;"/><path class="point" transform="translate(330,28.51)" d="M3,0A3,3 0 1,1 0,-3A3,3 0 0,1 3,0Z" style="opacity: 1; stroke-width: 0px; fill: rgb(0, 0, 0); fill-opacity: 1;"/></g></g></g></g><g class="overplot"/><path class="xlines-above crisp" d="M0,0" style="fill: none;"/><path class="ylines-above crisp" d="M0,0" style="fill: none;"/><g class="overlines-above"/><g class="xaxislayer-above"><g class="xtick"><text text-anchor="middle" x="0" y="533" transform="translate(190,0)" style="font-family: 'Open Sans', verdana, arial, sans-serif; font-size: 12px; fill: rgb(42, 63, 95); fill-opacity: 1; white-space: pre; opacity: 1;">P1000-US</text></g><g class="xtick"><text text-anchor="middle" x="0" y="533" transform="translate(410,0)" style="font-family: 'Open Sans', verdana, arial, sans-serif; font-size: 12px; fill: rgb(42, 63, 95); fill-opacity: 1; white-space: pre; opacity: 1;">MUTO-INTL</text></g></g><g class="yaxislayer-above"><g class="ytick"><text text-anchor="end" x="79" y="4.199999999999999" transform="translate(0,492.33)" style="font-family: 'Open Sans', verdana, arial, sans-serif; font-size: 12px; fill: rgb(42, 63, 95); fill-opacity: 1; white-space: pre; opacity: 1;">0</text></g><g class="ytick"><text text-anchor="end" x="79" y="4.199999999999999" style="font-family: 'Open Sans', verdana, arial, sans-serif; font-size: 12px; fill: rgb(42, 63, 95); fill-opacity: 1; white-space: pre; opacity: 1;" transform="translate(0,426.69)">20B</text></g><g class="ytick"><text text-anchor="end" x="79" y="4.199999999999999" style="font-family: 'Open Sans', verdana, arial, sans-serif; font-size: 12px; fill: rgb(42, 63, 95); fill-opacity: 1; white-space: pre; opacity: 1;" transform="translate(0,361.05)">40B</text></g><g class="ytick"><text text-anchor="end" x="79" y="4.199999999999999" style="font-family: 'Open Sans', verdana, arial, sans-serif; font-size: 12px; fill: rgb(42, 63, 95); fill-opacity: 1; white-space: pre; opacity: 1;" transform="translate(0,295.4)">60B</text></g><g class="ytick"><text text-anchor="end" x="79" y="4.199999999999999" style="font-family: 'Open Sans', verdana, arial, sans-serif; font-size: 12px; fill: rgb(42, 63, 95); fill-opacity: 1; white-space: pre; opacity: 1;" transform="translate(0,229.76)">80B</text></g><g class="ytick"><text text-anchor="end" x="79" y="4.199999999999999" style="font-family: 'Open Sans', verdana, arial, sans-serif; font-size: 12px; fill: rgb(42, 63, 95); fill-opacity: 1; white-space: pre; opacity: 1;" transform="translate(0,164.12)">100B</text></g></g><g class="overaxes-above"/></g></g><g class="polarlayer"/><g class="smithlayer"/><g class="ternarylayer"/><g class="geolayer"/><g class="funnelarealayer"/><g class="pielayer"/><g class="iciclelayer"/><g class="treemaplayer"/><g class="sunburstlayer"/><g class="glimages"/><defs id="topdefs-e472ab"><g class="clips"/></defs><g class="layer-above"><g class="imagelayer"/><g class="shapelayer"/></g><g class="infolayer"><g class="g-gtitle"><text class="gtitle" x="30" y="50" text-anchor="start" dy="0em" style="font-family: 'Open Sans', verdana, arial, sans-serif; font-size: 20px; fill: rgb(42, 63, 95); opacity: 1; font-weight: normal; white-space: pre;">Comparing processing times scoreUp for projects</text></g><g class="g-xtitle"/><g class="g-ytitle"><text class="ytitle" transform="rotate(-90,23.075000000000003,310)" x="23.075000000000003" y="310" text-anchor="middle" style="font-family: 'Open Sans', verdana, arial, sans-serif; font-size: 14px; fill: rgb(42, 63, 95); opacity: 1; font-weight: normal; white-space: pre;">ReadsAlignedPerHour</text></g></g></svg>