<svg class="main-svg" xmlns="http://www.w3.org/2000/svg" xmlns:xlink="http://www.w3.org/1999/xlink" width="600" height="600" style="" viewBox="0 0 600 600"><rect x="0" y="0" width="600" height="600" style="fill: rgb(255, 255, 255); fill-opacity: 1;"/><defs id="defs-d2917e"><g class="clips"><clipPath id="clipd2917exyplot" class="plotclip"><rect width="440" height="420"/></clipPath><clipPath class="axesclip" id="clipd2917ex"><rect x="80" y="0" width="440" height="600"/></clipPath><clipPath class="axesclip" id="clipd2917ey"><rect x="0" y="100" width="600" height="420"/></clipPath><clipPath class="axesclip" id="clipd2917exy"><rect x="80" y="100" width="440" height="420"/></clipPath></g><g class="gradients"/><g class="patterns"/></defs><g class="bglayer"><rect class="bg" x="80" y="100" width="440" height="420" style="fill: rgb(229, 236, 246); fill-opacity: 1; stroke-width: 0;"/></g><g class="layer-below"><g class="imagelayer"/><g class="shapelayer"/></g><g class="cartesianlayer"><g class="subplot xy"><g class="layer-subplot"><g class="shapelayer"/><g class="imagelayer"/></g><g class="minor-gridlayer"><g class="x"/><g class="y"/></g><g class="gridlayer"><g class="x"/><g class="y"><path class="ygrid crisp" transform="translate(0,450.71)" d="M80,0h440" style="stroke: rgb(255, 255, 255); stroke-opacity: 1; stroke-width: 1px;"/><path class="ygrid crisp" transform="translate(0,406.73)" d="M80,0h440" style="stroke: rgb(255, 255, 255); stroke-opacity: 1; stroke-width: 1px;"/><path class="ygrid crisp" transform="translate(0,362.76)" d="M80,0h440" style="stroke: rgb(255, 255, 255); stroke-opacity: 1; stroke-width: 1px;"/><path class="ygrid crisp" transform="translate(0,318.78)" d="M80,0h440" style="stroke: rgb(255, 255, 255); stroke-opacity: 1; stroke-width: 1px;"/><path class="ygrid crisp" transform="translate(0,274.8)" d="M80,0h440" style="stroke: rgb(255, 255, 255); stroke-opacity: 1; stroke-width: 1px;"/><path class="ygrid crisp" transform="translate(0,230.82)" d="M80,0h440" style="stroke: rgb(255, 255, 255); stroke-opacity: 1; stroke-width: 1px;"/><path class="ygrid crisp" transform="translate(0,186.84)" d="M80,0h440" style="stroke: rgb(255, 255, 255); stroke-opacity: 1; stroke-width: 1px;"/><path class="ygrid crisp" transform="translate(0,142.86)" d="M80,0h440" style="stroke: rgb(255, 255, 255); stroke-opacity: 1; stroke-width: 1px;"/></g></g><g class="zerolinelayer"><path class="yzl zl crisp" transform="translate(0,494.69)" d="M80,0h440" style="stroke: rgb(255, 255, 255); stroke-opacity: 1; stroke-width: 2px;"/></g><path class="xlines-below"/><path class="ylines-below"/><g class="overlines-below"/><g class="xaxislayer-below"/><g class="yaxislayer-below"/><g class="overaxes-below"/><g class="plot" transform="translate(80,100)" clip-path="url(#clipd2917exyplot)"><g class="violinlayer mlayer"><g class="trace violins" style="opacity: 1;"><path class="violin" d="M110.35,399Q110.57,397.53 110.76,396.81C110.96,396.07 111.19,395.32 111.54,394.61C111.91,393.86 112.37,393.11 112.96,392.42C113.62,391.64 114.44,390.91 115.38,390.22C116.47,389.43 117.78,388.71 119.2,388.03C120.84,387.24 122.73,386.52 124.71,385.83C126.94,385.05 129.42,384.35 131.92,383.64C134.61,382.88 137.52,382.17 140.35,381.44C143.21,380.7 146.22,380.01 148.99,379.25C151.59,378.54 154.26,377.85 156.52,377.05C158.43,376.37 160.42,375.74 161.72,374.86C162.68,374.21 163.73,373.45 163.9,372.66C164.04,371.97 163.58,371.13 163.06,370.47C162.38,369.62 161.03,368.97 159.82,368.28C158.43,367.49 156.75,366.8 155.15,366.08C153.49,365.33 151.7,364.63 150.02,363.89C148.39,363.17 146.73,362.45 145.23,361.69C143.85,360.99 142.49,360.29 141.35,359.5C140.35,358.81 139.38,358.1 138.71,357.3C138.13,356.62 137.63,355.87 137.44,355.11C137.26,354.4 137.31,353.62 137.51,352.91C137.72,352.15 138.22,351.42 138.73,350.72C139.28,349.95 140.04,349.24 140.73,348.52C141.43,347.78 142.27,347.09 142.92,346.33C143.53,345.62 144.24,344.91 144.55,344.13C144.83,343.43 145.01,342.64 144.83,341.94C144.63,341.17 143.97,340.41 143.25,339.74C142.37,338.91 141.03,338.24 139.73,337.55C138.24,336.76 136.46,336.07 134.74,335.36C132.92,334.61 130.94,333.9 129.07,333.16C127.22,332.43 125.32,331.73 123.58,330.97C121.95,330.26 120.35,329.55 118.93,328.77C117.65,328.07 116.44,327.36 115.41,326.58C114.5,325.89 113.67,325.15 113.01,324.38C112.41,323.68 111.94,322.94 111.55,322.19Q111.19,321.48 110.73,319.99L109.27,319.99Q108.81,321.48 108.45,322.19C108.06,322.94 107.59,323.68 106.99,324.38C106.33,325.15 105.5,325.89 104.59,326.58C103.56,327.36 102.35,328.07 101.07,328.77C99.65,329.55 98.05,330.26 96.42,330.97C94.68,331.73 92.78,332.43 90.93,333.16C89.06,333.9 87.08,334.61 85.26,335.36C83.54,336.07 81.76,336.76 80.27,337.55C78.97,338.24 77.63,338.91 76.75,339.74C76.03,340.41 75.37,341.17 75.17,341.94C74.99,342.64 75.17,343.43 75.45,344.13C75.76,344.91 76.47,345.62 77.08,346.33C77.73,347.09 78.57,347.78 79.27,348.52C79.96,349.24 80.72,349.95 81.27,350.72C81.78,351.42 82.28,352.15 82.49,352.91C82.69,353.62 82.74,354.4 82.56,355.11C82.37,355.87 81.87,356.62 81.29,357.3C80.62,358.1 79.65,358.81 78.65,359.5C77.51,360.29 76.15,360.99 74.77,361.69C73.27,362.45 71.61,363.17 69.98,363.89C68.3,364.63 66.51,365.33 64.85,366.08C63.25,366.8 61.57,367.49 60.18,368.28C58.97,368.97 57.62,369.62 56.94,370.47C56.42,371.13 55.96,371.97 56.1,372.66C56.27,373.45 57.32,374.21 58.28,374.86C59.58,375.74 61.57,376.37 63.48,377.05C65.74,377.85 68.41,378.54 71.01,379.25C73.78,380.01 76.79,380.7 79.65,381.44C82.48,382.17 85.39,382.88 88.08,383.64C90.58,384.35 93.06,385.05 95.29,385.83C97.27,386.52 99.16,387.24 100.8,388.03C102.22,388.71 103.53,389.43 104.62,390.22C105.56,390.91 106.38,391.64 107.04,392.42C107.63,393.11 108.09,393.86 108.46,394.61C108.81,395.32 109.04,396.07 109.24,396.81Q109.43,397.53 109.65,399Z" style="vector-effect: non-scaling-stroke; stroke-width: 2px; stroke: rgb(0, 0, 0); stroke-opacity: 1; fill: rgb(99, 110, 250); fill-opacity: 0.2;"/><path class="box" d="M96.53,365.1H123.48M96.53,373.82H123.48V344.65H96.53ZM110,373.82V385.68M110,344.65V333.31" style="vector-effect: non-scaling-stroke; stroke-width: 2px; stroke: rgb(0, 0, 0); stroke-opacity: 1; fill: rgb(99, 110, 250); fill-opacity: 0.2;"/><g class="points"/></g><g class="trace violins" style="opacity: 1;"><path class="violin" d="M330.09,382.8Q330.15,382.03 330.2,381.65C330.25,381.26 330.32,380.87 330.41,380.49C330.51,380.1 330.62,379.71 330.77,379.33C330.92,378.94 331.1,378.55 331.32,378.17C331.55,377.77 331.82,377.39 332.11,377.01C332.42,376.61 332.76,376.23 333.12,375.85C333.49,375.46 333.9,375.07 334.31,374.69C334.73,374.3 335.18,373.92 335.61,373.53C336.05,373.14 336.49,372.76 336.92,372.37C337.34,371.99 337.76,371.6 338.15,371.21C338.53,370.83 338.9,370.44 339.26,370.05C339.61,369.67 339.93,369.28 340.26,368.89C340.59,368.5 340.9,368.11 341.24,367.73C341.59,367.34 341.93,366.95 342.33,366.57C342.75,366.17 343.2,365.78 343.7,365.41C344.25,365.01 344.85,364.62 345.49,364.25C346.2,363.84 346.97,363.46 347.79,363.09C348.68,362.68 349.65,362.3 350.64,361.93C351.7,361.53 352.84,361.15 353.98,360.77C355.18,360.37 356.43,359.99 357.68,359.61C358.95,359.22 360.26,358.84 361.55,358.45C362.83,358.06 364.12,357.68 365.37,357.29C366.59,356.91 367.79,356.53 368.96,356.13C370.08,355.75 371.17,355.37 372.22,354.97C373.22,354.59 374.19,354.21 375.12,353.81C376,353.43 376.85,353.05 377.66,352.65C378.43,352.27 379.17,351.89 379.86,351.49C380.5,351.12 381.11,350.75 381.65,350.34C382.14,349.97 382.61,349.59 382.97,349.18C383.29,348.81 383.58,348.42 383.73,348.02C383.87,347.65 383.93,347.24 383.9,346.86C383.87,346.47 383.71,346.07 383.52,345.7C383.32,345.3 383.01,344.91 382.69,344.54C382.35,344.14 381.95,343.76 381.53,343.38C381.08,342.98 380.6,342.59 380.08,342.22C379.52,341.82 378.93,341.43 378.28,341.06C377.57,340.65 376.81,340.27 375.99,339.9C375.09,339.49 374.12,339.11 373.1,338.74C371.99,338.33 370.79,337.95 369.56,337.58C368.25,337.18 366.86,336.8 365.46,336.42C364.01,336.03 362.5,335.64 361.01,335.26C359.5,334.87 357.97,334.49 356.47,334.1C354.99,333.72 353.51,333.33 352.08,332.94C350.71,332.56 349.35,332.18 348.05,331.78C346.81,331.4 345.6,331.02 344.45,330.62C343.37,330.25 342.33,329.86 341.35,329.46C340.44,329.09 339.56,328.7 338.74,328.3C337.98,327.93 337.26,327.54 336.6,327.14C335.99,326.77 335.42,326.38 334.9,325.98C334.42,325.61 333.98,325.22 333.59,324.82C333.23,324.45 332.91,324.06 332.62,323.66C332.35,323.28 332.11,322.89 331.91,322.5C331.71,322.12 331.55,321.73 331.41,321.34C331.27,320.96 331.16,320.57 331.06,320.18C330.96,319.8 330.88,319.42 330.81,319.03C330.74,318.65 330.69,318.26 330.65,317.87C330.61,317.48 330.58,317.1 330.55,316.71C330.52,316.32 330.51,315.94 330.49,315.55C330.47,315.16 330.45,314.78 330.43,314.39C330.41,314 330.39,313.62 330.37,313.23C330.35,312.84 330.32,312.46 330.3,312.07C330.28,311.68 330.25,311.3 330.23,310.91C330.21,310.52 330.18,310.14 330.16,309.75C330.14,309.36 330.13,308.98 330.11,308.59C330.1,308.2 330.08,307.82 330.07,307.43C330.06,307.04 330.07,306.66 330.07,306.27C330.07,305.88 330.07,305.5 330.08,305.11C330.09,304.72 330.1,304.34 330.11,303.95C330.12,303.56 330.13,303.18 330.14,302.79C330.15,302.4 330.16,302.02 330.17,301.63C330.18,301.24 330.18,300.86 330.18,300.47C330.18,300.08 330.18,299.7 330.18,299.31C330.18,298.92 330.17,298.54 330.17,298.15C330.16,297.76 330.15,297.38 330.15,296.99C330.15,296.6 330.15,296.22 330.15,295.83C330.15,295.44 330.15,295.06 330.15,294.67C330.15,294.28 330.16,293.9 330.17,293.51C330.17,293.12 330.18,292.74 330.18,292.35C330.18,291.96 330.19,291.58 330.19,291.19C330.19,290.8 330.19,290.42 330.19,290.03C330.19,289.64 330.19,289.26 330.19,288.87C330.19,288.49 330.19,288.1 330.19,287.72C330.19,287.33 330.2,286.95 330.2,286.56C330.21,286.17 330.21,285.79 330.22,285.4C330.23,285.01 330.25,284.63 330.26,284.24C330.27,283.85 330.28,283.47 330.29,283.08C330.3,282.69 330.3,282.31 330.31,281.92C330.31,281.53 330.32,281.15 330.32,280.76C330.32,280.37 330.31,279.99 330.31,279.6C330.3,279.21 330.3,278.83 330.29,278.44C330.28,278.05 330.28,277.67 330.27,277.28C330.26,276.89 330.26,276.51 330.25,276.12C330.24,275.73 330.24,275.35 330.23,274.96C330.23,274.57 330.22,274.19 330.22,273.8C330.21,273.41 330.21,273.03 330.2,272.64C330.19,272.25 330.19,271.87 330.18,271.48C330.17,271.09 330.15,270.71 330.14,270.32C330.13,269.93 330.11,269.55 330.1,269.16C330.09,268.77 330.08,268.39 330.07,268C330.06,267.61 330.05,267.23 330.04,266.84C330.03,266.45 330.03,266.07 330.02,265.68C330.02,265.29 330.01,264.91 330.01,264.52C330.01,264.13 330.01,263.75 330.01,263.36C330.01,262.97 330.01,262.59 330.01,262.2C330.01,261.81 330.01,261.43 330.01,261.04C330.01,260.65 330.02,260.27 330.03,259.88C330.04,259.49 330.04,259.11 330.05,258.72C330.06,258.33 330.07,257.95 330.09,257.56C330.1,257.18 330.12,256.79 330.14,256.41C330.16,256.02 330.18,255.64 330.2,255.25C330.22,254.86 330.24,254.48 330.26,254.09C330.28,253.7 330.29,253.32 330.3,252.93C330.31,252.54 330.32,252.16 330.32,251.77C330.32,251.38 330.32,251 330.31,250.61C330.3,250.22 330.28,249.84 330.27,249.45C330.25,249.06 330.24,248.68 330.22,248.29C330.2,247.9 330.18,247.52 330.16,247.13C330.14,246.74 330.13,246.36 330.11,245.97C330.1,245.58 330.08,245.2 330.07,244.81C330.06,244.42 330.06,244.04 330.06,243.65C330.06,243.26 330.06,242.88 330.06,242.49C330.06,242.1 330.06,241.72 330.07,241.33C330.08,240.94 330.09,240.56 330.1,240.17C330.11,239.78 330.12,239.4 330.13,239.01C330.14,238.62 330.15,238.24 330.16,237.85C330.17,237.46 330.18,237.08 330.18,236.69C330.18,236.3 330.18,235.92 330.18,235.53C330.18,235.14 330.17,234.76 330.17,234.37C330.17,233.98 330.16,233.6 330.16,233.21C330.16,232.82 330.16,232.44 330.16,232.05C330.16,231.66 330.17,231.28 330.18,230.89C330.19,230.5 330.2,230.12 330.21,229.73C330.22,229.34 330.23,228.96 330.24,228.57C330.25,228.18 330.26,227.8 330.27,227.41C330.28,227.02 330.3,226.64 330.3,226.25C330.3,225.87 330.3,225.48 330.3,225.1C330.3,224.71 330.29,224.33 330.28,223.94C330.27,223.55 330.25,223.17 330.24,222.78C330.22,222.39 330.21,222.01 330.19,221.62C330.17,221.23 330.16,220.85 330.14,220.46C330.12,220.07 330.1,219.69 330.09,219.3C330.08,218.91 330.07,218.53 330.06,218.14C330.05,217.75 330.04,217.37 330.03,216.98C330.02,216.59 330.02,216.21 330.02,215.82C330.02,215.43 330.02,215.05 330.02,214.66C330.02,214.27 330.02,213.89 330.02,213.5C330.02,213.11 330.03,212.73 330.04,212.34C330.05,211.95 330.05,211.57 330.06,211.18C330.07,210.79 330.09,210.41 330.1,210.02C330.11,209.63 330.12,209.25 330.13,208.86C330.14,208.47 330.15,208.09 330.16,207.7C330.17,207.31 330.17,206.93 330.17,206.54C330.17,206.15 330.17,205.77 330.17,205.38C330.17,204.99 330.16,204.61 330.15,204.22C330.14,203.83 330.13,203.45 330.12,203.06C330.11,202.67 330.09,202.29 330.08,201.9C330.07,201.51 330.06,201.13 330.05,200.74C330.04,200.35 330.04,199.97 330.03,199.58C330.02,199.19 330.01,198.81 330.01,198.42C330.01,198.03 330.01,197.65 330.01,197.26C330.01,196.87 330,196.49 330,196.1C330,195.71 330,195.33 330,194.94C330,194.55 330,194.17 330,193.78C330,193.4 330,193.01 330,192.63C330,192.24 330,191.86 330,191.47C330,191.08 330,190.7 330,190.31C330,189.92 330,189.54 330,189.15C330,188.76 330.01,188.38 330.01,187.99C330.01,187.6 330.01,187.22 330.01,186.83C330.01,186.44 330.02,186.06 330.03,185.67C330.04,185.28 330.04,184.9 330.05,184.51C330.06,184.12 330.06,183.74 330.07,183.35C330.08,182.96 330.1,182.58 330.11,182.19C330.12,181.8 330.13,181.42 330.14,181.03C330.15,180.64 330.17,180.26 330.17,179.87C330.17,179.48 330.17,179.1 330.17,178.71C330.17,178.32 330.16,177.94 330.16,177.55C330.15,177.16 330.15,176.78 330.14,176.39C330.13,176 330.11,175.62 330.1,175.23C330.09,174.84 330.08,174.46 330.07,174.07C330.06,173.68 330.05,173.3 330.04,172.91C330.03,172.52 330.03,172.14 330.02,171.75C330.02,171.36 330.01,170.98 330.01,170.59C330.01,170.2 330,169.82 330,169.43C330,169.04 330,168.66 330,168.27C330,167.88 330,167.5 330,167.11C330,166.72 330,166.34 330,165.95C330,165.56 330.01,165.18 330.01,164.79C330.01,164.4 330.02,164.02 330.02,163.63C330.03,163.24 330.03,162.86 330.04,162.47C330.05,162.09 330.05,161.7 330.06,161.32C330.07,160.93 330.08,160.55 330.09,160.16C330.1,159.77 330.12,159.39 330.13,159C330.14,158.61 330.15,158.23 330.16,157.84C330.17,157.45 330.17,157.07 330.17,156.68C330.17,156.29 330.17,155.91 330.17,155.52C330.17,155.13 330.16,154.75 330.15,154.36C330.14,153.97 330.13,153.59 330.12,153.2C330.11,152.81 330.09,152.43 330.08,152.04C330.07,151.65 330.06,151.27 330.05,150.88C330.04,150.49 330.04,150.11 330.03,149.72C330.02,149.33 330.01,148.95 330.01,148.56C330.01,148.17 330.01,147.79 330.01,147.4C330.01,147.01 330,146.63 330,146.24C330,145.85 330,145.47 330,145.08C330,144.69 330.01,144.31 330.01,143.92C330.01,143.53 330.01,143.15 330.01,142.76C330.01,142.37 330.02,141.99 330.03,141.6C330.04,141.21 330.04,140.83 330.05,140.44C330.06,140.05 330.07,139.67 330.08,139.28C330.09,138.89 330.11,138.51 330.12,138.12C330.13,137.73 330.14,137.35 330.15,136.96C330.16,136.57 330.16,136.19 330.17,135.8C330.17,135.41 330.18,135.03 330.18,134.64C330.18,134.25 330.18,133.87 330.17,133.48C330.16,133.09 330.15,132.71 330.14,132.32C330.13,131.93 330.13,131.55 330.13,131.16C330.13,130.78 330.12,130.39 330.12,130.01C330.12,129.62 330.13,129.24 330.13,128.85C330.14,128.46 330.14,128.08 330.15,127.69C330.16,127.3 330.18,126.92 330.19,126.53C330.2,126.14 330.22,125.76 330.23,125.37C330.24,124.98 330.26,124.6 330.27,124.21C330.28,123.82 330.28,123.44 330.28,123.05C330.28,122.66 330.29,122.28 330.29,121.89C330.29,121.5 330.28,121.12 330.27,120.73C330.26,120.34 330.24,119.96 330.23,119.57C330.22,119.18 330.2,118.8 330.19,118.41C330.17,118.02 330.16,117.64 330.14,117.25C330.13,116.86 330.11,116.48 330.1,116.09C330.09,115.7 330.07,115.32 330.06,114.93C330.05,114.54 330.04,114.16 330.03,113.77C330.02,113.38 330.02,113 330.02,112.61C330.02,112.22 330.02,111.84 330.02,111.45C330.02,111.06 330.02,110.68 330.02,110.29C330.02,109.9 330.03,109.52 330.04,109.13C330.05,108.74 330.07,108.36 330.08,107.97C330.1,107.58 330.11,107.2 330.13,106.81C330.15,106.42 330.18,106.04 330.2,105.65C330.23,105.26 330.25,104.88 330.28,104.49C330.3,104.1 330.33,103.72 330.35,103.33C330.37,102.94 330.4,102.56 330.41,102.17C330.42,101.78 330.43,101.4 330.43,101.01C330.43,100.62 330.44,100.24 330.43,99.85C330.42,99.47 330.41,99.08 330.4,98.7C330.38,98.31 330.36,97.93 330.34,97.54C330.32,97.15 330.3,96.77 330.28,96.38C330.26,95.99 330.24,95.61 330.22,95.22C330.2,94.83 330.18,94.45 330.16,94.06C330.15,93.67 330.14,93.29 330.13,92.9C330.12,92.51 330.12,92.13 330.12,91.74C330.12,91.35 330.12,90.97 330.12,90.58C330.12,90.19 330.13,89.81 330.14,89.42C330.15,89.03 330.15,88.65 330.16,88.26C330.17,87.87 330.18,87.49 330.18,87.1C330.18,86.71 330.17,86.33 330.17,85.94C330.16,85.55 330.16,85.17 330.15,84.78C330.14,84.39 330.13,84.01 330.12,83.62C330.11,83.23 330.09,82.85 330.08,82.46C330.07,82.07 330.06,81.69 330.05,81.3C330.04,80.91 330.04,80.53 330.03,80.14C330.02,79.75 330.01,79.37 330.01,78.98C330.01,78.59 330.01,78.21 330.01,77.82C330.01,77.43 330,77.05 330,76.66C330,76.27 330,75.89 330,75.5C330,75.11 330,74.73 330,74.34C330,73.95 330,73.57 330,73.18C330,72.79 330,72.41 330,72.02C330,71.63 330,71.25 330,70.86C330,70.47 330,70.09 330,69.7C330,69.31 330,68.93 330,68.54C330,68.16 330,67.77 330,67.39C330,67 330,66.62 330,66.23C330,65.84 330,65.46 330,65.07C330,64.68 330,64.3 330,63.91C330,63.52 330,63.14 330,62.75C330,62.36 330,61.98 330,61.59C330,61.2 330,60.82 330,60.43C330,60.04 330,59.66 330,59.27C330,58.88 330,58.5 330,58.11C330,57.72 330,57.34 330,56.95C330,56.56 330,56.18 330,55.79C330,55.4 330,55.02 330,54.63C330,54.24 330,53.86 330,53.47C330,53.08 330,52.7 330,52.31C330,51.92 330,51.54 330,51.15C330,50.76 330,50.38 330,49.99C330,49.6 330,49.22 330,48.83C330,48.44 330,48.06 330,47.67C330,47.28 330,46.9 330,46.51C330,46.12 330,45.74 330,45.35C330,44.96 330,44.58 330,44.19C330,43.8 330,43.42 330,43.03C330,42.64 330,42.26 330,41.87C330,41.48 330,41.1 330,40.71C330,40.32 330,39.94 330,39.55C330,39.16 330,38.78 330,38.39C330,38 330,37.62 330,37.23C330,36.85 330.01,36.46 330.01,36.08C330.01,35.69 330.02,35.31 330.02,34.92C330.03,34.53 330.03,34.15 330.04,33.76C330.05,33.37 330.06,32.99 330.07,32.6C330.08,32.21 330.1,31.83 330.11,31.44C330.12,31.05 330.13,30.67 330.14,30.28C330.15,29.89 330.17,29.51 330.17,29.12C330.17,28.73 330.17,28.35 330.17,27.96C330.17,27.57 330.17,27.19 330.17,26.8C330.17,26.41 330.15,26.03 330.14,25.64C330.13,25.25 330.12,24.87 330.11,24.48C330.1,24.09 330.08,23.71 330.07,23.32C330.06,22.93 330.05,22.55 330.04,22.16Q330.03,21.77 330.02,21L329.98,21Q329.97,21.77 329.96,22.16C329.95,22.55 329.94,22.93 329.93,23.32C329.92,23.71 329.9,24.09 329.89,24.48C329.88,24.87 329.87,25.25 329.86,25.64C329.85,26.03 329.83,26.41 329.83,26.8C329.83,27.19 329.83,27.57 329.83,27.96C329.83,28.35 329.83,28.73 329.83,29.12C329.83,29.51 329.85,29.89 329.86,30.28C329.87,30.67 329.88,31.05 329.89,31.44C329.9,31.83 329.92,32.21 329.93,32.6C329.94,32.99 329.95,33.37 329.96,33.76C329.97,34.15 329.97,34.53 329.98,34.92C329.98,35.31 329.99,35.69 329.99,36.08C329.99,36.46 330,36.85 330,37.23C330,37.62 330,38 330,38.39C330,38.78 330,39.16 330,39.55C330,39.94 330,40.32 330,40.71C330,41.1 330,41.48 330,41.87C330,42.26 330,42.64 330,43.03C330,43.42 330,43.8 330,44.19C330,44.58 330,44.96 330,45.35C330,45.74 330,46.12 330,46.51C330,46.9 330,47.28 330,47.67C330,48.06 330,48.44 330,48.83C330,49.22 330,49.6 330,49.99C330,50.38 330,50.76 330,51.15C330,51.54 330,51.92 330,52.31C330,52.7 330,53.08 330,53.47C330,53.86 330,54.24 330,54.63C330,55.02 330,55.4 330,55.79C330,56.18 330,56.56 330,56.95C330,57.34 330,57.72 330,58.11C330,58.5 330,58.88 330,59.27C330,59.66 330,60.04 330,60.43C330,60.82 330,61.2 330,61.59C330,61.98 330,62.36 330,62.75C330,63.14 330,63.52 330,63.91C330,64.3 330,64.68 330,65.07C330,65.46 330,65.84 330,66.23C330,66.62 330,67 330,67.39C330,67.77 330,68.16 330,68.54C330,68.93 330,69.31 330,69.7C330,70.09 330,70.47 330,70.86C330,71.25 330,71.63 330,72.02C330,72.41 330,72.79 330,73.18C330,73.57 330,73.95 330,74.34C330,74.73 330,75.11 330,75.5C330,75.89 330,76.27 330,76.66C330,77.05 329.99,77.43 329.99,77.82C329.99,78.21 329.99,78.59 329.99,78.98C329.99,79.37 329.98,79.75 329.97,80.14C329.96,80.53 329.96,80.91 329.95,81.3C329.94,81.69 329.93,82.07 329.92,82.46C329.91,82.85 329.89,83.23 329.88,83.62C329.87,84.01 329.86,84.39 329.85,84.78C329.84,85.17 329.84,85.55 329.83,85.94C329.83,86.33 329.82,86.71 329.82,87.1C329.82,87.49 329.83,87.87 329.84,88.26C329.85,88.65 329.85,89.03 329.86,89.42C329.87,89.81 329.88,90.19 329.88,90.58C329.88,90.97 329.88,91.35 329.88,91.74C329.88,92.13 329.88,92.51 329.87,92.9C329.86,93.29 329.85,93.67 329.84,94.06C329.82,94.45 329.8,94.83 329.78,95.22C329.76,95.61 329.74,95.99 329.72,96.38C329.7,96.77 329.68,97.15 329.66,97.54C329.64,97.93 329.62,98.31 329.6,98.7C329.59,99.08 329.58,99.47 329.57,99.85C329.56,100.24 329.57,100.62 329.57,101.01C329.57,101.4 329.58,101.78 329.59,102.17C329.6,102.56 329.63,102.94 329.65,103.33C329.67,103.72 329.7,104.1 329.72,104.49C329.75,104.88 329.77,105.26 329.8,105.65C329.82,106.04 329.85,106.42 329.87,106.81C329.89,107.2 329.9,107.58 329.92,107.97C329.93,108.36 329.95,108.74 329.96,109.13C329.97,109.52 329.98,109.9 329.98,110.29C329.98,110.68 329.98,111.06 329.98,111.45C329.98,111.84 329.98,112.22 329.98,112.61C329.98,113 329.98,113.38 329.97,113.77C329.96,114.16 329.95,114.54 329.94,114.93C329.93,115.32 329.91,115.7 329.9,116.09C329.89,116.48 329.87,116.86 329.86,117.25C329.84,117.64 329.83,118.02 329.81,118.41C329.8,118.8 329.78,119.18 329.77,119.57C329.76,119.96 329.74,120.34 329.73,120.73C329.72,121.12 329.71,121.5 329.71,121.89C329.71,122.28 329.72,122.66 329.72,123.05C329.72,123.44 329.72,123.82 329.73,124.21C329.74,124.6 329.76,124.98 329.77,125.37C329.78,125.76 329.8,126.14 329.81,126.53C329.82,126.92 329.84,127.3 329.85,127.69C329.86,128.08 329.86,128.46 329.87,128.85C329.87,129.24 329.88,129.62 329.88,130.01C329.88,130.39 329.87,130.78 329.87,131.16C329.87,131.55 329.87,131.93 329.86,132.32C329.85,132.71 329.84,133.09 329.83,133.48C329.82,133.87 329.82,134.25 329.82,134.64C329.82,135.03 329.83,135.41 329.83,135.8C329.84,136.19 329.84,136.57 329.85,136.96C329.86,137.35 329.87,137.73 329.88,138.12C329.89,138.51 329.91,138.89 329.92,139.28C329.93,139.67 329.94,140.05 329.95,140.44C329.96,140.83 329.96,141.21 329.97,141.6C329.98,141.99 329.99,142.37 329.99,142.76C329.99,143.15 329.99,143.53 329.99,143.92C329.99,144.31 330,144.69 330,145.08C330,145.47 330,145.85 330,146.24C330,146.63 329.99,147.01 329.99,147.4C329.99,147.79 329.99,148.17 329.99,148.56C329.99,148.95 329.98,149.33 329.97,149.72C329.96,150.11 329.96,150.49 329.95,150.88C329.94,151.27 329.93,151.65 329.92,152.04C329.91,152.43 329.89,152.81 329.88,153.2C329.87,153.59 329.86,153.97 329.85,154.36C329.84,154.75 329.83,155.13 329.83,155.52C329.83,155.91 329.83,156.29 329.83,156.68C329.83,157.07 329.83,157.45 329.84,157.84C329.85,158.23 329.86,158.61 329.87,159C329.88,159.39 329.9,159.77 329.91,160.16C329.92,160.55 329.93,160.93 329.94,161.32C329.95,161.7 329.95,162.09 329.96,162.47C329.97,162.86 329.97,163.24 329.98,163.63C329.98,164.02 329.99,164.4 329.99,164.79C329.99,165.18 330,165.56 330,165.95C330,166.34 330,166.72 330,167.11C330,167.5 330,167.88 330,168.27C330,168.66 330,169.04 330,169.43C330,169.82 329.99,170.2 329.99,170.59C329.99,170.98 329.98,171.36 329.98,171.75C329.97,172.14 329.97,172.52 329.96,172.91C329.95,173.3 329.94,173.68 329.93,174.07C329.92,174.46 329.91,174.84 329.9,175.23C329.89,175.62 329.87,176 329.86,176.39C329.85,176.78 329.85,177.16 329.84,177.55C329.84,177.94 329.83,178.32 329.83,178.71C329.83,179.1 329.83,179.48 329.83,179.87C329.83,180.26 329.85,180.64 329.86,181.03C329.87,181.42 329.88,181.8 329.89,182.19C329.9,182.58 329.92,182.96 329.93,183.35C329.94,183.74 329.94,184.12 329.95,184.51C329.96,184.9 329.96,185.28 329.97,185.67C329.98,186.06 329.99,186.44 329.99,186.83C329.99,187.22 329.99,187.6 329.99,187.99C329.99,188.38 330,188.76 330,189.15C330,189.54 330,189.92 330,190.31C330,190.7 330,191.08 330,191.47C330,191.86 330,192.24 330,192.63C330,193.01 330,193.4 330,193.78C330,194.17 330,194.55 330,194.94C330,195.33 330,195.71 330,196.1C330,196.49 329.99,196.87 329.99,197.26C329.99,197.65 329.99,198.03 329.99,198.42C329.99,198.81 329.98,199.19 329.97,199.58C329.96,199.97 329.96,200.35 329.95,200.74C329.94,201.13 329.93,201.51 329.92,201.9C329.91,202.29 329.89,202.67 329.88,203.06C329.87,203.45 329.86,203.83 329.85,204.22C329.84,204.61 329.83,204.99 329.83,205.38C329.83,205.77 329.83,206.15 329.83,206.54C329.83,206.93 329.83,207.31 329.84,207.7C329.85,208.09 329.86,208.47 329.87,208.86C329.88,209.25 329.89,209.63 329.9,210.02C329.91,210.41 329.93,210.79 329.94,211.18C329.95,211.57 329.95,211.95 329.96,212.34C329.97,212.73 329.98,213.11 329.98,213.5C329.98,213.89 329.98,214.27 329.98,214.66C329.98,215.05 329.98,215.43 329.98,215.82C329.98,216.21 329.98,216.59 329.97,216.98C329.96,217.37 329.95,217.75 329.94,218.14C329.93,218.53 329.92,218.91 329.91,219.3C329.9,219.69 329.88,220.07 329.86,220.46C329.84,220.85 329.83,221.23 329.81,221.62C329.79,222.01 329.78,222.39 329.76,222.78C329.75,223.17 329.73,223.55 329.72,223.94C329.71,224.33 329.7,224.71 329.7,225.1C329.7,225.48 329.7,225.87 329.7,226.25C329.7,226.64 329.72,227.02 329.73,227.41C329.74,227.8 329.75,228.18 329.76,228.57C329.77,228.96 329.78,229.34 329.79,229.73C329.8,230.12 329.81,230.5 329.82,230.89C329.83,231.28 329.84,231.66 329.84,232.05C329.84,232.44 329.84,232.82 329.84,233.21C329.84,233.6 329.83,233.98 329.83,234.37C329.83,234.76 329.82,235.14 329.82,235.53C329.82,235.92 329.82,236.3 329.82,236.69C329.82,237.08 329.83,237.46 329.84,237.85C329.85,238.24 329.86,238.62 329.87,239.01C329.88,239.4 329.89,239.78 329.9,240.17C329.91,240.56 329.92,240.94 329.93,241.33C329.94,241.72 329.94,242.1 329.94,242.49C329.94,242.88 329.94,243.26 329.94,243.65C329.94,244.04 329.94,244.42 329.93,244.81C329.92,245.2 329.9,245.58 329.89,245.97C329.87,246.36 329.86,246.74 329.84,247.13C329.82,247.52 329.8,247.9 329.78,248.29C329.76,248.68 329.75,249.06 329.73,249.45C329.72,249.84 329.7,250.22 329.69,250.61C329.68,251 329.68,251.38 329.68,251.77C329.68,252.16 329.69,252.54 329.7,252.93C329.71,253.32 329.72,253.7 329.74,254.09C329.76,254.48 329.78,254.86 329.8,255.25C329.82,255.64 329.84,256.02 329.86,256.41C329.88,256.79 329.9,257.18 329.91,257.56C329.93,257.95 329.94,258.33 329.95,258.72C329.96,259.11 329.96,259.49 329.97,259.88C329.98,260.27 329.99,260.65 329.99,261.04C329.99,261.43 329.99,261.81 329.99,262.2C329.99,262.59 329.99,262.97 329.99,263.36C329.99,263.75 329.99,264.13 329.99,264.52C329.99,264.91 329.98,265.29 329.98,265.68C329.97,266.07 329.97,266.45 329.96,266.84C329.95,267.23 329.94,267.61 329.93,268C329.92,268.39 329.91,268.77 329.9,269.16C329.89,269.55 329.87,269.93 329.86,270.32C329.85,270.71 329.83,271.09 329.82,271.48C329.81,271.87 329.81,272.25 329.8,272.64C329.79,273.03 329.79,273.41 329.78,273.8C329.78,274.19 329.77,274.57 329.77,274.96C329.76,275.35 329.76,275.73 329.75,276.12C329.74,276.51 329.74,276.89 329.73,277.28C329.72,277.67 329.72,278.05 329.71,278.44C329.7,278.83 329.7,279.21 329.69,279.6C329.69,279.99 329.68,280.37 329.68,280.76C329.68,281.15 329.69,281.53 329.69,281.92C329.7,282.31 329.7,282.69 329.71,283.08C329.72,283.47 329.73,283.85 329.74,284.24C329.75,284.63 329.77,285.01 329.78,285.4C329.79,285.79 329.79,286.17 329.8,286.56C329.8,286.95 329.81,287.33 329.81,287.72C329.81,288.1 329.81,288.49 329.81,288.87C329.81,289.26 329.81,289.64 329.81,290.03C329.81,290.42 329.81,290.8 329.81,291.19C329.81,291.58 329.82,291.96 329.82,292.35C329.82,292.74 329.83,293.12 329.83,293.51C329.84,293.9 329.85,294.28 329.85,294.67C329.85,295.06 329.85,295.44 329.85,295.83C329.85,296.22 329.85,296.6 329.85,296.99C329.85,297.38 329.84,297.76 329.83,298.15C329.83,298.54 329.82,298.92 329.82,299.31C329.82,299.7 329.82,300.08 329.82,300.47C329.82,300.86 329.82,301.24 329.83,301.63C329.84,302.02 329.85,302.4 329.86,302.79C329.87,303.18 329.88,303.56 329.89,303.95C329.9,304.34 329.91,304.72 329.92,305.11C329.93,305.5 329.93,305.88 329.93,306.27C329.93,306.66 329.94,307.04 329.93,307.43C329.92,307.82 329.9,308.2 329.89,308.59C329.87,308.98 329.86,309.36 329.84,309.75C329.82,310.14 329.79,310.52 329.77,310.91C329.75,311.3 329.72,311.68 329.7,312.07C329.68,312.46 329.65,312.84 329.63,313.23C329.61,313.62 329.59,314 329.57,314.39C329.55,314.78 329.53,315.16 329.51,315.55C329.49,315.94 329.48,316.32 329.45,316.71C329.42,317.1 329.39,317.48 329.35,317.87C329.31,318.26 329.26,318.65 329.19,319.03C329.12,319.42 329.04,319.8 328.94,320.18C328.84,320.57 328.73,320.96 328.59,321.34C328.45,321.73 328.29,322.12 328.09,322.5C327.89,322.89 327.65,323.28 327.38,323.66C327.09,324.06 326.77,324.45 326.41,324.82C326.02,325.22 325.58,325.61 325.1,325.98C324.58,326.38 324.01,326.77 323.4,327.14C322.74,327.54 322.02,327.93 321.26,328.3C320.44,328.7 319.56,329.09 318.65,329.46C317.67,329.86 316.63,330.25 315.55,330.62C314.4,331.02 313.19,331.4 311.95,331.78C310.65,332.18 309.29,332.56 307.92,332.94C306.49,333.33 305.01,333.72 303.53,334.1C302.03,334.49 300.5,334.87 298.99,335.26C297.5,335.64 295.99,336.03 294.54,336.42C293.14,336.8 291.75,337.18 290.44,337.58C289.21,337.95 288.01,338.33 286.9,338.74C285.88,339.11 284.91,339.49 284.01,339.9C283.19,340.27 282.43,340.65 281.72,341.06C281.07,341.43 280.48,341.82 279.92,342.22C279.4,342.59 278.92,342.98 278.47,343.38C278.05,343.76 277.65,344.14 277.31,344.54C276.99,344.91 276.68,345.3 276.48,345.7C276.29,346.07 276.13,346.47 276.1,346.86C276.07,347.24 276.13,347.65 276.27,348.02C276.42,348.42 276.71,348.81 277.03,349.18C277.39,349.59 277.86,349.97 278.35,350.34C278.89,350.75 279.5,351.12 280.14,351.49C280.83,351.89 281.57,352.27 282.34,352.65C283.15,353.05 284,353.43 284.88,353.81C285.81,354.21 286.78,354.59 287.78,354.97C288.83,355.37 289.92,355.75 291.04,356.13C292.21,356.53 293.41,356.91 294.63,357.29C295.88,357.68 297.17,358.06 298.45,358.45C299.74,358.84 301.05,359.22 302.32,359.61C303.57,359.99 304.82,360.37 306.02,360.77C307.16,361.15 308.3,361.53 309.36,361.93C310.35,362.3 311.32,362.68 312.21,363.09C313.03,363.46 313.8,363.84 314.51,364.25C315.15,364.62 315.75,365.01 316.3,365.41C316.8,365.78 317.25,366.17 317.67,366.57C318.07,366.95 318.41,367.34 318.76,367.73C319.1,368.11 319.41,368.5 319.74,368.89C320.07,369.28 320.39,369.67 320.74,370.05C321.1,370.44 321.47,370.83 321.85,371.21C322.24,371.6 322.66,371.99 323.08,372.37C323.51,372.76 323.95,373.14 324.39,373.53C324.82,373.92 325.27,374.3 325.69,374.69C326.1,375.07 326.51,375.46 326.88,375.85C327.24,376.23 327.58,376.61 327.89,377.01C328.18,377.39 328.45,377.77 328.68,378.17C328.9,378.55 329.08,378.94 329.23,379.33C329.38,379.71 329.49,380.1 329.59,380.49C329.68,380.87 329.75,381.26 329.8,381.65Q329.85,382.03 329.91,382.8Z" style="vector-effect: non-scaling-stroke; stroke-width: 2px; stroke: rgb(0, 0, 0); stroke-opacity: 1; fill: rgb(99, 110, 250); fill-opacity: 0.2;"/><path class="box" d="M316.52,347.17H343.48M316.52,354.6H343.48V339.88H316.52ZM330,354.6V375.85M330,339.88V320.32" style="vector-effect: non-scaling-stroke; stroke-width: 2px; stroke: rgb(0, 0, 0); stroke-opacity: 1; fill: rgb(99, 110, 250); fill-opacity: 0.2;"/><g class="points"><path class="point" transform="translate(330,314.76)" d="M3,0A3,3 0 1,1 0,-3A3,3 0 0,1 3,0Z" style="opacity: 1; stroke-width: 0px; fill: rgb(0, 0, 0); fill-opacity: 1;"/><path class="point" transform="translate(330,313.75)" d="M3,0A3,3 0 1,1 0,-3A3,3 0 0,1 3,0Z" style="opacity: 1; stroke-width: 0px; fill: rgb(0, 0, 0); fill-opacity: 1;"/><path class="point" transform="translate(330,300.34)" d="M3,0A3,3 0 1,1 0,-3A3,3 0 0,1 3,0Z" style="opacity: 1; stroke-width: 0px; fill: rgb(0, 0, 0); fill-opacity: 1;"/><path class="point" transform="translate(330,291.19)" d="M3,0A3,3 0 1,1 0,-3A3,3 0 0,1 3,0Z" style="opacity: 1; stroke-width: 0px; fill: rgb(0, 0, 0); fill-opacity: 1;"/><path class="point" transform="translate(330,282.98)" d="M3,0A3,3 0 1,1 0,-3A3,3 0 0,1 3,0Z" style="opacity: 1; stroke-width: 0px; fill: rgb(0, 0, 0); fill-opacity: 1;"/><path class="point" transform="translate(330,279.42)" d="M3,0A3,3 0 1,1 0,-3A3,3 0 0,1 3,0Z" style="opacity: 1; stroke-width: 0px; fill: rgb(0, 0, 0); fill-opacity: 1;"/><path class="point" transform="translate(330,272.78)" d="M3,0A3,3 0 1,1 0,-3A3,3 0 0,1 3,0Z" style="opacity: 1; stroke-width: 0px; fill: rgb(0, 0, 0); fill-opacity: 1;"/><path class="point" transform="translate(330,253.04)" d="M3,0A3,3 0 1,1 0,-3A3,3 0 0,1 3,0Z" style="opacity: 1; stroke-width: 0px; fill: rgb(0, 0, 0); fill-opacity: 1;"/><path class="point" transform="translate(330,250.15)" d="M3,0A3,3 0 1,1 0,-3A3,3 0 0,1 3,0Z" style="opacity: 1; stroke-width: 0px; fill: rgb(0, 0, 0); fill-opacity: 1;"/><path class="point" transform="translate(330,236.43)" d="M3,0A3,3 0 1,1 0,-3A3,3 0 0,1 3,0Z" style="opacity: 1; stroke-width: 0px; fill: rgb(0, 0, 0); fill-opacity: 1;"/><path class="point" transform="translate(330,227.49)" d="M3,0A3,3 0 1,1 0,-3A3,3 0 0,1 3,0Z" style="opacity: 1; stroke-width: 0px; fill: rgb(0, 0, 0); fill-opacity: 1;"/><path class="point" transform="translate(330,223.53)" d="M3,0A3,3 0 1,1 0,-3A3,3 0 0,1 3,0Z" style="opacity: 1; stroke-width: 0px; fill: rgb(0, 0, 0); fill-opacity: 1;"/><path class="point" transform="translate(330,206.19)" d="M3,0A3,3 0 1,1 0,-3A3,3 0 0,1 3,0Z" style="opacity: 1; stroke-width: 0px; fill: rgb(0, 0, 0); fill-opacity: 1;"/><path class="point" transform="translate(330,178.82)" d="M3,0A3,3 0 1,1 0,-3A3,3 0 0,1 3,0Z" style="opacity: 1; stroke-width: 0px; fill: rgb(0, 0, 0); fill-opacity: 1;"/><path class="point" transform="translate(330,156.28)" d="M3,0A3,3 0 1,1 0,-3A3,3 0 0,1 3,0Z" style="opacity: 1; stroke-width: 0px; fill: rgb(0, 0, 0); fill-opacity: 1;"/><path class="point" transform="translate(330,135.02)" d="M3,0A3,3 0 1,1 0,-3A3,3 0 0,1 3,0Z" style="opacity: 1; stroke-width: 0px; fill: rgb(0, 0, 0); fill-opacity: 1;"/><path class="point" transform="translate(330,124.58)" d="M3,0A3,3 0 1,1 0,-3A3,3 0 0,1 3,0Z" style="opacity: 1; stroke-width: 0px; fill: rgb(0, 0, 0); fill-opacity: 1;"/><path class="point" transform="translate(330,120.23)" d="M3,0A3,3 0 1,1 0,-3A3,3 0 0,1 3,0Z" style="opacity: 1; stroke-width: 0px; fill: rgb(0, 0, 0); fill-opacity: 1;"/><path class="point" transform="translate(330,102.46)" d="M3,0A3,3 0 1,1 0,-3A3,3 0 0,1 3,0Z" style="opacity: 1; stroke-width: 0px; fill: rgb(0, 0, 0); fill-opacity: 1;"/><path class="point" transform="translate(330,101.06)" d="M3,0A3,3 0 1,1 0,-3A3,3 0 0,1 3,0Z" style="opacity: 1; stroke-width: 0px; fill: rgb(0, 0, 0); fill-opacity: 1;"/><path class="point" transform="translate(330,97.32)" d="M3,0A3,3 0 1,1 0,-3A3,3 0 0,1 3,0Z" style="opacity: 1; stroke-width: 0px; fill: rgb(0, 0, 0); fill-opacity: 1;"/><path class="point" transform="translate(330,86.7)" d="M3,0A3,3 0 1,1 0,-3A3,3 0 0,1 3,0Z" style="opacity: 1; stroke-width: 0px; fill: rgb(0, 0, 0); fill-opacity: 1;"/><path class="point" transform="translate(330,27.96)" d="M3,0A3,3 0 1,1 0,-3A3,3 0 0,1 3,0Z" style="opacity: 1; stroke-width: 0px; fill: rgb(0, 0, 0); fill-opacity: 1;"/></g></g></g></g><g class="overplot"/><path class="xlines-above crisp" d="M0,0" style="fill: none;"/><path class="ylines-above crisp" d="M0,0" style="fill: none;"/><g class="overlines-above"/><g class="xaxislayer-above"><g class="xtick"><text text-anchor="middle" x="0" y="533" transform="translate(190,0)" style="font-family: 'Open Sans', verdana, arial, sans-serif; font-size: 12px; fill: rgb(42, 63, 95); fill-opacity: 1; white-space: pre; opacity: 1;">P1000-US</text></g><g class="xtick"><text text-anchor="middle" x="0" y="533" transform="translate(410,0)" style="font-family: 'Open Sans', verdana, arial, sans-serif; font-size: 12px; fill: rgb(42, 63, 95); fill-opacity: 1; white-space: pre; opacity: 1;">MUTO-INTL</text></g></g><g class="yaxislayer-above"><g class="ytick"><text text-anchor="end" x="79" y="4.199999999999999" transform="translate(0,494.69)" style="font-family: 'Open Sans', verdana, arial, sans-serif; font-size: 12px; fill: rgb(42, 63, 95); fill-opacity: 1; white-space: pre; opacity: 1;">0</text></g><g class="ytick"><text text-anchor="end" x="79" y="4.199999999999999" style="font-family: 'Open Sans', verdana, arial, sans-serif; font-size: 12px; fill: rgb(42, 63, 95); fill-opacity: 1; white-space: pre; opacity: 1;" transform="translate(0,450.71)">0.5B</text></g><g class="ytick"><text text-anchor="end" x="79" y="4.199999999999999" style="font-family: 'Open Sans', verdana, arial, sans-serif; font-size: 12px; fill: rgb(42, 63, 95); fill-opacity: 1; white-space: pre; opacity: 1;" transform="translate(0,406.73)">1B</text></g><g class="ytick"><text text-anchor="end" x="79" y="4.199999999999999" style="font-family: 'Open Sans', verdana, arial, sans-serif; font-size: 12px; fill: rgb(42, 63, 95); fill-opacity: 1; white-space: pre; opacity: 1;" transform="translate(0,362.76)">1.5B</text></g><g class="ytick"><text text-anchor="end" x="79" y="4.199999999999999" style="font-family: 'Open Sans', verdana, arial, sans-serif; font-size: 12px; fill: rgb(42, 63, 95); fill-opacity: 1; white-space: pre; opacity: 1;" transform="translate(0,318.78)">2B</text></g><g class="ytick"><text text-anchor="end" x="79" y="4.199999999999999" style="font-family: 'Open Sans', verdana, arial, sans-serif; font-size: 12px; fill: rgb(42, 63, 95); fill-opacity: 1; white-space: pre; opacity: 1;" transform="translate(0,274.8)">2.5B</text></g><g class="ytick"><text text-anchor="end" x="79" y="4.199999999999999" style="font-family: 'Open Sans', verdana, arial, sans-serif; font-size: 12px; fill: rgb(42, 63, 95); fill-opacity: 1; white-space: pre; opacity: 1;" transform="translate(0,230.82)">3B</text></g><g class="ytick"><text text-anchor="end" x="79" y="4.199999999999999" style="font-family: 'Open Sans', verdana, arial, sans-serif; font-size: 12px; fill: rgb(42, 63, 95); fill-opacity: 1; white-space: pre; opacity: 1;" transform="translate(0,186.84)">3.5B</text></g><g class="ytick"><text text-anchor="end" x="79" y="4.199999999999999" style="font-family: 'Open Sans', verdana, arial, sans-serif; font-size: 12px; fill: rgb(42, 63, 95); fill-opacity: 1; white-space: pre; opacity: 1;" transform="translate(0,142.86)">4B</text></g></g><g class="overaxes-above"/></g></g><g class="polarlayer"/><g class="smithlayer"/><g class="ternarylayer"/><g class="geolayer"/><g class="funnelarealayer"/><g class="pielayer"/><g class="iciclelayer"/><g class="treemaplayer"/><g class="sunburstlayer"/><g class="glimages"/><defs id="topdefs-d2917e"><g class="clips"/></defs><g class="layer-above"><g class="imagelayer"/><g class="shapelayer"/></g><g class="infolayer"><g class="g-gtitle"><text class="gtitle" x="30" y="50" text-anchor="start" dy="0em" style="font-family: 'Open Sans', verdana, arial, sans-serif; font-size: 20px; fill: rgb(42, 63, 95); opacity: 1; font-weight: normal; white-space: pre;">Comparing processing times laneBam for projects</text></g><g class="g-xtitle"/><g class="g-ytitle"><text class="ytitle" transform="rotate(-90,26.340625000000003,310)" x="26.340625000000003" y="310" text-anchor="middle" style="font-family: 'Open Sans', verdana, arial, sans-serif; font-size: 14px; fill: rgb(42, 63, 95); opacity: 1; font-weight: normal; white-space: pre;">ReadsAlignedPerHour</text></g></g></svg>