<svg class="main-svg" xmlns="http://www.w3.org/2000/svg" xmlns:xlink="http://www.w3.org/1999/xlink" width="600" height="600" style="" viewBox="0 0 600 600"><rect x="0" y="0" width="600" height="600" style="fill: rgb(255, 255, 255); fill-opacity: 1;"/><defs id="defs-5d0ae4"><g class="clips"><clipPath id="clip5d0ae4xyplot" class="plotclip"><rect width="440" height="420"/></clipPath><clipPath class="axesclip" id="clip5d0ae4x"><rect x="80" y="0" width="440" height="600"/></clipPath><clipPath class="axesclip" id="clip5d0ae4y"><rect x="0" y="100" width="600" height="420"/></clipPath><clipPath class="axesclip" id="clip5d0ae4xy"><rect x="80" y="100" width="440" height="420"/></clipPath></g><g class="gradients"/><g class="patterns"/></defs><g class="bglayer"><rect class="bg" x="80" y="100" width="440" height="420" style="fill: rgb(229, 236, 246); fill-opacity: 1; stroke-width: 0;"/></g><g class="layer-below"><g class="imagelayer"/><g class="shapelayer"/></g><g class="cartesianlayer"><g class="subplot xy"><g class="layer-subplot"><g class="shapelayer"/><g class="imagelayer"/></g><g class="minor-gridlayer"><g class="x"/><g class="y"/></g><g class="gridlayer"><g class="x"/><g class="y"><path class="ygrid crisp" transform="translate(0,411.34)" d="M80,0h440" style="stroke: rgb(255, 255, 255); stroke-opacity: 1; stroke-width: 1px;"/><path class="ygrid crisp" transform="translate(0,332.35)" d="M80,0h440" style="stroke: rgb(255, 255, 255); stroke-opacity: 1; stroke-width: 1px;"/><path class="ygrid crisp" transform="translate(0,253.36)" d="M80,0h440" style="stroke: rgb(255, 255, 255); stroke-opacity: 1; stroke-width: 1px;"/><path class="ygrid crisp" transform="translate(0,174.37)" d="M80,0h440" style="stroke: rgb(255, 255, 255); stroke-opacity: 1; stroke-width: 1px;"/></g></g><g class="zerolinelayer"><path class="yzl zl crisp" transform="translate(0,490.33)" d="M80,0h440" style="stroke: rgb(255, 255, 255); stroke-opacity: 1; stroke-width: 2px;"/></g><path class="xlines-below"/><path class="ylines-below"/><g class="overlines-below"/><g class="xaxislayer-below"/><g class="yaxislayer-below"/><g class="overaxes-below"/><g class="plot" transform="translate(80,100)" clip-path="url(#clip5d0ae4xyplot)"><g class="violinlayer mlayer"><g class="trace violins" style="opacity: 1;"><path class="violin" d="M111.6,399Q112.63,397.14 113.37,396.28C114.21,395.31 115.27,394.4 116.47,393.55C117.86,392.56 119.54,391.68 121.32,390.83C123.36,389.85 125.7,388.98 128.09,388.11C130.73,387.15 133.63,386.27 136.5,385.38C139.48,384.45 142.65,383.58 145.64,382.66C148.53,381.77 151.54,380.91 154.16,379.94C156.48,379.08 158.87,378.26 160.6,377.21C161.95,376.39 163.45,375.52 163.9,374.49C164.26,373.66 164.13,372.6 163.72,371.77C163.21,370.74 161.78,369.89 160.54,369.04C159.09,368.05 157.21,367.21 155.46,366.32C153.63,365.39 151.62,364.53 149.8,363.6C148.06,362.71 146.27,361.84 144.75,360.87C143.4,360.01 142.07,359.14 141.1,358.15C140.27,357.3 139.55,356.39 139.17,355.43C138.82,354.56 138.74,353.61 138.78,352.71C138.82,351.8 139.17,350.88 139.45,349.98C139.74,349.06 140.19,348.17 140.51,347.26C140.82,346.36 141.18,345.46 141.34,344.54C141.5,343.64 141.57,342.71 141.47,341.81C141.36,340.89 141.08,339.97 140.69,339.09C140.27,338.15 139.65,337.25 138.97,336.37C138.24,335.43 137.35,334.52 136.43,333.64C135.45,332.7 134.35,331.81 133.25,330.92C132.11,330 130.88,329.11 129.69,328.2C128.49,327.29 127.24,326.39 126.06,325.47C124.91,324.57 123.75,323.68 122.69,322.75C121.68,321.86 120.71,320.96 119.84,320.03C119.02,319.15 118.26,318.23 117.6,317.3C116.97,316.41 116.43,315.5 115.93,314.58C115.45,313.69 115.04,312.77 114.65,311.86C114.26,310.96 113.93,310.04 113.6,309.13C113.27,308.23 112.97,307.32 112.68,306.41C112.39,305.51 112.12,304.6 111.87,303.69C111.63,302.78 111.4,301.87 111.21,300.96C111.02,300.06 110.85,299.15 110.71,298.24Q110.57,297.34 110.38,295.52L109.62,295.52Q109.43,297.34 109.29,298.24C109.15,299.15 108.98,300.06 108.79,300.96C108.6,301.87 108.37,302.78 108.13,303.69C107.88,304.6 107.61,305.51 107.32,306.41C107.03,307.32 106.73,308.23 106.4,309.13C106.07,310.04 105.74,310.96 105.35,311.86C104.96,312.77 104.55,313.69 104.07,314.58C103.57,315.5 103.03,316.41 102.4,317.3C101.74,318.23 100.98,319.15 100.16,320.03C99.29,320.96 98.32,321.86 97.31,322.75C96.25,323.68 95.09,324.57 93.94,325.47C92.76,326.39 91.51,327.29 90.31,328.2C89.12,329.11 87.89,330 86.75,330.92C85.65,331.81 84.55,332.7 83.57,333.64C82.65,334.52 81.76,335.43 81.03,336.37C80.35,337.25 79.73,338.15 79.31,339.09C78.92,339.97 78.64,340.89 78.53,341.81C78.43,342.71 78.5,343.64 78.66,344.54C78.82,345.46 79.18,346.36 79.49,347.26C79.81,348.17 80.26,349.06 80.55,349.98C80.83,350.88 81.18,351.8 81.22,352.71C81.26,353.61 81.18,354.56 80.83,355.43C80.45,356.39 79.73,357.3 78.9,358.15C77.93,359.14 76.6,360.01 75.25,360.87C73.73,361.84 71.94,362.71 70.2,363.6C68.38,364.53 66.37,365.39 64.54,366.32C62.79,367.21 60.91,368.05 59.46,369.04C58.22,369.89 56.79,370.74 56.28,371.77C55.87,372.6 55.74,373.66 56.1,374.49C56.55,375.52 58.05,376.39 59.4,377.21C61.13,378.26 63.52,379.08 65.84,379.94C68.46,380.91 71.47,381.77 74.36,382.66C77.35,383.58 80.52,384.45 83.5,385.38C86.37,386.27 89.27,387.15 91.91,388.11C94.3,388.98 96.64,389.85 98.68,390.83C100.46,391.68 102.14,392.56 103.53,393.55C104.73,394.4 105.79,395.31 106.63,396.28Q107.37,397.14 108.4,399Z" style="vector-effect: non-scaling-stroke; stroke-width: 2px; stroke: rgb(0, 0, 0); stroke-opacity: 1; fill: rgb(99, 110, 250); fill-opacity: 0.2;"/><path class="box" d="M96.53,365.74H123.48M96.53,375.05H123.48V341.85H96.53ZM110,375.05V382.23M110,341.85V312.28" style="vector-effect: non-scaling-stroke; stroke-width: 2px; stroke: rgb(0, 0, 0); stroke-opacity: 1; fill: rgb(99, 110, 250); fill-opacity: 0.2;"/><g class="points"/></g><g class="trace violins" style="opacity: 1;"><path class="violin" d="M330.03,383.13Q330.05,382.36 330.06,381.97C330.08,381.58 330.09,381.19 330.12,380.8C330.14,380.41 330.17,380.03 330.21,379.64C330.25,379.25 330.29,378.87 330.34,378.48C330.4,378.09 330.46,377.71 330.54,377.32C330.62,376.93 330.71,376.54 330.81,376.16C330.92,375.77 331.03,375.38 331.17,375C331.31,374.61 331.47,374.22 331.64,373.84C331.82,373.45 332.01,373.06 332.23,372.68C332.45,372.29 332.7,371.9 332.96,371.52C333.23,371.13 333.52,370.74 333.83,370.36C334.15,369.97 334.49,369.58 334.85,369.2C335.22,368.81 335.62,368.42 336.03,368.04C336.45,367.65 336.9,367.26 337.36,366.88C337.84,366.49 338.34,366.1 338.85,365.72C339.38,365.33 339.93,364.94 340.5,364.56C341.09,364.16 341.7,363.77 342.33,363.39C342.98,363 343.65,362.61 344.33,362.23C345.04,361.84 345.77,361.45 346.51,361.07C347.26,360.68 348.04,360.29 348.81,359.91C349.6,359.52 350.4,359.14 351.19,358.75C351.98,358.36 352.78,357.98 353.57,357.59C354.36,357.2 355.14,356.82 355.92,356.43C356.69,356.05 357.45,355.66 358.21,355.27C358.97,354.88 359.73,354.5 360.49,354.11C361.26,353.72 362.03,353.33 362.82,352.95C363.63,352.56 364.45,352.17 365.29,351.79C366.16,351.4 367.06,351.01 367.98,350.63C368.92,350.24 369.89,349.85 370.87,349.47C371.86,349.08 372.89,348.7 373.89,348.31C374.88,347.93 375.89,347.55 376.85,347.15C377.77,346.77 378.7,346.39 379.55,345.98C380.33,345.61 381.1,345.24 381.75,344.82C382.31,344.46 382.87,344.09 383.24,343.66C383.55,343.3 383.83,342.9 383.9,342.5C383.96,342.12 383.86,341.7 383.69,341.34C383.49,340.92 383.09,340.54 382.68,340.18C382.21,339.76 381.61,339.39 381.01,339.02C380.35,338.61 379.61,338.24 378.86,337.86C378.07,337.46 377.22,337.08 376.37,336.7C375.49,336.31 374.58,335.92 373.66,335.54C372.72,335.15 371.77,334.76 370.81,334.38C369.83,333.99 368.84,333.6 367.84,333.22C366.82,332.83 365.8,332.44 364.76,332.06C363.71,331.67 362.65,331.28 361.58,330.9C360.5,330.51 359.41,330.13 358.31,329.74C357.2,329.35 356.08,328.96 354.97,328.57C353.86,328.18 352.75,327.8 351.66,327.41C350.58,327.03 349.5,326.64 348.45,326.25C347.44,325.87 346.43,325.49 345.47,325.09C344.55,324.71 343.65,324.33 342.8,323.93C342,323.55 341.23,323.17 340.51,322.77C339.84,322.4 339.21,322.01 338.63,321.61C338.1,321.24 337.6,320.85 337.16,320.45C336.75,320.08 336.37,319.69 336.04,319.29C335.73,318.91 335.46,318.52 335.22,318.13C334.99,317.75 334.79,317.36 334.6,316.97C334.41,316.59 334.24,316.2 334.07,315.81C333.9,315.42 333.74,315.04 333.58,314.65C333.42,314.26 333.25,313.88 333.09,313.49C332.93,313.1 332.76,312.72 332.6,312.33C332.44,311.94 332.28,311.55 332.13,311.16C331.98,310.77 331.83,310.39 331.7,310C331.57,309.61 331.44,309.23 331.33,308.84C331.22,308.46 331.14,308.07 331.06,307.68C330.98,307.29 330.92,306.91 330.87,306.52C330.82,306.13 330.79,305.75 330.77,305.36C330.75,304.97 330.73,304.59 330.73,304.2C330.73,303.81 330.74,303.43 330.74,303.04C330.75,302.65 330.75,302.27 330.76,301.88C330.77,301.49 330.78,301.11 330.78,300.72C330.78,300.33 330.78,299.95 330.78,299.56C330.78,299.17 330.77,298.79 330.75,298.4C330.73,298.01 330.71,297.63 330.68,297.24C330.65,296.85 330.62,296.47 330.59,296.08C330.56,295.69 330.52,295.31 330.48,294.92C330.45,294.53 330.41,294.15 330.38,293.76C330.35,293.37 330.31,292.98 330.29,292.59C330.27,292.2 330.25,291.82 330.24,291.43C330.23,291.04 330.22,290.66 330.21,290.27C330.2,289.88 330.2,289.5 330.2,289.11C330.2,288.72 330.2,288.34 330.2,287.95C330.2,287.56 330.2,287.18 330.2,286.79C330.2,286.4 330.19,286.02 330.19,285.63C330.18,285.24 330.18,284.86 330.17,284.47C330.17,284.08 330.16,283.7 330.16,283.31C330.16,282.92 330.15,282.54 330.15,282.15C330.15,281.76 330.16,281.38 330.16,280.99C330.16,280.6 330.17,280.22 330.17,279.83C330.17,279.44 330.18,279.06 330.18,278.67C330.18,278.28 330.19,277.9 330.19,277.51C330.19,277.12 330.18,276.74 330.17,276.35C330.16,275.96 330.15,275.57 330.14,275.18C330.13,274.79 330.12,274.41 330.11,274.02C330.1,273.63 330.08,273.25 330.07,272.86C330.06,272.47 330.05,272.09 330.04,271.7C330.03,271.31 330.03,270.93 330.02,270.54C330.02,270.15 330.01,269.77 330.01,269.38C330.01,268.99 330,268.61 330,268.22C330,267.83 330,267.45 330,267.06C330,266.67 330,266.29 330,265.9C330,265.51 330,265.13 330,264.74C330,264.35 330,263.97 330,263.58C330,263.19 330,262.81 330,262.42C330,262.03 330,261.65 330,261.26C330,260.87 330.01,260.49 330.01,260.1C330.01,259.71 330.01,259.33 330.01,258.94C330.01,258.55 330.02,258.16 330.03,257.77C330.04,257.38 330.04,257 330.05,256.61C330.06,256.22 330.07,255.84 330.08,255.45C330.09,255.06 330.11,254.68 330.12,254.29C330.13,253.9 330.14,253.52 330.15,253.13C330.16,252.74 330.16,252.36 330.17,251.97C330.17,251.58 330.18,251.2 330.18,250.81C330.18,250.42 330.17,250.04 330.17,249.65C330.16,249.26 330.16,248.88 330.15,248.49C330.14,248.1 330.14,247.72 330.13,247.33C330.12,246.94 330.11,246.56 330.11,246.17C330.11,245.78 330.11,245.4 330.11,245.01C330.11,244.62 330.12,244.24 330.13,243.85C330.14,243.46 330.14,243.08 330.15,242.69C330.16,242.3 330.17,241.92 330.17,241.53C330.18,241.14 330.18,240.75 330.18,240.36C330.18,239.97 330.17,239.59 330.17,239.2C330.16,238.81 330.16,238.43 330.15,238.04C330.14,237.65 330.12,237.27 330.11,236.88C330.1,236.49 330.09,236.11 330.08,235.72C330.07,235.33 330.06,234.95 330.05,234.56C330.04,234.17 330.04,233.79 330.03,233.4C330.03,233.01 330.02,232.63 330.02,232.24C330.02,231.85 330.01,231.47 330.01,231.08C330.01,230.69 330.02,230.31 330.02,229.92C330.03,229.53 330.03,229.15 330.04,228.76C330.05,228.37 330.05,227.99 330.06,227.6C330.07,227.21 330.09,226.83 330.1,226.44C330.11,226.05 330.12,225.67 330.13,225.28C330.14,224.89 330.16,224.51 330.17,224.12C330.18,223.73 330.19,223.34 330.2,222.95C330.21,222.56 330.21,222.18 330.21,221.79C330.21,221.4 330.21,221.02 330.21,220.63C330.21,220.24 330.21,219.86 330.21,219.47C330.21,219.08 330.21,218.7 330.21,218.31C330.21,217.92 330.21,217.54 330.21,217.15C330.21,216.76 330.21,216.38 330.21,215.99C330.21,215.6 330.2,215.22 330.19,214.83C330.18,214.44 330.18,214.06 330.17,213.67C330.16,213.28 330.14,212.9 330.13,212.51C330.12,212.12 330.1,211.74 330.09,211.35C330.08,210.96 330.07,210.58 330.06,210.19C330.05,209.8 330.05,209.42 330.04,209.03C330.03,208.64 330.03,208.26 330.02,207.87C330.02,207.48 330.01,207.1 330.01,206.71C330.01,206.32 330.01,205.93 330.01,205.54C330.01,205.15 330.02,204.77 330.02,204.38C330.03,203.99 330.03,203.61 330.04,203.22C330.05,202.83 330.06,202.45 330.07,202.06C330.08,201.67 330.1,201.29 330.11,200.9C330.12,200.51 330.13,200.13 330.14,199.74C330.15,199.35 330.16,198.97 330.17,198.58C330.18,198.19 330.19,197.81 330.19,197.42C330.19,197.03 330.18,196.65 330.18,196.26C330.18,195.87 330.17,195.49 330.17,195.1C330.17,194.71 330.16,194.33 330.16,193.94C330.16,193.55 330.15,193.17 330.15,192.78C330.15,192.39 330.15,192.01 330.15,191.62C330.15,191.23 330.16,190.85 330.17,190.46C330.17,190.07 330.18,189.69 330.18,189.3C330.18,188.91 330.19,188.52 330.19,188.13C330.19,187.74 330.19,187.36 330.18,186.97C330.17,186.58 330.16,186.2 330.15,185.81C330.14,185.42 330.12,185.04 330.11,184.65C330.1,184.26 330.09,183.88 330.08,183.49C330.07,183.1 330.06,182.72 330.05,182.33C330.04,181.94 330.04,181.56 330.03,181.17C330.02,180.78 330.01,180.4 330.01,180.01C330.01,179.62 330.01,179.24 330.01,178.85C330.01,178.46 330,178.08 330,177.69C330,177.3 330,176.92 330,176.53C330,176.14 330,175.76 330,175.37C330,174.98 330,174.6 330,174.21C330,173.82 330.01,173.44 330.01,173.05C330.01,172.66 330.02,172.28 330.02,171.89C330.02,171.5 330.02,171.12 330.03,170.73C330.04,170.34 330.05,169.95 330.06,169.56C330.07,169.17 330.08,168.79 330.09,168.4C330.1,168.01 330.11,167.63 330.12,167.24C330.13,166.85 330.15,166.47 330.16,166.08C330.17,165.69 330.18,165.31 330.18,164.92C330.18,164.53 330.18,164.15 330.18,163.76C330.18,163.37 330.17,162.99 330.16,162.6C330.15,162.21 330.14,161.83 330.13,161.44C330.12,161.05 330.11,160.67 330.1,160.28C330.09,159.89 330.08,159.51 330.07,159.12C330.06,158.73 330.05,158.35 330.05,157.96C330.05,157.57 330.05,157.19 330.05,156.8C330.05,156.41 330.05,156.03 330.06,155.64C330.07,155.25 330.08,154.87 330.09,154.48C330.1,154.09 330.12,153.71 330.13,153.32C330.14,152.93 330.15,152.54 330.17,152.15C330.18,151.76 330.2,151.38 330.22,150.99C330.23,150.6 330.25,150.22 330.26,149.83C330.28,149.44 330.29,149.06 330.31,148.67C330.33,148.28 330.35,147.9 330.37,147.51C330.39,147.12 330.42,146.74 330.44,146.35C330.46,145.96 330.49,145.58 330.51,145.19C330.53,144.8 330.54,144.42 330.55,144.03C330.56,143.64 330.57,143.26 330.56,142.87C330.55,142.48 330.53,142.1 330.51,141.71C330.49,141.32 330.45,140.94 330.42,140.55C330.39,140.16 330.35,139.78 330.32,139.39C330.28,139 330.24,138.62 330.21,138.23C330.18,137.84 330.15,137.46 330.13,137.07C330.11,136.68 330.09,136.3 330.07,135.91C330.05,135.52 330.04,135.13 330.03,134.74C330.02,134.35 330.02,133.97 330.02,133.58C330.02,133.19 330.01,132.81 330.01,132.42C330.01,132.03 330.01,131.65 330.01,131.26C330.01,130.87 330.02,130.49 330.03,130.1C330.04,129.71 330.04,129.33 330.05,128.94C330.06,128.55 330.07,128.17 330.08,127.78C330.09,127.39 330.1,127.01 330.11,126.62C330.12,126.23 330.14,125.85 330.15,125.46C330.16,125.07 330.17,124.69 330.18,124.3C330.19,123.91 330.19,123.53 330.19,123.14C330.19,122.75 330.19,122.37 330.19,121.98C330.19,121.59 330.19,121.21 330.19,120.82C330.19,120.43 330.18,120.05 330.18,119.66C330.18,119.27 330.18,118.89 330.18,118.5C330.18,118.11 330.19,117.72 330.19,117.33C330.19,116.94 330.19,116.56 330.19,116.17C330.19,115.78 330.19,115.4 330.19,115.01C330.19,114.62 330.19,114.24 330.18,113.85C330.17,113.46 330.16,113.08 330.15,112.69C330.14,112.3 330.12,111.92 330.11,111.53C330.1,111.14 330.09,110.76 330.08,110.37C330.07,109.98 330.06,109.6 330.05,109.21C330.04,108.82 330.04,108.44 330.03,108.05C330.02,107.66 330.01,107.28 330.01,106.89C330.01,106.5 330.01,106.12 330.01,105.73C330.01,105.34 330,104.96 330,104.57C330,104.18 330,103.8 330,103.41C330,103.02 330,102.64 330,102.25C330,101.86 330,101.48 330,101.09C330,100.7 330,100.31 330,99.92C330,99.53 330,99.15 330,98.76C330,98.37 330,97.99 330,97.6C330,97.21 330,96.83 330,96.44C330,96.05 330,95.67 330,95.28C330,94.89 330.01,94.51 330.01,94.12C330.01,93.73 330.02,93.35 330.02,92.96C330.03,92.57 330.03,92.19 330.04,91.8C330.05,91.41 330.05,91.03 330.06,90.64C330.07,90.25 330.09,89.87 330.1,89.48C330.11,89.09 330.12,88.71 330.13,88.32C330.14,87.93 330.15,87.55 330.16,87.16C330.17,86.77 330.18,86.39 330.18,86C330.18,85.61 330.18,85.23 330.18,84.84C330.18,84.45 330.17,84.07 330.16,83.68C330.15,83.29 330.13,82.9 330.12,82.51C330.11,82.12 330.1,81.74 330.09,81.35C330.08,80.96 330.07,80.58 330.06,80.19C330.05,79.8 330.05,79.42 330.04,79.03C330.04,78.64 330.03,78.26 330.03,77.87C330.03,77.48 330.04,77.1 330.04,76.71C330.05,76.32 330.05,75.94 330.06,75.55C330.07,75.16 330.08,74.78 330.09,74.39C330.1,74 330.12,73.62 330.13,73.23C330.14,72.84 330.15,72.46 330.16,72.07C330.17,71.68 330.18,71.3 330.18,70.91C330.18,70.52 330.18,70.14 330.18,69.75C330.18,69.36 330.17,68.98 330.16,68.59C330.15,68.2 330.14,67.82 330.13,67.43C330.12,67.04 330.1,66.66 330.09,66.27C330.08,65.88 330.07,65.5 330.06,65.11C330.05,64.72 330.05,64.33 330.05,63.94C330.05,63.55 330.04,63.17 330.04,62.78C330.04,62.39 330.05,62.01 330.06,61.62C330.07,61.23 330.07,60.85 330.08,60.46C330.09,60.07 330.11,59.69 330.12,59.3C330.13,58.91 330.14,58.53 330.15,58.14C330.16,57.75 330.16,57.37 330.17,56.98C330.17,56.59 330.18,56.21 330.18,55.82C330.18,55.43 330.18,55.05 330.17,54.66C330.16,54.27 330.15,53.89 330.14,53.5C330.13,53.11 330.11,52.73 330.1,52.34C330.09,51.95 330.08,51.57 330.07,51.18C330.06,50.79 330.05,50.41 330.04,50.02C330.03,49.63 330.03,49.25 330.02,48.86C330.02,48.47 330.01,48.09 330.01,47.7C330.01,47.31 330,46.92 330,46.53C330,46.14 330,45.76 330,45.37C330,44.98 330,44.6 330,44.21C330,43.82 330,43.44 330,43.05C330,42.66 330,42.28 330,41.89C330,41.5 330,41.12 330,40.73C330,40.34 330,39.96 330,39.57C330,39.18 330,38.8 330,38.41C330,38.02 330.01,37.64 330.01,37.25C330.01,36.86 330.01,36.48 330.01,36.09C330.01,35.7 330.01,35.32 330.02,34.93C330.03,34.54 330.04,34.16 330.05,33.77C330.06,33.38 330.06,33 330.07,32.61C330.08,32.22 330.1,31.84 330.11,31.45C330.12,31.06 330.13,30.68 330.14,30.29C330.15,29.9 330.16,29.51 330.17,29.12C330.18,28.73 330.18,28.35 330.18,27.96C330.18,27.57 330.18,27.19 330.17,26.8C330.16,26.41 330.15,26.03 330.14,25.64C330.13,25.25 330.12,24.87 330.11,24.48C330.1,24.09 330.08,23.71 330.07,23.32C330.06,22.93 330.06,22.55 330.05,22.16Q330.04,21.77 330.02,21L329.98,21Q329.96,21.77 329.95,22.16C329.94,22.55 329.94,22.93 329.93,23.32C329.92,23.71 329.9,24.09 329.89,24.48C329.88,24.87 329.87,25.25 329.86,25.64C329.85,26.03 329.84,26.41 329.83,26.8C329.82,27.19 329.82,27.57 329.82,27.96C329.82,28.35 329.82,28.73 329.83,29.12C329.84,29.51 329.85,29.9 329.86,30.29C329.87,30.68 329.88,31.06 329.89,31.45C329.9,31.84 329.92,32.22 329.93,32.61C329.94,33 329.94,33.38 329.95,33.77C329.96,34.16 329.97,34.54 329.98,34.93C329.99,35.32 329.99,35.7 329.99,36.09C329.99,36.48 329.99,36.86 329.99,37.25C329.99,37.64 330,38.02 330,38.41C330,38.8 330,39.18 330,39.57C330,39.96 330,40.34 330,40.73C330,41.12 330,41.5 330,41.89C330,42.28 330,42.66 330,43.05C330,43.44 330,43.82 330,44.21C330,44.6 330,44.98 330,45.37C330,45.76 330,46.14 330,46.53C330,46.92 329.99,47.31 329.99,47.7C329.99,48.09 329.98,48.47 329.98,48.86C329.97,49.25 329.97,49.63 329.96,50.02C329.95,50.41 329.94,50.79 329.93,51.18C329.92,51.57 329.91,51.95 329.9,52.34C329.89,52.73 329.87,53.11 329.86,53.5C329.85,53.89 329.84,54.27 329.83,54.66C329.82,55.05 329.82,55.43 329.82,55.82C329.82,56.21 329.83,56.59 329.83,56.98C329.84,57.37 329.84,57.75 329.85,58.14C329.86,58.53 329.87,58.91 329.88,59.3C329.89,59.69 329.91,60.07 329.92,60.46C329.93,60.85 329.93,61.23 329.94,61.62C329.95,62.01 329.96,62.39 329.96,62.78C329.96,63.17 329.95,63.55 329.95,63.94C329.95,64.33 329.95,64.72 329.94,65.11C329.93,65.5 329.92,65.88 329.91,66.27C329.9,66.66 329.88,67.04 329.87,67.43C329.86,67.82 329.85,68.2 329.84,68.59C329.83,68.98 329.82,69.36 329.82,69.75C329.82,70.14 329.82,70.52 329.82,70.91C329.82,71.3 329.83,71.68 329.84,72.07C329.85,72.46 329.86,72.84 329.87,73.23C329.88,73.62 329.9,74 329.91,74.39C329.92,74.78 329.93,75.16 329.94,75.55C329.95,75.94 329.95,76.32 329.96,76.71C329.96,77.1 329.97,77.48 329.97,77.87C329.97,78.26 329.96,78.64 329.96,79.03C329.95,79.42 329.95,79.8 329.94,80.19C329.93,80.58 329.92,80.96 329.91,81.35C329.9,81.74 329.89,82.12 329.88,82.51C329.87,82.9 329.85,83.29 329.84,83.68C329.83,84.07 329.82,84.45 329.82,84.84C329.82,85.23 329.82,85.61 329.82,86C329.82,86.39 329.83,86.77 329.84,87.16C329.85,87.55 329.86,87.93 329.87,88.32C329.88,88.71 329.89,89.09 329.9,89.48C329.91,89.87 329.93,90.25 329.94,90.64C329.95,91.03 329.95,91.41 329.96,91.8C329.97,92.19 329.97,92.57 329.98,92.96C329.98,93.35 329.99,93.73 329.99,94.12C329.99,94.51 330,94.89 330,95.28C330,95.67 330,96.05 330,96.44C330,96.83 330,97.21 330,97.6C330,97.99 330,98.37 330,98.76C330,99.15 330,99.53 330,99.92C330,100.31 330,100.7 330,101.09C330,101.48 330,101.86 330,102.25C330,102.64 330,103.02 330,103.41C330,103.8 330,104.18 330,104.57C330,104.96 329.99,105.34 329.99,105.73C329.99,106.12 329.99,106.5 329.99,106.89C329.99,107.28 329.98,107.66 329.97,108.05C329.96,108.44 329.96,108.82 329.95,109.21C329.94,109.6 329.93,109.98 329.92,110.37C329.91,110.76 329.9,111.14 329.89,111.53C329.88,111.92 329.86,112.3 329.85,112.69C329.84,113.08 329.83,113.46 329.82,113.85C329.81,114.24 329.81,114.62 329.81,115.01C329.81,115.4 329.81,115.78 329.81,116.17C329.81,116.56 329.81,116.94 329.81,117.33C329.81,117.72 329.82,118.11 329.82,118.5C329.82,118.89 329.82,119.27 329.82,119.66C329.82,120.05 329.81,120.43 329.81,120.82C329.81,121.21 329.81,121.59 329.81,121.98C329.81,122.37 329.81,122.75 329.81,123.14C329.81,123.53 329.81,123.91 329.82,124.3C329.83,124.69 329.84,125.07 329.85,125.46C329.86,125.85 329.88,126.23 329.89,126.62C329.9,127.01 329.91,127.39 329.92,127.78C329.93,128.17 329.94,128.55 329.95,128.94C329.96,129.33 329.96,129.71 329.97,130.1C329.98,130.49 329.99,130.87 329.99,131.26C329.99,131.65 329.99,132.03 329.99,132.42C329.99,132.81 329.98,133.19 329.98,133.58C329.98,133.97 329.98,134.35 329.97,134.74C329.96,135.13 329.95,135.52 329.93,135.91C329.91,136.3 329.89,136.68 329.87,137.07C329.85,137.46 329.82,137.84 329.79,138.23C329.76,138.62 329.72,139 329.68,139.39C329.65,139.78 329.61,140.16 329.58,140.55C329.55,140.94 329.51,141.32 329.49,141.71C329.47,142.1 329.45,142.48 329.44,142.87C329.43,143.26 329.44,143.64 329.45,144.03C329.46,144.42 329.47,144.8 329.49,145.19C329.51,145.58 329.54,145.96 329.56,146.35C329.58,146.74 329.61,147.12 329.63,147.51C329.65,147.9 329.67,148.28 329.69,148.67C329.71,149.06 329.72,149.44 329.74,149.83C329.75,150.22 329.77,150.6 329.78,150.99C329.8,151.38 329.82,151.76 329.83,152.15C329.85,152.54 329.86,152.93 329.87,153.32C329.88,153.71 329.9,154.09 329.91,154.48C329.92,154.87 329.93,155.25 329.94,155.64C329.95,156.03 329.95,156.41 329.95,156.8C329.95,157.19 329.95,157.57 329.95,157.96C329.95,158.35 329.94,158.73 329.93,159.12C329.92,159.51 329.91,159.89 329.9,160.28C329.89,160.67 329.88,161.05 329.87,161.44C329.86,161.83 329.85,162.21 329.84,162.6C329.83,162.99 329.82,163.37 329.82,163.76C329.82,164.15 329.82,164.53 329.82,164.92C329.82,165.31 329.83,165.69 329.84,166.08C329.85,166.47 329.87,166.85 329.88,167.24C329.89,167.63 329.9,168.01 329.91,168.4C329.92,168.79 329.93,169.17 329.94,169.56C329.95,169.95 329.96,170.34 329.97,170.73C329.98,171.12 329.98,171.5 329.98,171.89C329.98,172.28 329.99,172.66 329.99,173.05C329.99,173.44 330,173.82 330,174.21C330,174.6 330,174.98 330,175.37C330,175.76 330,176.14 330,176.53C330,176.92 330,177.3 330,177.69C330,178.08 329.99,178.46 329.99,178.85C329.99,179.24 329.99,179.62 329.99,180.01C329.99,180.4 329.98,180.78 329.97,181.17C329.96,181.56 329.96,181.94 329.95,182.33C329.94,182.72 329.93,183.1 329.92,183.49C329.91,183.88 329.9,184.26 329.89,184.65C329.88,185.04 329.86,185.42 329.85,185.81C329.84,186.2 329.83,186.58 329.82,186.97C329.81,187.36 329.81,187.74 329.81,188.13C329.81,188.52 329.82,188.91 329.82,189.3C329.82,189.69 329.83,190.07 329.83,190.46C329.84,190.85 329.85,191.23 329.85,191.62C329.85,192.01 329.85,192.39 329.85,192.78C329.85,193.17 329.84,193.55 329.84,193.94C329.84,194.33 329.83,194.71 329.83,195.1C329.83,195.49 329.82,195.87 329.82,196.26C329.82,196.65 329.81,197.03 329.81,197.42C329.81,197.81 329.82,198.19 329.83,198.58C329.84,198.97 329.85,199.35 329.86,199.74C329.87,200.13 329.88,200.51 329.89,200.9C329.9,201.29 329.92,201.67 329.93,202.06C329.94,202.45 329.95,202.83 329.96,203.22C329.97,203.61 329.97,203.99 329.98,204.38C329.98,204.77 329.99,205.15 329.99,205.54C329.99,205.93 329.99,206.32 329.99,206.71C329.99,207.1 329.98,207.48 329.98,207.87C329.97,208.26 329.97,208.64 329.96,209.03C329.95,209.42 329.95,209.8 329.94,210.19C329.93,210.58 329.92,210.96 329.91,211.35C329.9,211.74 329.88,212.12 329.87,212.51C329.86,212.9 329.84,213.28 329.83,213.67C329.82,214.06 329.82,214.44 329.81,214.83C329.8,215.22 329.79,215.6 329.79,215.99C329.79,216.38 329.79,216.76 329.79,217.15C329.79,217.54 329.79,217.92 329.79,218.31C329.79,218.7 329.79,219.08 329.79,219.47C329.79,219.86 329.79,220.24 329.79,220.63C329.79,221.02 329.79,221.4 329.79,221.79C329.79,222.18 329.79,222.56 329.8,222.95C329.81,223.34 329.82,223.73 329.83,224.12C329.84,224.51 329.86,224.89 329.87,225.28C329.88,225.67 329.89,226.05 329.9,226.44C329.91,226.83 329.93,227.21 329.94,227.6C329.95,227.99 329.95,228.37 329.96,228.76C329.97,229.15 329.97,229.53 329.98,229.92C329.98,230.31 329.99,230.69 329.99,231.08C329.99,231.47 329.98,231.85 329.98,232.24C329.98,232.63 329.97,233.01 329.97,233.4C329.96,233.79 329.96,234.17 329.95,234.56C329.94,234.95 329.93,235.33 329.92,235.72C329.91,236.11 329.9,236.49 329.89,236.88C329.88,237.27 329.86,237.65 329.85,238.04C329.84,238.43 329.84,238.81 329.83,239.2C329.83,239.59 329.82,239.97 329.82,240.36C329.82,240.75 329.82,241.14 329.83,241.53C329.83,241.92 329.84,242.3 329.85,242.69C329.86,243.08 329.86,243.46 329.87,243.85C329.88,244.24 329.89,244.62 329.89,245.01C329.89,245.4 329.89,245.78 329.89,246.17C329.89,246.56 329.88,246.94 329.87,247.33C329.86,247.72 329.86,248.1 329.85,248.49C329.84,248.88 329.84,249.26 329.83,249.65C329.83,250.04 329.82,250.42 329.82,250.81C329.82,251.2 329.83,251.58 329.83,251.97C329.84,252.36 329.84,252.74 329.85,253.13C329.86,253.52 329.87,253.9 329.88,254.29C329.89,254.68 329.91,255.06 329.92,255.45C329.93,255.84 329.94,256.22 329.95,256.61C329.96,257 329.96,257.38 329.97,257.77C329.98,258.16 329.99,258.55 329.99,258.94C329.99,259.33 329.99,259.71 329.99,260.1C329.99,260.49 330,260.87 330,261.26C330,261.65 330,262.03 330,262.42C330,262.81 330,263.19 330,263.58C330,263.97 330,264.35 330,264.74C330,265.13 330,265.51 330,265.9C330,266.29 330,266.67 330,267.06C330,267.45 330,267.83 330,268.22C330,268.61 329.99,268.99 329.99,269.38C329.99,269.77 329.98,270.15 329.98,270.54C329.97,270.93 329.97,271.31 329.96,271.7C329.95,272.09 329.94,272.47 329.93,272.86C329.92,273.25 329.9,273.63 329.89,274.02C329.88,274.41 329.87,274.79 329.86,275.18C329.85,275.57 329.84,275.96 329.83,276.35C329.82,276.74 329.81,277.12 329.81,277.51C329.81,277.9 329.82,278.28 329.82,278.67C329.82,279.06 329.83,279.44 329.83,279.83C329.83,280.22 329.84,280.6 329.84,280.99C329.84,281.38 329.85,281.76 329.85,282.15C329.85,282.54 329.84,282.92 329.84,283.31C329.84,283.7 329.83,284.08 329.83,284.47C329.82,284.86 329.82,285.24 329.81,285.63C329.81,286.02 329.8,286.4 329.8,286.79C329.8,287.18 329.8,287.56 329.8,287.95C329.8,288.34 329.8,288.72 329.8,289.11C329.8,289.5 329.8,289.88 329.79,290.27C329.78,290.66 329.77,291.04 329.76,291.43C329.75,291.82 329.73,292.2 329.71,292.59C329.69,292.98 329.65,293.37 329.62,293.76C329.59,294.15 329.55,294.53 329.52,294.92C329.48,295.31 329.44,295.69 329.41,296.08C329.38,296.47 329.35,296.85 329.32,297.24C329.29,297.63 329.27,298.01 329.25,298.4C329.23,298.79 329.22,299.17 329.22,299.56C329.22,299.95 329.22,300.33 329.22,300.72C329.22,301.11 329.23,301.49 329.24,301.88C329.25,302.27 329.25,302.65 329.26,303.04C329.26,303.43 329.27,303.81 329.27,304.2C329.27,304.59 329.25,304.97 329.23,305.36C329.21,305.75 329.18,306.13 329.13,306.52C329.08,306.91 329.02,307.29 328.94,307.68C328.86,308.07 328.78,308.46 328.67,308.84C328.56,309.23 328.43,309.61 328.3,310C328.17,310.39 328.02,310.77 327.87,311.16C327.72,311.55 327.56,311.94 327.4,312.33C327.24,312.72 327.07,313.1 326.91,313.49C326.75,313.88 326.58,314.26 326.42,314.65C326.26,315.04 326.1,315.42 325.93,315.81C325.76,316.2 325.59,316.59 325.4,316.97C325.21,317.36 325.01,317.75 324.78,318.13C324.54,318.52 324.27,318.91 323.96,319.29C323.63,319.69 323.25,320.08 322.84,320.45C322.4,320.85 321.9,321.24 321.37,321.61C320.79,322.01 320.16,322.4 319.49,322.77C318.77,323.17 318,323.55 317.2,323.93C316.35,324.33 315.45,324.71 314.53,325.09C313.57,325.49 312.56,325.87 311.55,326.25C310.5,326.64 309.42,327.03 308.34,327.41C307.25,327.8 306.14,328.18 305.03,328.57C303.92,328.96 302.8,329.35 301.69,329.74C300.59,330.13 299.5,330.51 298.42,330.9C297.35,331.28 296.29,331.67 295.24,332.06C294.2,332.44 293.18,332.83 292.16,333.22C291.16,333.6 290.17,333.99 289.19,334.38C288.23,334.76 287.28,335.15 286.34,335.54C285.42,335.92 284.51,336.31 283.63,336.7C282.78,337.08 281.93,337.46 281.14,337.86C280.39,338.24 279.65,338.61 278.99,339.02C278.39,339.39 277.79,339.76 277.32,340.18C276.91,340.54 276.51,340.92 276.31,341.34C276.14,341.7 276.04,342.12 276.1,342.5C276.17,342.9 276.45,343.3 276.76,343.66C277.13,344.09 277.69,344.46 278.25,344.82C278.9,345.24 279.67,345.61 280.45,345.98C281.3,346.39 282.23,346.77 283.15,347.15C284.11,347.55 285.12,347.93 286.11,348.31C287.11,348.7 288.14,349.08 289.13,349.47C290.11,349.85 291.08,350.24 292.02,350.63C292.94,351.01 293.84,351.4 294.71,351.79C295.55,352.17 296.37,352.56 297.18,352.95C297.97,353.33 298.74,353.72 299.51,354.11C300.27,354.5 301.03,354.88 301.79,355.27C302.55,355.66 303.31,356.05 304.08,356.43C304.86,356.82 305.64,357.2 306.43,357.59C307.22,357.98 308.02,358.36 308.81,358.75C309.6,359.14 310.4,359.52 311.19,359.91C311.96,360.29 312.74,360.68 313.49,361.07C314.23,361.45 314.96,361.84 315.67,362.23C316.35,362.61 317.02,363 317.67,363.39C318.3,363.77 318.91,364.16 319.5,364.56C320.07,364.94 320.62,365.33 321.15,365.72C321.66,366.1 322.16,366.49 322.64,366.88C323.1,367.26 323.55,367.65 323.97,368.04C324.38,368.42 324.78,368.81 325.15,369.2C325.51,369.58 325.85,369.97 326.17,370.36C326.48,370.74 326.77,371.13 327.04,371.52C327.3,371.9 327.55,372.29 327.77,372.68C327.99,373.06 328.18,373.45 328.36,373.84C328.53,374.22 328.69,374.61 328.83,375C328.97,375.38 329.08,375.77 329.19,376.16C329.29,376.54 329.38,376.93 329.46,377.32C329.54,377.71 329.6,378.09 329.66,378.48C329.71,378.87 329.75,379.25 329.79,379.64C329.83,380.03 329.86,380.41 329.88,380.8C329.91,381.19 329.92,381.58 329.94,381.97Q329.95,382.36 329.97,383.13Z" style="vector-effect: non-scaling-stroke; stroke-width: 2px; stroke: rgb(0, 0, 0); stroke-opacity: 1; fill: rgb(99, 110, 250); fill-opacity: 0.2;"/><path class="box" d="M316.52,342.38H343.48M316.52,349.98H343.48V334.6H316.52ZM330,349.98V372.87M330,334.6V311.97" style="vector-effect: non-scaling-stroke; stroke-width: 2px; stroke: rgb(0, 0, 0); stroke-opacity: 1; fill: rgb(99, 110, 250); fill-opacity: 0.2;"/><g class="points"><path class="point" transform="translate(330,376.16)" d="M3,0A3,3 0 1,1 0,-3A3,3 0 0,1 3,0Z" style="opacity: 1; stroke-width: 0px; fill: rgb(0, 0, 0); fill-opacity: 1;"/><path class="point" transform="translate(330,311.08)" d="M3,0A3,3 0 1,1 0,-3A3,3 0 0,1 3,0Z" style="opacity: 1; stroke-width: 0px; fill: rgb(0, 0, 0); fill-opacity: 1;"/><path class="point" transform="translate(330,310.06)" d="M3,0A3,3 0 1,1 0,-3A3,3 0 0,1 3,0Z" style="opacity: 1; stroke-width: 0px; fill: rgb(0, 0, 0); fill-opacity: 1;"/><path class="point" transform="translate(330,308.92)" d="M3,0A3,3 0 1,1 0,-3A3,3 0 0,1 3,0Z" style="opacity: 1; stroke-width: 0px; fill: rgb(0, 0, 0); fill-opacity: 1;"/><path class="point" transform="translate(330,304.6)" d="M3,0A3,3 0 1,1 0,-3A3,3 0 0,1 3,0Z" style="opacity: 1; stroke-width: 0px; fill: rgb(0, 0, 0); fill-opacity: 1;"/><path class="point" transform="translate(330,302.94)" d="M3,0A3,3 0 1,1 0,-3A3,3 0 0,1 3,0Z" style="opacity: 1; stroke-width: 0px; fill: rgb(0, 0, 0); fill-opacity: 1;"/><path class="point" transform="translate(330,300.01)" d="M3,0A3,3 0 1,1 0,-3A3,3 0 0,1 3,0Z" style="opacity: 1; stroke-width: 0px; fill: rgb(0, 0, 0); fill-opacity: 1;"/><path class="point" transform="translate(330,298.9)" d="M3,0A3,3 0 1,1 0,-3A3,3 0 0,1 3,0Z" style="opacity: 1; stroke-width: 0px; fill: rgb(0, 0, 0); fill-opacity: 1;"/><path class="point" transform="translate(330,298.15)" d="M3,0A3,3 0 1,1 0,-3A3,3 0 0,1 3,0Z" style="opacity: 1; stroke-width: 0px; fill: rgb(0, 0, 0); fill-opacity: 1;"/><path class="point" transform="translate(330,295.01)" d="M3,0A3,3 0 1,1 0,-3A3,3 0 0,1 3,0Z" style="opacity: 1; stroke-width: 0px; fill: rgb(0, 0, 0); fill-opacity: 1;"/><path class="point" transform="translate(330,286.79)" d="M3,0A3,3 0 1,1 0,-3A3,3 0 0,1 3,0Z" style="opacity: 1; stroke-width: 0px; fill: rgb(0, 0, 0); fill-opacity: 1;"/><path class="point" transform="translate(330,277.57)" d="M3,0A3,3 0 1,1 0,-3A3,3 0 0,1 3,0Z" style="opacity: 1; stroke-width: 0px; fill: rgb(0, 0, 0); fill-opacity: 1;"/><path class="point" transform="translate(330,251.04)" d="M3,0A3,3 0 1,1 0,-3A3,3 0 0,1 3,0Z" style="opacity: 1; stroke-width: 0px; fill: rgb(0, 0, 0); fill-opacity: 1;"/><path class="point" transform="translate(330,240.31)" d="M3,0A3,3 0 1,1 0,-3A3,3 0 0,1 3,0Z" style="opacity: 1; stroke-width: 0px; fill: rgb(0, 0, 0); fill-opacity: 1;"/><path class="point" transform="translate(330,222.49)" d="M3,0A3,3 0 1,1 0,-3A3,3 0 0,1 3,0Z" style="opacity: 1; stroke-width: 0px; fill: rgb(0, 0, 0); fill-opacity: 1;"/><path class="point" transform="translate(330,215.35)" d="M3,0A3,3 0 1,1 0,-3A3,3 0 0,1 3,0Z" style="opacity: 1; stroke-width: 0px; fill: rgb(0, 0, 0); fill-opacity: 1;"/><path class="point" transform="translate(330,197.29)" d="M3,0A3,3 0 1,1 0,-3A3,3 0 0,1 3,0Z" style="opacity: 1; stroke-width: 0px; fill: rgb(0, 0, 0); fill-opacity: 1;"/><path class="point" transform="translate(330,187.99)" d="M3,0A3,3 0 1,1 0,-3A3,3 0 0,1 3,0Z" style="opacity: 1; stroke-width: 0px; fill: rgb(0, 0, 0); fill-opacity: 1;"/><path class="point" transform="translate(330,164.25)" d="M3,0A3,3 0 1,1 0,-3A3,3 0 0,1 3,0Z" style="opacity: 1; stroke-width: 0px; fill: rgb(0, 0, 0); fill-opacity: 1;"/><path class="point" transform="translate(330,150.15)" d="M3,0A3,3 0 1,1 0,-3A3,3 0 0,1 3,0Z" style="opacity: 1; stroke-width: 0px; fill: rgb(0, 0, 0); fill-opacity: 1;"/><path class="point" transform="translate(330,143.64)" d="M3,0A3,3 0 1,1 0,-3A3,3 0 0,1 3,0Z" style="opacity: 1; stroke-width: 0px; fill: rgb(0, 0, 0); fill-opacity: 1;"/><path class="point" transform="translate(330,142.86)" d="M3,0A3,3 0 1,1 0,-3A3,3 0 0,1 3,0Z" style="opacity: 1; stroke-width: 0px; fill: rgb(0, 0, 0); fill-opacity: 1;"/><path class="point" transform="translate(330,142.56)" d="M3,0A3,3 0 1,1 0,-3A3,3 0 0,1 3,0Z" style="opacity: 1; stroke-width: 0px; fill: rgb(0, 0, 0); fill-opacity: 1;"/><path class="point" transform="translate(330,123.18)" d="M3,0A3,3 0 1,1 0,-3A3,3 0 0,1 3,0Z" style="opacity: 1; stroke-width: 0px; fill: rgb(0, 0, 0); fill-opacity: 1;"/><path class="point" transform="translate(330,114.91)" d="M3,0A3,3 0 1,1 0,-3A3,3 0 0,1 3,0Z" style="opacity: 1; stroke-width: 0px; fill: rgb(0, 0, 0); fill-opacity: 1;"/><path class="point" transform="translate(330,85.55)" d="M3,0A3,3 0 1,1 0,-3A3,3 0 0,1 3,0Z" style="opacity: 1; stroke-width: 0px; fill: rgb(0, 0, 0); fill-opacity: 1;"/><path class="point" transform="translate(330,70.4)" d="M3,0A3,3 0 1,1 0,-3A3,3 0 0,1 3,0Z" style="opacity: 1; stroke-width: 0px; fill: rgb(0, 0, 0); fill-opacity: 1;"/><path class="point" transform="translate(330,56.04)" d="M3,0A3,3 0 1,1 0,-3A3,3 0 0,1 3,0Z" style="opacity: 1; stroke-width: 0px; fill: rgb(0, 0, 0); fill-opacity: 1;"/><path class="point" transform="translate(330,27.96)" d="M3,0A3,3 0 1,1 0,-3A3,3 0 0,1 3,0Z" style="opacity: 1; stroke-width: 0px; fill: rgb(0, 0, 0); fill-opacity: 1;"/></g></g></g></g><g class="overplot"/><path class="xlines-above crisp" d="M0,0" style="fill: none;"/><path class="ylines-above crisp" d="M0,0" style="fill: none;"/><g class="overlines-above"/><g class="xaxislayer-above"><g class="xtick"><text text-anchor="middle" x="0" y="533" transform="translate(190,0)" style="font-family: 'Open Sans', verdana, arial, sans-serif; font-size: 12px; fill: rgb(42, 63, 95); fill-opacity: 1; white-space: pre; opacity: 1;">P1000-US</text></g><g class="xtick"><text text-anchor="middle" x="0" y="533" transform="translate(410,0)" style="font-family: 'Open Sans', verdana, arial, sans-serif; font-size: 12px; fill: rgb(42, 63, 95); fill-opacity: 1; white-space: pre; opacity: 1;">MUTO-INTL</text></g></g><g class="yaxislayer-above"><g class="ytick"><text text-anchor="end" x="79" y="4.199999999999999" transform="translate(0,490.33)" style="font-family: 'Open Sans', verdana, arial, sans-serif; font-size: 12px; fill: rgb(42, 63, 95); fill-opacity: 1; white-space: pre; opacity: 1;">0</text></g><g class="ytick"><text text-anchor="end" x="79" y="4.199999999999999" style="font-family: 'Open Sans', verdana, arial, sans-serif; font-size: 12px; fill: rgb(42, 63, 95); fill-opacity: 1; white-space: pre; opacity: 1;" transform="translate(0,411.34)">1B</text></g><g class="ytick"><text text-anchor="end" x="79" y="4.199999999999999" style="font-family: 'Open Sans', verdana, arial, sans-serif; font-size: 12px; fill: rgb(42, 63, 95); fill-opacity: 1; white-space: pre; opacity: 1;" transform="translate(0,332.35)">2B</text></g><g class="ytick"><text text-anchor="end" x="79" y="4.199999999999999" style="font-family: 'Open Sans', verdana, arial, sans-serif; font-size: 12px; fill: rgb(42, 63, 95); fill-opacity: 1; white-space: pre; opacity: 1;" transform="translate(0,253.36)">3B</text></g><g class="ytick"><text text-anchor="end" x="79" y="4.199999999999999" style="font-family: 'Open Sans', verdana, arial, sans-serif; font-size: 12px; fill: rgb(42, 63, 95); fill-opacity: 1; white-space: pre; opacity: 1;" transform="translate(0,174.37)">4B</text></g></g><g class="overaxes-above"/></g></g><g class="polarlayer"/><g class="smithlayer"/><g class="ternarylayer"/><g class="geolayer"/><g class="funnelarealayer"/><g class="pielayer"/><g class="iciclelayer"/><g class="treemaplayer"/><g class="sunburstlayer"/><g class="glimages"/><defs id="topdefs-5d0ae4"><g class="clips"/></defs><g class="layer-above"><g class="imagelayer"/><g class="shapelayer"/></g><g class="infolayer"><g class="g-gtitle"><text class="gtitle" x="30" y="50" text-anchor="start" dy="0em" style="font-family: 'Open Sans', verdana, arial, sans-serif; font-size: 20px; fill: rgb(42, 63, 95); opacity: 1; font-weight: normal; white-space: pre;">Comparing processing times rgQC for projects</text></g><g class="g-xtitle"/><g class="g-ytitle"><text class="ytitle" transform="rotate(-90,38.340625,310)" x="38.340625" y="310" text-anchor="middle" style="font-family: 'Open Sans', verdana, arial, sans-serif; font-size: 14px; fill: rgb(42, 63, 95); opacity: 1; font-weight: normal; white-space: pre;">ReadsAlignedPerHour</text></g></g></svg>