<svg class="main-svg" xmlns="http://www.w3.org/2000/svg" xmlns:xlink="http://www.w3.org/1999/xlink" width="600" height="600" style="" viewBox="0 0 600 600"><rect x="0" y="0" width="600" height="600" style="fill: rgb(255, 255, 255); fill-opacity: 1;"/><defs id="defs-2e2207"><g class="clips"><clipPath id="clip2e2207xyplot" class="plotclip"><rect width="440" height="420"/></clipPath><clipPath class="axesclip" id="clip2e2207x"><rect x="80" y="0" width="440" height="600"/></clipPath><clipPath class="axesclip" id="clip2e2207y"><rect x="0" y="100" width="600" height="420"/></clipPath><clipPath class="axesclip" id="clip2e2207xy"><rect x="80" y="100" width="440" height="420"/></clipPath></g><g class="gradients"/><g class="patterns"/></defs><g class="bglayer"><rect class="bg" x="80" y="100" width="440" height="420" style="fill: rgb(229, 236, 246); fill-opacity: 1; stroke-width: 0;"/></g><g class="layer-below"><g class="imagelayer"/><g class="shapelayer"/></g><g class="cartesianlayer"><g class="subplot xy"><g class="layer-subplot"><g class="shapelayer"/><g class="imagelayer"/></g><g class="minor-gridlayer"><g class="x"/><g class="y"/></g><g class="gridlayer"><g class="x"/><g class="y"><path class="ygrid crisp" transform="translate(0,431.28)" d="M80,0h440" style="stroke: rgb(255, 255, 255); stroke-opacity: 1; stroke-width: 1px;"/><path class="ygrid crisp" transform="translate(0,348.07)" d="M80,0h440" style="stroke: rgb(255, 255, 255); stroke-opacity: 1; stroke-width: 1px;"/><path class="ygrid crisp" transform="translate(0,264.86)" d="M80,0h440" style="stroke: rgb(255, 255, 255); stroke-opacity: 1; stroke-width: 1px;"/><path class="ygrid crisp" transform="translate(0,181.64)" d="M80,0h440" style="stroke: rgb(255, 255, 255); stroke-opacity: 1; stroke-width: 1px;"/></g></g><g class="zerolinelayer"><path class="yzl zl crisp" transform="translate(0,514.49)" d="M80,0h440" style="stroke: rgb(255, 255, 255); stroke-opacity: 1; stroke-width: 2px;"/></g><path class="xlines-below"/><path class="ylines-below"/><g class="overlines-below"/><g class="xaxislayer-below"/><g class="yaxislayer-below"/><g class="overaxes-below"/><g class="plot" transform="translate(80,100)" clip-path="url(#clip2e2207xyplot)"><g class="violinlayer mlayer"><g class="trace violins" style="opacity: 1;"><path class="violin" d="M110.63,399Q111.01,397.96 111.3,397.47C111.61,396.94 112,396.42 112.47,395.94C113,395.4 113.65,394.9 114.37,394.42C115.2,393.87 116.18,393.37 117.23,392.89C118.44,392.34 119.8,391.84 121.24,391.36C122.86,390.82 124.63,390.32 126.47,389.83C128.48,389.3 130.65,388.81 132.84,388.31C135.15,387.79 137.58,387.29 139.97,386.78C142.38,386.27 144.86,385.77 147.22,385.25C149.47,384.75 151.75,384.26 153.8,383.72C155.64,383.24 157.46,382.76 158.98,382.19C160.24,381.72 161.49,381.27 162.35,380.67C163.01,380.21 163.64,379.7 163.88,379.14C164.08,378.67 164.04,378.1 163.9,377.61C163.74,377.07 163.29,376.57 162.88,376.08C162.42,375.54 161.82,375.06 161.24,374.56C160.62,374.04 159.93,373.54 159.27,373.03C158.61,372.52 157.91,372.02 157.29,371.5C156.7,371 156.08,370.51 155.62,369.97C155.21,369.48 154.81,368.97 154.63,368.44C154.47,367.95 154.43,367.42 154.52,366.92C154.61,366.4 154.92,365.89 155.21,365.39C155.52,364.86 155.98,364.38 156.32,363.86C156.65,363.36 157.06,362.86 157.23,362.33C157.39,361.84 157.49,361.28 157.35,360.8C157.19,360.26 156.73,359.74 156.21,359.28C155.55,358.7 154.56,358.22 153.55,357.75C152.33,357.18 150.86,356.7 149.36,356.22C147.66,355.67 145.76,355.18 143.86,354.69C141.82,354.16 139.64,353.67 137.5,353.17C135.32,352.66 133.06,352.16 130.9,351.64C128.81,351.14 126.7,350.64 124.75,350.11C122.95,349.62 121.18,349.13 119.59,348.58C118.2,348.1 116.86,347.61 115.72,347.05C114.74,346.58 113.84,346.09 113.11,345.53Q112.49,345.06 111.54,344L108.46,344Q107.51,345.06 106.89,345.53C106.16,346.09 105.26,346.58 104.28,347.05C103.14,347.61 101.8,348.1 100.41,348.58C98.82,349.13 97.05,349.62 95.25,350.11C93.3,350.64 91.19,351.14 89.1,351.64C86.94,352.16 84.68,352.66 82.5,353.17C80.36,353.67 78.18,354.16 76.14,354.69C74.24,355.18 72.34,355.67 70.64,356.22C69.14,356.7 67.67,357.18 66.45,357.75C65.44,358.22 64.45,358.7 63.79,359.28C63.27,359.74 62.81,360.26 62.65,360.8C62.51,361.28 62.61,361.84 62.77,362.33C62.94,362.86 63.35,363.36 63.68,363.86C64.02,364.38 64.48,364.86 64.79,365.39C65.08,365.89 65.39,366.4 65.48,366.92C65.57,367.42 65.53,367.95 65.37,368.44C65.19,368.97 64.79,369.48 64.38,369.97C63.92,370.51 63.3,371 62.71,371.5C62.09,372.02 61.39,372.52 60.73,373.03C60.07,373.54 59.38,374.04 58.76,374.56C58.18,375.06 57.58,375.54 57.12,376.08C56.71,376.57 56.26,377.07 56.1,377.61C55.96,378.1 55.92,378.67 56.12,379.14C56.36,379.7 56.99,380.21 57.65,380.67C58.51,381.27 59.76,381.72 61.02,382.19C62.54,382.76 64.36,383.24 66.2,383.72C68.25,384.26 70.53,384.75 72.78,385.25C75.14,385.77 77.62,386.27 80.03,386.78C82.42,387.29 84.85,387.79 87.16,388.31C89.35,388.81 91.52,389.3 93.53,389.83C95.37,390.32 97.14,390.82 98.76,391.36C100.2,391.84 101.56,392.34 102.77,392.89C103.82,393.37 104.8,393.87 105.63,394.42C106.35,394.9 107,395.4 107.53,395.94C108,396.42 108.39,396.94 108.7,397.47Q108.99,397.96 109.37,399Z" style="vector-effect: non-scaling-stroke; stroke-width: 2px; stroke: rgb(0, 0, 0); stroke-opacity: 1; fill: rgb(99, 110, 250); fill-opacity: 0.2;"/><path class="box" d="M96.53,372.66H123.48M96.53,379.66H123.48V361.16H96.53ZM110,379.66V389.73M110,361.16V353.27" style="vector-effect: non-scaling-stroke; stroke-width: 2px; stroke: rgb(0, 0, 0); stroke-opacity: 1; fill: rgb(99, 110, 250); fill-opacity: 0.2;"/><g class="points"/></g><g class="trace violins" style="opacity: 1;"><path class="violin" d="M330.02,391.09Q330.03,390.18 330.04,389.73C330.05,389.27 330.05,388.82 330.06,388.36C330.07,387.91 330.08,387.45 330.09,387C330.1,386.54 330.12,386.09 330.13,385.63C330.14,385.17 330.15,384.72 330.16,384.26C330.17,383.81 330.18,383.35 330.19,382.9C330.2,382.44 330.21,381.99 330.22,381.53C330.23,381.08 330.23,380.62 330.24,380.17C330.25,379.71 330.26,379.26 330.28,378.8C330.3,378.35 330.32,377.89 330.35,377.44C330.39,376.98 330.42,376.53 330.49,376.07C330.56,375.61 330.63,375.15 330.75,374.7C330.87,374.24 331.02,373.79 331.21,373.34C331.41,372.88 331.65,372.41 331.94,371.97C332.25,371.5 332.62,371.05 333.04,370.61C333.5,370.13 334.03,369.67 334.62,369.24C335.27,368.76 336,368.31 336.8,367.88C337.69,367.4 338.69,366.94 339.74,366.51C340.92,366.02 342.21,365.57 343.56,365.14C345.05,364.66 346.66,364.22 348.32,363.78C350.12,363.31 352.03,362.85 353.96,362.41C355.99,361.94 358.13,361.5 360.24,361.05C362.39,360.59 364.61,360.14 366.75,359.68C368.84,359.23 370.96,358.79 372.93,358.32C374.75,357.88 376.58,357.44 378.17,356.95C379.54,356.52 380.93,356.12 381.95,355.59C382.74,355.18 383.63,354.76 383.9,354.22C384.11,353.81 384.08,353.26 383.86,352.85C383.57,352.31 382.69,351.9 381.91,351.49C380.93,350.97 379.63,350.55 378.36,350.12C376.92,349.63 375.3,349.2 373.7,348.76C372.02,348.29 370.23,347.85 368.51,347.39C366.81,346.94 365.07,346.5 363.44,346.03C361.91,345.59 360.38,345.15 359.02,344.66C357.82,344.23 356.64,343.8 355.68,343.29C354.89,342.87 354.11,342.45 353.64,341.93C353.27,341.52 352.97,341.02 352.93,340.56C352.89,340.11 353.12,339.63 353.38,339.2C353.67,338.71 354.2,338.27 354.68,337.83C355.2,337.36 355.83,336.93 356.4,336.47C356.97,336.02 357.59,335.58 358.08,335.1C358.53,334.66 359,334.22 359.24,333.73C359.45,333.3 359.6,332.81 359.53,332.37C359.46,331.9 359.13,331.42 358.76,331C358.31,330.49 357.61,330.07 356.91,329.64C356.1,329.15 355.13,328.71 354.16,328.27C353.1,327.79 351.94,327.36 350.79,326.91C349.61,326.45 348.38,326 347.18,325.54C346,325.09 344.79,324.65 343.66,324.18C342.58,323.74 341.52,323.28 340.53,322.81C339.61,322.37 338.72,321.92 337.92,321.44C337.19,321 336.5,320.56 335.88,320.08C335.31,319.64 334.79,319.18 334.32,318.71C333.88,318.27 333.49,317.82 333.14,317.35C332.81,316.91 332.51,316.44 332.25,315.98C332,315.53 331.78,315.08 331.58,314.62C331.39,314.17 331.22,313.71 331.08,313.25C330.94,312.8 330.83,312.34 330.74,311.88C330.65,311.43 330.59,310.98 330.53,310.52C330.48,310.07 330.44,309.61 330.41,309.15C330.38,308.7 330.37,308.24 330.36,307.79C330.35,307.33 330.35,306.88 330.34,306.42C330.34,305.97 330.33,305.51 330.33,305.06C330.33,304.6 330.33,304.15 330.33,303.69C330.33,303.23 330.32,302.78 330.31,302.32C330.3,301.87 330.3,301.41 330.29,300.96C330.28,300.5 330.28,300.05 330.27,299.59C330.26,299.14 330.25,298.68 330.25,298.23C330.24,297.77 330.24,297.32 330.24,296.86C330.24,296.41 330.25,295.95 330.25,295.5C330.25,295.04 330.25,294.59 330.26,294.13C330.27,293.68 330.28,293.22 330.29,292.77C330.3,292.31 330.32,291.86 330.33,291.4C330.34,290.94 330.35,290.49 330.36,290.03C330.37,289.58 330.38,289.12 330.39,288.67C330.4,288.21 330.4,287.76 330.4,287.3C330.4,286.85 330.4,286.39 330.4,285.94C330.4,285.48 330.38,285.03 330.37,284.57C330.36,284.12 330.34,283.66 330.32,283.21C330.3,282.75 330.28,282.3 330.26,281.84C330.24,281.38 330.22,280.93 330.2,280.47C330.18,280.02 330.15,279.56 330.13,279.11C330.11,278.65 330.09,278.2 330.08,277.74C330.07,277.29 330.06,276.83 330.05,276.38C330.04,275.92 330.03,275.47 330.02,275.01C330.01,274.56 330.01,274.1 330.01,273.65C330.01,273.19 330,272.74 330,272.28C330,271.82 330,271.37 330,270.91C330,270.46 330,270 330,269.55C330,269.09 330,268.64 330,268.18C330,267.73 330.01,267.27 330.01,266.82C330.01,266.36 330.02,265.91 330.02,265.45C330.02,265 330.03,264.54 330.03,264.09C330.04,263.63 330.04,263.18 330.05,262.72C330.06,262.27 330.07,261.81 330.08,261.36C330.09,260.9 330.09,260.45 330.1,259.99C330.11,259.53 330.12,259.08 330.13,258.62C330.14,258.17 330.14,257.71 330.14,257.26C330.14,256.8 330.14,256.35 330.14,255.89C330.14,255.44 330.13,254.98 330.12,254.53C330.11,254.07 330.11,253.62 330.1,253.16C330.09,252.71 330.08,252.25 330.07,251.8C330.06,251.34 330.05,250.89 330.04,250.43C330.03,249.97 330.03,249.52 330.02,249.06C330.02,248.61 330.01,248.15 330.01,247.7C330.01,247.24 330.01,246.79 330.01,246.33C330.01,245.88 330,245.42 330,244.97C330,244.51 330,244.06 330,243.6C330,243.15 330,242.69 330,242.24C330,241.78 330,241.33 330,240.87C330,240.41 330.01,239.96 330.01,239.5C330.01,239.05 330.02,238.59 330.02,238.14C330.03,237.68 330.03,237.23 330.04,236.77C330.05,236.32 330.06,235.86 330.07,235.41C330.08,234.95 330.09,234.5 330.11,234.04C330.13,233.59 330.15,233.13 330.17,232.68C330.19,232.22 330.21,231.77 330.23,231.31C330.25,230.86 330.26,230.4 330.28,229.95C330.3,229.49 330.32,229.04 330.33,228.58C330.34,228.12 330.35,227.67 330.35,227.21C330.35,226.76 330.35,226.3 330.35,225.85C330.35,225.39 330.33,224.94 330.32,224.48C330.31,224.03 330.29,223.57 330.28,223.12C330.26,222.66 330.25,222.21 330.23,221.75C330.21,221.3 330.19,220.84 330.17,220.39C330.15,219.93 330.14,219.48 330.12,219.02C330.1,218.56 330.08,218.11 330.07,217.65C330.06,217.2 330.05,216.74 330.04,216.29C330.03,215.83 330.03,215.38 330.02,214.92C330.02,214.47 330.01,214.01 330.01,213.56C330.01,213.1 330,212.65 330,212.19C330,211.74 330,211.28 330,210.83C330,210.37 330,209.92 330,209.46C330,209 330,208.55 330,208.09C330,207.64 330,207.18 330,206.73C330,206.27 330,205.82 330,205.36C330,204.91 330.01,204.45 330.01,204C330.01,203.54 330.02,203.09 330.02,202.63C330.02,202.18 330.03,201.72 330.03,201.27C330.04,200.81 330.04,200.36 330.05,199.9C330.06,199.45 330.07,198.99 330.08,198.54C330.09,198.08 330.1,197.63 330.11,197.17C330.12,196.71 330.12,196.26 330.13,195.8C330.13,195.35 330.14,194.89 330.14,194.44C330.14,193.98 330.14,193.53 330.14,193.07C330.14,192.62 330.13,192.16 330.12,191.71C330.11,191.25 330.11,190.8 330.1,190.34C330.09,189.89 330.08,189.43 330.07,188.98C330.06,188.52 330.05,188.07 330.04,187.61C330.03,187.15 330.03,186.7 330.02,186.24C330.02,185.79 330.01,185.33 330.01,184.88C330.01,184.42 330.01,183.97 330.01,183.51C330.01,183.06 330,182.6 330,182.15C330,181.69 330,181.24 330,180.78C330,180.33 330,179.87 330,179.42C330,178.96 330,178.51 330,178.05C330,177.59 330,177.14 330,176.68C330,176.23 330,175.77 330,175.32C330,174.86 330,174.41 330,173.95C330,173.5 330,173.04 330,172.59C330,172.13 330,171.68 330,171.22C330,170.77 330,170.31 330,169.86C330,169.4 330,168.95 330,168.49C330,168.03 330,167.58 330,167.12C330,166.67 330,166.21 330,165.76C330,165.3 330,164.85 330,164.39C330,163.94 330,163.48 330,163.03C330,162.57 330,162.12 330,161.66C330,161.21 330,160.75 330,160.3C330,159.84 330,159.39 330,158.93C330,158.48 330,158.02 330,157.57C330,157.11 330,156.66 330,156.2C330,155.74 330,155.29 330,154.83C330,154.38 330,153.92 330,153.47C330,153.01 330.01,152.56 330.01,152.1C330.01,151.65 330.01,151.19 330.01,150.74C330.01,150.28 330.01,149.83 330.02,149.37C330.02,148.92 330.03,148.46 330.04,148.01C330.05,147.55 330.06,147.1 330.07,146.64C330.08,146.18 330.09,145.73 330.1,145.27C330.11,144.82 330.11,144.36 330.12,143.91C330.13,143.45 330.14,143 330.14,142.54C330.14,142.09 330.14,141.63 330.14,141.18C330.14,140.72 330.14,140.27 330.13,139.81C330.12,139.36 330.11,138.9 330.1,138.45C330.09,137.99 330.09,137.54 330.08,137.08C330.07,136.62 330.06,136.17 330.05,135.71C330.04,135.26 330.04,134.8 330.03,134.35C330.02,133.89 330.01,133.44 330.01,132.98C330.01,132.53 330.01,132.07 330.01,131.62C330.01,131.16 330,130.71 330,130.25C330,129.8 330,129.34 330,128.89C330,128.43 330,127.98 330,127.52C330,127.07 330,126.61 330,126.16C330,125.7 330,125.25 330,124.79C330,124.33 330,123.88 330,123.42C330,122.97 330.01,122.51 330.01,122.06C330.01,121.6 330.02,121.15 330.02,120.69C330.02,120.24 330.03,119.78 330.03,119.33C330.04,118.87 330.04,118.42 330.05,117.96C330.06,117.51 330.07,117.05 330.08,116.6C330.09,116.14 330.1,115.69 330.11,115.23C330.12,114.77 330.12,114.32 330.13,113.86C330.13,113.41 330.14,112.95 330.14,112.5C330.14,112.04 330.14,111.59 330.14,111.13C330.14,110.68 330.14,110.22 330.13,109.77C330.12,109.31 330.11,108.86 330.1,108.4C330.09,107.95 330.08,107.49 330.08,107.04C330.07,106.58 330.07,106.13 330.07,105.67C330.07,105.21 330.08,104.76 330.08,104.3C330.08,103.85 330.09,103.39 330.09,102.94C330.1,102.48 330.1,102.03 330.11,101.57C330.12,101.12 330.13,100.66 330.13,100.21C330.14,99.75 330.14,99.3 330.14,98.84C330.14,98.39 330.14,97.93 330.14,97.48C330.14,97.02 330.13,96.57 330.12,96.11C330.11,95.66 330.1,95.2 330.09,94.75C330.08,94.29 330.07,93.84 330.06,93.38C330.05,92.92 330.05,92.47 330.04,92.01C330.03,91.56 330.02,91.1 330.02,90.65C330.02,90.19 330.02,89.74 330.02,89.28C330.02,88.83 330.02,88.37 330.02,87.92C330.02,87.46 330.02,87.01 330.02,86.55C330.02,86.1 330.03,85.64 330.04,85.19C330.05,84.73 330.05,84.28 330.06,83.82C330.07,83.36 330.08,82.91 330.09,82.45C330.1,82 330.11,81.54 330.12,81.09C330.13,80.63 330.14,80.18 330.14,79.72C330.14,79.27 330.14,78.81 330.14,78.36C330.14,77.9 330.14,77.45 330.13,76.99C330.13,76.54 330.12,76.08 330.11,75.63C330.1,75.17 330.09,74.72 330.08,74.26C330.07,73.8 330.07,73.35 330.06,72.89C330.05,72.44 330.04,71.98 330.04,71.53C330.03,71.07 330.03,70.62 330.03,70.16C330.03,69.71 330.03,69.25 330.03,68.8C330.03,68.34 330.03,67.89 330.04,67.43C330.04,66.98 330.05,66.52 330.06,66.07C330.07,65.61 330.08,65.16 330.09,64.7C330.1,64.25 330.11,63.79 330.12,63.34C330.13,62.88 330.14,62.43 330.15,61.97C330.16,61.51 330.16,61.06 330.17,60.6C330.18,60.15 330.19,59.69 330.19,59.24C330.2,58.78 330.19,58.33 330.2,57.87C330.21,57.42 330.22,56.96 330.23,56.51C330.24,56.05 330.25,55.6 330.26,55.14C330.27,54.69 330.29,54.23 330.3,53.78C330.31,53.32 330.32,52.87 330.33,52.41C330.34,51.95 330.34,51.5 330.34,51.04C330.34,50.59 330.35,50.13 330.35,49.68C330.35,49.22 330.35,48.77 330.35,48.31C330.35,47.86 330.34,47.4 330.34,46.95C330.34,46.49 330.34,46.04 330.34,45.58C330.34,45.13 330.34,44.67 330.34,44.22C330.34,43.76 330.33,43.31 330.33,42.85C330.32,42.39 330.32,41.94 330.31,41.48C330.3,41.03 330.3,40.57 330.29,40.12C330.28,39.66 330.27,39.21 330.27,38.75C330.27,38.3 330.27,37.84 330.27,37.39C330.27,36.93 330.27,36.48 330.28,36.02C330.28,35.57 330.29,35.11 330.3,34.66C330.31,34.2 330.32,33.75 330.33,33.29C330.34,32.84 330.35,32.38 330.35,31.93C330.35,31.47 330.35,31.02 330.35,30.56C330.35,30.1 330.34,29.65 330.33,29.19C330.32,28.74 330.31,28.28 330.29,27.83C330.27,27.37 330.25,26.92 330.23,26.46C330.21,26.01 330.19,25.55 330.17,25.1C330.15,24.64 330.13,24.19 330.11,23.73C330.09,23.28 330.08,22.82 330.07,22.37Q330.06,21.91 330.03,21L329.97,21Q329.94,21.91 329.93,22.37C329.92,22.82 329.91,23.28 329.89,23.73C329.87,24.19 329.85,24.64 329.83,25.1C329.81,25.55 329.79,26.01 329.77,26.46C329.75,26.92 329.73,27.37 329.71,27.83C329.69,28.28 329.68,28.74 329.67,29.19C329.66,29.65 329.65,30.1 329.65,30.56C329.65,31.02 329.65,31.47 329.65,31.93C329.65,32.38 329.66,32.84 329.67,33.29C329.68,33.75 329.69,34.2 329.7,34.66C329.71,35.11 329.72,35.57 329.72,36.02C329.73,36.48 329.73,36.93 329.73,37.39C329.73,37.84 329.73,38.3 329.73,38.75C329.73,39.21 329.72,39.66 329.71,40.12C329.7,40.57 329.7,41.03 329.69,41.48C329.68,41.94 329.68,42.39 329.67,42.85C329.67,43.31 329.66,43.76 329.66,44.22C329.66,44.67 329.66,45.13 329.66,45.58C329.66,46.04 329.66,46.49 329.66,46.95C329.66,47.4 329.65,47.86 329.65,48.31C329.65,48.77 329.65,49.22 329.65,49.68C329.65,50.13 329.66,50.59 329.66,51.04C329.66,51.5 329.66,51.95 329.67,52.41C329.68,52.87 329.69,53.32 329.7,53.78C329.71,54.23 329.73,54.69 329.74,55.14C329.75,55.6 329.76,56.05 329.77,56.51C329.78,56.96 329.79,57.42 329.8,57.87C329.81,58.33 329.8,58.78 329.81,59.24C329.81,59.69 329.82,60.15 329.83,60.6C329.84,61.06 329.84,61.51 329.85,61.97C329.86,62.43 329.87,62.88 329.88,63.34C329.89,63.79 329.9,64.25 329.91,64.7C329.92,65.16 329.93,65.61 329.94,66.07C329.95,66.52 329.96,66.98 329.96,67.43C329.97,67.89 329.97,68.34 329.97,68.8C329.97,69.25 329.97,69.71 329.97,70.16C329.97,70.62 329.97,71.07 329.96,71.53C329.96,71.98 329.95,72.44 329.94,72.89C329.93,73.35 329.93,73.8 329.92,74.26C329.91,74.72 329.9,75.17 329.89,75.63C329.88,76.08 329.87,76.54 329.87,76.99C329.86,77.45 329.86,77.9 329.86,78.36C329.86,78.81 329.86,79.27 329.86,79.72C329.86,80.18 329.87,80.63 329.88,81.09C329.89,81.54 329.9,82 329.91,82.45C329.92,82.91 329.93,83.36 329.94,83.82C329.95,84.28 329.95,84.73 329.96,85.19C329.97,85.64 329.98,86.1 329.98,86.55C329.98,87.01 329.98,87.46 329.98,87.92C329.98,88.37 329.98,88.83 329.98,89.28C329.98,89.74 329.98,90.19 329.98,90.65C329.98,91.1 329.97,91.56 329.96,92.01C329.95,92.47 329.95,92.92 329.94,93.38C329.93,93.84 329.92,94.29 329.91,94.75C329.9,95.2 329.89,95.66 329.88,96.11C329.87,96.57 329.86,97.02 329.86,97.48C329.86,97.93 329.86,98.39 329.86,98.84C329.86,99.3 329.86,99.75 329.87,100.21C329.87,100.66 329.88,101.12 329.89,101.57C329.9,102.03 329.9,102.48 329.91,102.94C329.91,103.39 329.92,103.85 329.92,104.3C329.92,104.76 329.93,105.21 329.93,105.67C329.93,106.13 329.93,106.58 329.92,107.04C329.92,107.49 329.91,107.95 329.9,108.4C329.89,108.86 329.88,109.31 329.87,109.77C329.86,110.22 329.86,110.68 329.86,111.13C329.86,111.59 329.86,112.04 329.86,112.5C329.86,112.95 329.87,113.41 329.87,113.86C329.88,114.32 329.88,114.77 329.89,115.23C329.9,115.69 329.91,116.14 329.92,116.6C329.93,117.05 329.94,117.51 329.95,117.96C329.96,118.42 329.96,118.87 329.97,119.33C329.97,119.78 329.98,120.24 329.98,120.69C329.98,121.15 329.99,121.6 329.99,122.06C329.99,122.51 330,122.97 330,123.42C330,123.88 330,124.33 330,124.79C330,125.25 330,125.7 330,126.16C330,126.61 330,127.07 330,127.52C330,127.98 330,128.43 330,128.89C330,129.34 330,129.8 330,130.25C330,130.71 329.99,131.16 329.99,131.62C329.99,132.07 329.99,132.53 329.99,132.98C329.99,133.44 329.98,133.89 329.97,134.35C329.96,134.8 329.96,135.26 329.95,135.71C329.94,136.17 329.93,136.62 329.92,137.08C329.91,137.54 329.91,137.99 329.9,138.45C329.89,138.9 329.88,139.36 329.87,139.81C329.86,140.27 329.86,140.72 329.86,141.18C329.86,141.63 329.86,142.09 329.86,142.54C329.86,143 329.87,143.45 329.88,143.91C329.89,144.36 329.89,144.82 329.9,145.27C329.91,145.73 329.92,146.18 329.93,146.64C329.94,147.1 329.95,147.55 329.96,148.01C329.97,148.46 329.98,148.92 329.98,149.37C329.99,149.83 329.99,150.28 329.99,150.74C329.99,151.19 329.99,151.65 329.99,152.1C329.99,152.56 330,153.01 330,153.47C330,153.92 330,154.38 330,154.83C330,155.29 330,155.74 330,156.2C330,156.66 330,157.11 330,157.57C330,158.02 330,158.48 330,158.93C330,159.39 330,159.84 330,160.3C330,160.75 330,161.21 330,161.66C330,162.12 330,162.57 330,163.03C330,163.48 330,163.94 330,164.39C330,164.85 330,165.3 330,165.76C330,166.21 330,166.67 330,167.12C330,167.58 330,168.03 330,168.49C330,168.95 330,169.4 330,169.86C330,170.31 330,170.77 330,171.22C330,171.68 330,172.13 330,172.59C330,173.04 330,173.5 330,173.95C330,174.41 330,174.86 330,175.32C330,175.77 330,176.23 330,176.68C330,177.14 330,177.59 330,178.05C330,178.51 330,178.96 330,179.42C330,179.87 330,180.33 330,180.78C330,181.24 330,181.69 330,182.15C330,182.6 329.99,183.06 329.99,183.51C329.99,183.97 329.99,184.42 329.99,184.88C329.99,185.33 329.98,185.79 329.98,186.24C329.97,186.7 329.97,187.15 329.96,187.61C329.95,188.07 329.94,188.52 329.93,188.98C329.92,189.43 329.91,189.89 329.9,190.34C329.89,190.8 329.89,191.25 329.88,191.71C329.87,192.16 329.86,192.62 329.86,193.07C329.86,193.53 329.86,193.98 329.86,194.44C329.86,194.89 329.87,195.35 329.87,195.8C329.88,196.26 329.88,196.71 329.89,197.17C329.9,197.63 329.91,198.08 329.92,198.54C329.93,198.99 329.94,199.45 329.95,199.9C329.96,200.36 329.96,200.81 329.97,201.27C329.97,201.72 329.98,202.18 329.98,202.63C329.98,203.09 329.99,203.54 329.99,204C329.99,204.45 330,204.91 330,205.36C330,205.82 330,206.27 330,206.73C330,207.18 330,207.64 330,208.09C330,208.55 330,209 330,209.46C330,209.92 330,210.37 330,210.83C330,211.28 330,211.74 330,212.19C330,212.65 329.99,213.1 329.99,213.56C329.99,214.01 329.98,214.47 329.98,214.92C329.97,215.38 329.97,215.83 329.96,216.29C329.95,216.74 329.94,217.2 329.93,217.65C329.92,218.11 329.9,218.56 329.88,219.02C329.86,219.48 329.85,219.93 329.83,220.39C329.81,220.84 329.79,221.3 329.77,221.75C329.75,222.21 329.74,222.66 329.72,223.12C329.71,223.57 329.69,224.03 329.68,224.48C329.67,224.94 329.65,225.39 329.65,225.85C329.65,226.3 329.65,226.76 329.65,227.21C329.65,227.67 329.66,228.12 329.67,228.58C329.68,229.04 329.7,229.49 329.72,229.95C329.74,230.4 329.75,230.86 329.77,231.31C329.79,231.77 329.81,232.22 329.83,232.68C329.85,233.13 329.87,233.59 329.89,234.04C329.91,234.5 329.92,234.95 329.93,235.41C329.94,235.86 329.95,236.32 329.96,236.77C329.97,237.23 329.97,237.68 329.98,238.14C329.98,238.59 329.99,239.05 329.99,239.5C329.99,239.96 330,240.41 330,240.87C330,241.33 330,241.78 330,242.24C330,242.69 330,243.15 330,243.6C330,244.06 330,244.51 330,244.97C330,245.42 329.99,245.88 329.99,246.33C329.99,246.79 329.99,247.24 329.99,247.7C329.99,248.15 329.98,248.61 329.98,249.06C329.97,249.52 329.97,249.97 329.96,250.43C329.95,250.89 329.94,251.34 329.93,251.8C329.92,252.25 329.91,252.71 329.9,253.16C329.89,253.62 329.89,254.07 329.88,254.53C329.87,254.98 329.86,255.44 329.86,255.89C329.86,256.35 329.86,256.8 329.86,257.26C329.86,257.71 329.86,258.17 329.87,258.62C329.88,259.08 329.89,259.53 329.9,259.99C329.91,260.45 329.91,260.9 329.92,261.36C329.93,261.81 329.94,262.27 329.95,262.72C329.96,263.18 329.96,263.63 329.97,264.09C329.97,264.54 329.98,265 329.98,265.45C329.98,265.91 329.99,266.36 329.99,266.82C329.99,267.27 330,267.73 330,268.18C330,268.64 330,269.09 330,269.55C330,270 330,270.46 330,270.91C330,271.37 330,271.82 330,272.28C330,272.74 329.99,273.19 329.99,273.65C329.99,274.1 329.99,274.56 329.98,275.01C329.97,275.47 329.96,275.92 329.95,276.38C329.94,276.83 329.93,277.29 329.92,277.74C329.91,278.2 329.89,278.65 329.87,279.11C329.85,279.56 329.82,280.02 329.8,280.47C329.78,280.93 329.76,281.38 329.74,281.84C329.72,282.3 329.7,282.75 329.68,283.21C329.66,283.66 329.64,284.12 329.63,284.57C329.62,285.03 329.6,285.48 329.6,285.94C329.6,286.39 329.6,286.85 329.6,287.3C329.6,287.76 329.6,288.21 329.61,288.67C329.62,289.12 329.63,289.58 329.64,290.03C329.65,290.49 329.66,290.94 329.67,291.4C329.68,291.86 329.7,292.31 329.71,292.77C329.72,293.22 329.73,293.68 329.74,294.13C329.75,294.59 329.75,295.04 329.75,295.5C329.75,295.95 329.76,296.41 329.76,296.86C329.76,297.32 329.76,297.77 329.75,298.23C329.75,298.68 329.74,299.14 329.73,299.59C329.72,300.05 329.72,300.5 329.71,300.96C329.7,301.41 329.7,301.87 329.69,302.32C329.68,302.78 329.67,303.23 329.67,303.69C329.67,304.15 329.67,304.6 329.67,305.06C329.67,305.51 329.66,305.97 329.66,306.42C329.65,306.88 329.65,307.33 329.64,307.79C329.63,308.24 329.62,308.7 329.59,309.15C329.56,309.61 329.52,310.07 329.47,310.52C329.41,310.98 329.35,311.43 329.26,311.88C329.17,312.34 329.06,312.8 328.92,313.25C328.78,313.71 328.61,314.17 328.42,314.62C328.22,315.08 328,315.53 327.75,315.98C327.49,316.44 327.19,316.91 326.86,317.35C326.51,317.82 326.12,318.27 325.68,318.71C325.21,319.18 324.69,319.64 324.12,320.08C323.5,320.56 322.81,321 322.08,321.44C321.28,321.92 320.39,322.37 319.47,322.81C318.48,323.28 317.42,323.74 316.34,324.18C315.21,324.65 314,325.09 312.82,325.54C311.62,326 310.39,326.45 309.21,326.91C308.06,327.36 306.9,327.79 305.84,328.27C304.87,328.71 303.9,329.15 303.09,329.64C302.39,330.07 301.69,330.49 301.24,331C300.87,331.42 300.54,331.9 300.47,332.37C300.4,332.81 300.55,333.3 300.76,333.73C301,334.22 301.47,334.66 301.92,335.1C302.41,335.58 303.03,336.02 303.6,336.47C304.17,336.93 304.8,337.36 305.32,337.83C305.8,338.27 306.33,338.71 306.62,339.2C306.88,339.63 307.11,340.11 307.07,340.56C307.03,341.02 306.73,341.52 306.36,341.93C305.89,342.45 305.11,342.87 304.32,343.29C303.36,343.8 302.18,344.23 300.98,344.66C299.62,345.15 298.09,345.59 296.56,346.03C294.93,346.5 293.19,346.94 291.49,347.39C289.77,347.85 287.98,348.29 286.3,348.76C284.7,349.2 283.08,349.63 281.64,350.12C280.37,350.55 279.07,350.97 278.09,351.49C277.31,351.9 276.43,352.31 276.14,352.85C275.92,353.26 275.89,353.81 276.1,354.22C276.37,354.76 277.26,355.18 278.05,355.59C279.07,356.12 280.46,356.52 281.83,356.95C283.42,357.44 285.25,357.88 287.07,358.32C289.04,358.79 291.16,359.23 293.25,359.68C295.39,360.14 297.61,360.59 299.76,361.05C301.87,361.5 304.01,361.94 306.04,362.41C307.97,362.85 309.88,363.31 311.68,363.78C313.34,364.22 314.95,364.66 316.44,365.14C317.79,365.57 319.08,366.02 320.26,366.51C321.31,366.94 322.31,367.4 323.2,367.88C324,368.31 324.73,368.76 325.38,369.24C325.97,369.67 326.5,370.13 326.96,370.61C327.38,371.05 327.75,371.5 328.06,371.97C328.35,372.41 328.59,372.88 328.79,373.34C328.98,373.79 329.13,374.24 329.25,374.7C329.37,375.15 329.44,375.61 329.51,376.07C329.58,376.53 329.61,376.98 329.65,377.44C329.68,377.89 329.7,378.35 329.72,378.8C329.74,379.26 329.75,379.71 329.76,380.17C329.77,380.62 329.77,381.08 329.78,381.53C329.79,381.99 329.8,382.44 329.81,382.9C329.82,383.35 329.83,383.81 329.84,384.26C329.85,384.72 329.86,385.17 329.87,385.63C329.88,386.09 329.9,386.54 329.91,387C329.92,387.45 329.93,387.91 329.94,388.36C329.95,388.82 329.95,389.27 329.96,389.73Q329.97,390.18 329.98,391.09Z" style="vector-effect: non-scaling-stroke; stroke-width: 2px; stroke: rgb(0, 0, 0); stroke-opacity: 1; fill: rgb(99, 110, 250); fill-opacity: 0.2;"/><path class="box" d="M316.52,349.27H343.48M316.52,355.34H343.48V334.49H316.52ZM330,355.34V382.87M330,334.49V304.33" style="vector-effect: non-scaling-stroke; stroke-width: 2px; stroke: rgb(0, 0, 0); stroke-opacity: 1; fill: rgb(99, 110, 250); fill-opacity: 0.2;"/><g class="points"><path class="point" transform="translate(330,300.95)" d="M3,0A3,3 0 1,1 0,-3A3,3 0 0,1 3,0Z" style="opacity: 1; stroke-width: 0px; fill: rgb(0, 0, 0); fill-opacity: 1;"/><path class="point" transform="translate(330,293.4)" d="M3,0A3,3 0 1,1 0,-3A3,3 0 0,1 3,0Z" style="opacity: 1; stroke-width: 0px; fill: rgb(0, 0, 0); fill-opacity: 1;"/><path class="point" transform="translate(330,288.73)" d="M3,0A3,3 0 1,1 0,-3A3,3 0 0,1 3,0Z" style="opacity: 1; stroke-width: 0px; fill: rgb(0, 0, 0); fill-opacity: 1;"/><path class="point" transform="translate(330,285.74)" d="M3,0A3,3 0 1,1 0,-3A3,3 0 0,1 3,0Z" style="opacity: 1; stroke-width: 0px; fill: rgb(0, 0, 0); fill-opacity: 1;"/><path class="point" transform="translate(330,283.23)" d="M3,0A3,3 0 1,1 0,-3A3,3 0 0,1 3,0Z" style="opacity: 1; stroke-width: 0px; fill: rgb(0, 0, 0); fill-opacity: 1;"/><path class="point" transform="translate(330,256.75)" d="M3,0A3,3 0 1,1 0,-3A3,3 0 0,1 3,0Z" style="opacity: 1; stroke-width: 0px; fill: rgb(0, 0, 0); fill-opacity: 1;"/><path class="point" transform="translate(330,229.54)" d="M3,0A3,3 0 1,1 0,-3A3,3 0 0,1 3,0Z" style="opacity: 1; stroke-width: 0px; fill: rgb(0, 0, 0); fill-opacity: 1;"/><path class="point" transform="translate(330,226.76)" d="M3,0A3,3 0 1,1 0,-3A3,3 0 0,1 3,0Z" style="opacity: 1; stroke-width: 0px; fill: rgb(0, 0, 0); fill-opacity: 1;"/><path class="point" transform="translate(330,223.09)" d="M3,0A3,3 0 1,1 0,-3A3,3 0 0,1 3,0Z" style="opacity: 1; stroke-width: 0px; fill: rgb(0, 0, 0); fill-opacity: 1;"/><path class="point" transform="translate(330,193.98)" d="M3,0A3,3 0 1,1 0,-3A3,3 0 0,1 3,0Z" style="opacity: 1; stroke-width: 0px; fill: rgb(0, 0, 0); fill-opacity: 1;"/><path class="point" transform="translate(330,141.71)" d="M3,0A3,3 0 1,1 0,-3A3,3 0 0,1 3,0Z" style="opacity: 1; stroke-width: 0px; fill: rgb(0, 0, 0); fill-opacity: 1;"/><path class="point" transform="translate(330,112.05)" d="M3,0A3,3 0 1,1 0,-3A3,3 0 0,1 3,0Z" style="opacity: 1; stroke-width: 0px; fill: rgb(0, 0, 0); fill-opacity: 1;"/><path class="point" transform="translate(330,98.58)" d="M3,0A3,3 0 1,1 0,-3A3,3 0 0,1 3,0Z" style="opacity: 1; stroke-width: 0px; fill: rgb(0, 0, 0); fill-opacity: 1;"/><path class="point" transform="translate(330,78.61)" d="M3,0A3,3 0 1,1 0,-3A3,3 0 0,1 3,0Z" style="opacity: 1; stroke-width: 0px; fill: rgb(0, 0, 0); fill-opacity: 1;"/><path class="point" transform="translate(330,60.81)" d="M3,0A3,3 0 1,1 0,-3A3,3 0 0,1 3,0Z" style="opacity: 1; stroke-width: 0px; fill: rgb(0, 0, 0); fill-opacity: 1;"/><path class="point" transform="translate(330,52.2)" d="M3,0A3,3 0 1,1 0,-3A3,3 0 0,1 3,0Z" style="opacity: 1; stroke-width: 0px; fill: rgb(0, 0, 0); fill-opacity: 1;"/><path class="point" transform="translate(330,51.27)" d="M3,0A3,3 0 1,1 0,-3A3,3 0 0,1 3,0Z" style="opacity: 1; stroke-width: 0px; fill: rgb(0, 0, 0); fill-opacity: 1;"/><path class="point" transform="translate(330,44.4)" d="M3,0A3,3 0 1,1 0,-3A3,3 0 0,1 3,0Z" style="opacity: 1; stroke-width: 0px; fill: rgb(0, 0, 0); fill-opacity: 1;"/><path class="point" transform="translate(330,42.52)" d="M3,0A3,3 0 1,1 0,-3A3,3 0 0,1 3,0Z" style="opacity: 1; stroke-width: 0px; fill: rgb(0, 0, 0); fill-opacity: 1;"/><path class="point" transform="translate(330,35.25)" d="M3,0A3,3 0 1,1 0,-3A3,3 0 0,1 3,0Z" style="opacity: 1; stroke-width: 0px; fill: rgb(0, 0, 0); fill-opacity: 1;"/><path class="point" transform="translate(330,29.67)" d="M3,0A3,3 0 1,1 0,-3A3,3 0 0,1 3,0Z" style="opacity: 1; stroke-width: 0px; fill: rgb(0, 0, 0); fill-opacity: 1;"/><path class="point" transform="translate(330,29.22)" d="M3,0A3,3 0 1,1 0,-3A3,3 0 0,1 3,0Z" style="opacity: 1; stroke-width: 0px; fill: rgb(0, 0, 0); fill-opacity: 1;"/></g></g></g></g><g class="overplot"/><path class="xlines-above crisp" d="M0,0" style="fill: none;"/><path class="ylines-above crisp" d="M0,0" style="fill: none;"/><g class="overlines-above"/><g class="xaxislayer-above"><g class="xtick"><text text-anchor="middle" x="0" y="533" transform="translate(190,0)" style="font-family: 'Open Sans', verdana, arial, sans-serif; font-size: 12px; fill: rgb(42, 63, 95); fill-opacity: 1; white-space: pre; opacity: 1;">P1000-US</text></g><g class="xtick"><text text-anchor="middle" x="0" y="533" transform="translate(410,0)" style="font-family: 'Open Sans', verdana, arial, sans-serif; font-size: 12px; fill: rgb(42, 63, 95); fill-opacity: 1; white-space: pre; opacity: 1;">MUTO-INTL</text></g></g><g class="yaxislayer-above"><g class="ytick"><text text-anchor="end" x="79" y="4.199999999999999" transform="translate(0,514.49)" style="font-family: 'Open Sans', verdana, arial, sans-serif; font-size: 12px; fill: rgb(42, 63, 95); fill-opacity: 1; white-space: pre; opacity: 1;">0</text></g><g class="ytick"><text text-anchor="end" x="79" y="4.199999999999999" style="font-family: 'Open Sans', verdana, arial, sans-serif; font-size: 12px; fill: rgb(42, 63, 95); fill-opacity: 1; white-space: pre; opacity: 1;" transform="translate(0,431.28)">100M</text></g><g class="ytick"><text text-anchor="end" x="79" y="4.199999999999999" style="font-family: 'Open Sans', verdana, arial, sans-serif; font-size: 12px; fill: rgb(42, 63, 95); fill-opacity: 1; white-space: pre; opacity: 1;" transform="translate(0,348.07)">200M</text></g><g class="ytick"><text text-anchor="end" x="79" y="4.199999999999999" style="font-family: 'Open Sans', verdana, arial, sans-serif; font-size: 12px; fill: rgb(42, 63, 95); fill-opacity: 1; white-space: pre; opacity: 1;" transform="translate(0,264.86)">300M</text></g><g class="ytick"><text text-anchor="end" x="79" y="4.199999999999999" style="font-family: 'Open Sans', verdana, arial, sans-serif; font-size: 12px; fill: rgb(42, 63, 95); fill-opacity: 1; white-space: pre; opacity: 1;" transform="translate(0,181.64)">400M</text></g></g><g class="overaxes-above"/></g></g><g class="polarlayer"/><g class="smithlayer"/><g class="ternarylayer"/><g class="geolayer"/><g class="funnelarealayer"/><g class="pielayer"/><g class="iciclelayer"/><g class="treemaplayer"/><g class="sunburstlayer"/><g class="glimages"/><defs id="topdefs-2e2207"><g class="clips"/></defs><g class="layer-above"><g class="imagelayer"/><g class="shapelayer"/></g><g class="infolayer"><g class="g-gtitle"><text class="gtitle" x="30" y="50" text-anchor="start" dy="0em" style="font-family: 'Open Sans', verdana, arial, sans-serif; font-size: 20px; fill: rgb(42, 63, 95); opacity: 1; font-weight: normal; white-space: pre;">Comparing processing times bwa for projects</text></g><g class="g-xtitle"/><g class="g-ytitle"><text class="ytitle" transform="rotate(-90,21.200000000000003,310)" x="21.200000000000003" y="310" text-anchor="middle" style="font-family: 'Open Sans', verdana, arial, sans-serif; font-size: 14px; fill: rgb(42, 63, 95); opacity: 1; font-weight: normal; white-space: pre;">ReadsAlignedPerHour</text></g></g></svg>