<svg class="main-svg" xmlns="http://www.w3.org/2000/svg" xmlns:xlink="http://www.w3.org/1999/xlink" width="600" height="600" style="" viewBox="0 0 600 600"><rect x="0" y="0" width="600" height="600" style="fill: rgb(255, 255, 255); fill-opacity: 1;"/><defs id="defs-07d6b1"><g class="clips"><clipPath id="clip07d6b1xyplot" class="plotclip"><rect width="440" height="420"/></clipPath><clipPath class="axesclip" id="clip07d6b1x"><rect x="80" y="0" width="440" height="600"/></clipPath><clipPath class="axesclip" id="clip07d6b1y"><rect x="0" y="100" width="600" height="420"/></clipPath><clipPath class="axesclip" id="clip07d6b1xy"><rect x="80" y="100" width="440" height="420"/></clipPath></g><g class="gradients"/><g class="patterns"/></defs><g class="bglayer"><rect class="bg" x="80" y="100" width="440" height="420" style="fill: rgb(229, 236, 246); fill-opacity: 1; stroke-width: 0;"/></g><g class="layer-below"><g class="imagelayer"/><g class="shapelayer"/></g><g class="cartesianlayer"><g class="subplot xy"><g class="layer-subplot"><g class="shapelayer"/><g class="imagelayer"/></g><g class="minor-gridlayer"><g class="x"/><g class="y"/></g><g class="gridlayer"><g class="x"/><g class="y"><path class="ygrid crisp" transform="translate(0,446.77)" d="M80,0h440" style="stroke: rgb(255, 255, 255); stroke-opacity: 1; stroke-width: 1px;"/><path class="ygrid crisp" transform="translate(0,393.04)" d="M80,0h440" style="stroke: rgb(255, 255, 255); stroke-opacity: 1; stroke-width: 1px;"/><path class="ygrid crisp" transform="translate(0,339.3)" d="M80,0h440" style="stroke: rgb(255, 255, 255); stroke-opacity: 1; stroke-width: 1px;"/><path class="ygrid crisp" transform="translate(0,285.57)" d="M80,0h440" style="stroke: rgb(255, 255, 255); stroke-opacity: 1; stroke-width: 1px;"/><path class="ygrid crisp" transform="translate(0,231.84)" d="M80,0h440" style="stroke: rgb(255, 255, 255); stroke-opacity: 1; stroke-width: 1px;"/><path class="ygrid crisp" transform="translate(0,178.11)" d="M80,0h440" style="stroke: rgb(255, 255, 255); stroke-opacity: 1; stroke-width: 1px;"/><path class="ygrid crisp" transform="translate(0,124.38)" d="M80,0h440" style="stroke: rgb(255, 255, 255); stroke-opacity: 1; stroke-width: 1px;"/></g></g><g class="zerolinelayer"><path class="yzl zl crisp" transform="translate(0,500.5)" d="M80,0h440" style="stroke: rgb(255, 255, 255); stroke-opacity: 1; stroke-width: 2px;"/></g><path class="xlines-below"/><path class="ylines-below"/><g class="overlines-below"/><g class="xaxislayer-below"/><g class="yaxislayer-below"/><g class="overaxes-below"/><g class="plot" transform="translate(80,100)" clip-path="url(#clip07d6b1xyplot)"><g class="violinlayer mlayer"><g class="trace violins" style="opacity: 1;"><path class="violin" d="M111.37,395.82Q112.27,394.66 112.89,394.14C113.63,393.52 114.55,392.97 115.58,392.45C116.81,391.83 118.27,391.29 119.82,390.76C121.64,390.14 123.71,389.61 125.84,389.07C128.22,388.47 130.83,387.93 133.43,387.38C136.17,386.8 139.08,386.26 141.87,385.69C144.61,385.13 147.44,384.6 150,384.01C152.31,383.47 154.66,382.96 156.56,382.32C158.08,381.81 159.68,381.34 160.57,380.63C161.18,380.14 161.76,379.5 161.76,378.94C161.76,378.38 161.11,377.77 160.58,377.25C159.93,376.62 158.9,376.11 158.01,375.56C157.08,374.98 156.02,374.46 155.13,373.87C154.31,373.33 153.44,372.8 152.83,372.19C152.3,371.66 151.8,371.1 151.59,370.5C151.4,369.96 151.37,369.35 151.51,368.81C151.66,368.22 152.07,367.65 152.51,367.12C153,366.52 153.69,365.97 154.38,365.43C155.13,364.84 156,364.29 156.85,363.74C157.72,363.17 158.68,362.63 159.55,362.06C160.4,361.51 161.3,360.97 162.01,360.37C162.64,359.84 163.35,359.3 163.65,358.68C163.91,358.16 164.06,357.52 163.9,356.99C163.71,356.38 163.03,355.81 162.35,355.3C161.46,354.64 160.14,354.13 158.82,353.61C157.25,352.99 155.37,352.47 153.49,351.93C151.4,351.34 149.1,350.79 146.83,350.24C144.46,349.66 141.98,349.12 139.57,348.55C137.19,347.99 134.76,347.44 132.47,346.86C130.3,346.31 128.15,345.76 126.17,345.17C124.36,344.63 122.62,344.08 121.04,343.48C119.64,342.95 118.32,342.41 117.16,341.8C116.15,341.27 115.21,340.71 114.42,340.11C113.72,339.58 113.11,339.01 112.6,338.42C112.14,337.88 111.75,337.31 111.44,336.73C111.15,336.18 110.94,335.61 110.76,335.04Q110.58,334.48 110.37,333.35L109.63,333.35Q109.42,334.48 109.24,335.04C109.06,335.61 108.85,336.18 108.56,336.73C108.25,337.31 107.86,337.88 107.4,338.42C106.89,339.01 106.28,339.58 105.58,340.11C104.79,340.71 103.85,341.27 102.84,341.8C101.68,342.41 100.36,342.95 98.96,343.48C97.38,344.08 95.64,344.63 93.83,345.17C91.85,345.76 89.7,346.31 87.53,346.86C85.24,347.44 82.81,347.99 80.43,348.55C78.02,349.12 75.54,349.66 73.17,350.24C70.9,350.79 68.6,351.34 66.51,351.93C64.63,352.47 62.75,352.99 61.18,353.61C59.86,354.13 58.54,354.64 57.65,355.3C56.97,355.81 56.29,356.38 56.1,356.99C55.94,357.52 56.09,358.16 56.35,358.68C56.65,359.3 57.36,359.84 57.99,360.37C58.7,360.97 59.6,361.51 60.45,362.06C61.32,362.63 62.28,363.17 63.15,363.74C64,364.29 64.87,364.84 65.62,365.43C66.31,365.97 67,366.52 67.49,367.12C67.93,367.65 68.34,368.22 68.49,368.81C68.63,369.35 68.6,369.96 68.41,370.5C68.2,371.1 67.7,371.66 67.17,372.19C66.56,372.8 65.69,373.33 64.87,373.87C63.98,374.46 62.92,374.98 61.99,375.56C61.1,376.11 60.07,376.62 59.42,377.25C58.89,377.77 58.24,378.38 58.24,378.94C58.24,379.5 58.82,380.14 59.43,380.63C60.32,381.34 61.92,381.81 63.44,382.32C65.34,382.96 67.69,383.47 70,384.01C72.56,384.6 75.39,385.13 78.13,385.69C80.92,386.26 83.83,386.8 86.57,387.38C89.17,387.93 91.78,388.47 94.16,389.07C96.29,389.61 98.36,390.14 100.18,390.76C101.73,391.29 103.19,391.83 104.42,392.45C105.45,392.97 106.37,393.52 107.11,394.14Q107.73,394.66 108.63,395.82Z" style="vector-effect: non-scaling-stroke; stroke-width: 2px; stroke: rgb(0, 0, 0); stroke-opacity: 1; fill: rgb(99, 110, 250); fill-opacity: 0.2;"/><path class="box" d="M96.53,366.73H123.48M96.53,378.76H123.48V356.38H96.53ZM110,378.76V385.43M110,356.38V343.75" style="vector-effect: non-scaling-stroke; stroke-width: 2px; stroke: rgb(0, 0, 0); stroke-opacity: 1; fill: rgb(99, 110, 250); fill-opacity: 0.2;"/><g class="points"/></g><g class="trace violins" style="opacity: 1;"><path class="violin" d="M330.02,399Q330.03,398.19 330.03,397.79C330.04,397.39 330.04,396.98 330.05,396.58C330.06,396.18 330.06,395.77 330.07,395.37C330.08,394.96 330.09,394.56 330.1,394.15C330.11,393.75 330.11,393.34 330.11,392.94C330.11,392.54 330.12,392.13 330.12,391.73C330.12,391.33 330.11,390.92 330.11,390.52C330.11,390.12 330.11,389.71 330.1,389.31C330.09,388.91 330.08,388.5 330.07,388.1C330.06,387.69 330.06,387.29 330.05,386.88C330.04,386.48 330.04,386.07 330.03,385.67C330.03,385.27 330.02,384.86 330.02,384.46C330.02,384.06 330.02,383.65 330.02,383.25C330.02,382.85 330.02,382.44 330.03,382.04C330.04,381.64 330.05,381.23 330.06,380.83C330.07,380.43 330.08,380.02 330.1,379.62C330.12,379.21 330.14,378.81 330.16,378.4C330.18,378 330.21,377.59 330.24,377.19C330.27,376.79 330.3,376.38 330.33,375.98C330.36,375.58 330.39,375.17 330.42,374.77C330.45,374.37 330.48,373.96 330.52,373.56C330.56,373.16 330.6,372.75 330.64,372.35C330.69,371.94 330.73,371.53 330.79,371.13C330.85,370.72 330.91,370.32 331.01,369.92C331.11,369.51 331.22,369.11 331.37,368.71C331.52,368.3 331.71,367.89 331.93,367.5C332.16,367.09 332.43,366.68 332.74,366.29C333.07,365.87 333.45,365.47 333.87,365.08C334.32,364.66 334.81,364.26 335.34,363.87C335.91,363.45 336.53,363.04 337.19,362.65C337.89,362.23 338.65,361.83 339.44,361.44C340.29,361.02 341.18,360.62 342.12,360.23C343.13,359.81 344.19,359.41 345.3,359.02C346.48,358.6 347.73,358.2 349.01,357.81C350.37,357.39 351.8,357 353.25,356.6C354.76,356.19 356.33,355.78 357.9,355.38C359.5,354.97 361.15,354.57 362.76,354.17C364.36,353.77 365.98,353.37 367.55,352.96C369.07,352.56 370.58,352.17 372.02,351.75C373.38,351.36 374.71,350.96 375.95,350.54C377.1,350.15 378.21,349.76 379.22,349.33C380.12,348.95 380.99,348.56 381.71,348.12C382.33,347.74 382.95,347.36 383.32,346.9C383.62,346.53 383.9,346.09 383.9,345.69C383.9,345.29 383.63,344.84 383.31,344.48C382.9,344.01 382.19,343.64 381.48,343.27C380.62,342.82 379.56,342.44 378.48,342.06C377.26,341.63 375.89,341.24 374.51,340.85C373.03,340.43 371.46,340.03 369.89,339.63C368.27,339.22 366.59,338.82 364.94,338.42C363.28,338.02 361.6,337.62 359.96,337.21C358.34,336.81 356.73,336.41 355.16,336C353.65,335.6 352.15,335.2 350.71,334.79C349.33,334.4 347.98,334 346.68,333.58C345.46,333.19 344.27,332.79 343.14,332.37C342.08,331.98 341.06,331.57 340.1,331.15C339.21,330.76 338.35,330.36 337.55,329.94C336.82,329.55 336.12,329.15 335.48,328.73C334.9,328.34 334.35,327.94 333.86,327.52C333.41,327.13 332.99,326.73 332.62,326.31C332.28,325.92 331.97,325.51 331.71,325.1C331.46,324.7 331.24,324.29 331.06,323.88C330.88,323.48 330.75,323.08 330.63,322.67C330.51,322.27 330.43,321.86 330.36,321.46C330.29,321.06 330.23,320.65 330.19,320.25C330.15,319.85 330.12,319.44 330.1,319.04C330.08,318.64 330.08,318.23 330.07,317.83C330.06,317.43 330.06,317.02 330.06,316.62C330.06,316.21 330.06,315.81 330.07,315.4C330.07,315 330.08,314.59 330.09,314.19C330.1,313.79 330.1,313.38 330.11,312.98C330.11,312.58 330.12,312.17 330.12,311.77C330.12,311.37 330.12,310.96 330.12,310.56C330.12,310.16 330.12,309.75 330.12,309.35C330.12,308.94 330.11,308.54 330.11,308.13C330.11,307.73 330.11,307.32 330.11,306.92C330.11,306.52 330.12,306.11 330.13,305.71C330.14,305.31 330.16,304.9 330.17,304.5C330.18,304.1 330.19,303.69 330.21,303.29C330.23,302.89 330.25,302.48 330.27,302.08C330.29,301.68 330.31,301.27 330.32,300.87C330.34,300.46 330.35,300.06 330.36,299.65C330.37,299.25 330.38,298.84 330.39,298.44C330.4,298.04 330.41,297.63 330.41,297.23C330.41,296.83 330.41,296.42 330.41,296.02C330.41,295.62 330.4,295.21 330.39,294.81C330.38,294.41 330.37,294 330.36,293.6C330.35,293.19 330.33,292.79 330.32,292.38C330.31,291.98 330.29,291.57 330.28,291.17C330.27,290.77 330.25,290.36 330.24,289.96C330.23,289.56 330.22,289.15 330.21,288.75C330.2,288.35 330.2,287.94 330.19,287.54C330.18,287.14 330.18,286.73 330.17,286.33C330.16,285.93 330.15,285.52 330.14,285.12C330.13,284.71 330.13,284.31 330.12,283.9C330.11,283.5 330.1,283.09 330.09,282.69C330.08,282.29 330.07,281.88 330.06,281.48C330.05,281.08 330.05,280.67 330.04,280.27C330.03,279.87 330.03,279.46 330.02,279.06C330.02,278.66 330.01,278.25 330.01,277.85C330.01,277.44 330.01,277.04 330.01,276.63C330.01,276.23 330,275.82 330,275.42C330,275.02 330,274.61 330,274.21C330,273.81 330,273.4 330,273C330,272.6 330,272.19 330,271.79C330,271.39 330,270.98 330,270.58C330,270.18 330,269.77 330,269.37C330,268.96 330,268.56 330,268.15C330,267.75 330,267.34 330,266.94C330,266.54 330,266.13 330,265.73C330,265.33 330.01,264.92 330.01,264.52C330.01,264.12 330.02,263.71 330.02,263.31C330.03,262.91 330.03,262.5 330.04,262.1C330.05,261.69 330.06,261.29 330.07,260.88C330.08,260.48 330.1,260.07 330.11,259.67C330.13,259.27 330.14,258.86 330.16,258.46C330.18,258.06 330.2,257.65 330.22,257.25C330.24,256.85 330.25,256.44 330.27,256.04C330.28,255.64 330.3,255.23 330.31,254.83C330.32,254.43 330.33,254.02 330.34,253.62C330.35,253.21 330.35,252.81 330.35,252.4C330.35,252 330.34,251.59 330.34,251.19C330.34,250.79 330.33,250.38 330.33,249.98C330.32,249.58 330.32,249.17 330.31,248.77C330.3,248.37 330.3,247.96 330.29,247.56C330.28,247.16 330.27,246.75 330.26,246.35C330.25,245.94 330.25,245.54 330.24,245.13C330.23,244.73 330.22,244.32 330.21,243.92C330.2,243.52 330.19,243.11 330.18,242.71C330.17,242.31 330.17,241.9 330.16,241.5C330.15,241.1 330.15,240.69 330.14,240.29C330.13,239.89 330.12,239.48 330.12,239.08C330.12,238.68 330.12,238.27 330.12,237.87C330.12,237.46 330.12,237.06 330.12,236.65C330.12,236.25 330.13,235.84 330.13,235.44C330.13,235.04 330.13,234.63 330.13,234.23C330.13,233.83 330.12,233.42 330.12,233.02C330.11,232.62 330.11,232.21 330.1,231.81C330.09,231.41 330.09,231 330.08,230.6C330.07,230.19 330.06,229.79 330.05,229.38C330.04,228.98 330.04,228.57 330.03,228.17C330.03,227.77 330.02,227.36 330.02,226.96C330.02,226.56 330.02,226.15 330.02,225.75C330.02,225.35 330.03,224.94 330.03,224.54C330.03,224.14 330.04,223.73 330.04,223.33C330.05,222.93 330.05,222.52 330.06,222.12C330.07,221.71 330.08,221.31 330.09,220.9C330.1,220.5 330.1,220.09 330.11,219.69C330.11,219.29 330.12,218.88 330.12,218.48C330.12,218.08 330.12,217.67 330.12,217.27C330.12,216.87 330.11,216.46 330.11,216.06C330.1,215.66 330.1,215.25 330.09,214.85C330.08,214.44 330.08,214.04 330.07,213.63C330.07,213.23 330.06,212.82 330.06,212.42C330.06,212.02 330.07,211.61 330.07,211.21C330.07,210.81 330.08,210.4 330.08,210C330.09,209.6 330.09,209.19 330.1,208.79C330.1,208.39 330.11,207.98 330.11,207.58C330.11,207.18 330.12,206.77 330.12,206.37C330.12,205.96 330.12,205.56 330.12,205.15C330.12,204.75 330.11,204.34 330.1,203.94C330.09,203.54 330.09,203.13 330.08,202.73C330.08,202.33 330.07,201.92 330.07,201.52C330.07,201.12 330.06,200.71 330.06,200.31C330.06,199.91 330.06,199.5 330.06,199.1C330.06,198.69 330.06,198.29 330.07,197.88C330.07,197.48 330.08,197.07 330.09,196.67C330.1,196.27 330.1,195.86 330.11,195.46C330.11,195.06 330.12,194.65 330.12,194.25C330.12,193.85 330.12,193.44 330.12,193.04C330.12,192.64 330.11,192.23 330.1,191.83C330.09,191.43 330.09,191.02 330.08,190.62C330.07,190.21 330.07,189.81 330.06,189.4C330.05,189 330.05,188.59 330.04,188.19C330.03,187.79 330.03,187.38 330.02,186.98C330.02,186.58 330.01,186.17 330.01,185.77C330.01,185.37 330.01,184.96 330.01,184.56C330.01,184.16 330,183.75 330,183.35C330,182.94 330,182.54 330,182.13C330,181.73 330.01,181.32 330.01,180.92C330.01,180.52 330.02,180.11 330.02,179.71C330.02,179.31 330.03,178.9 330.03,178.5C330.04,178.1 330.04,177.69 330.05,177.29C330.06,176.89 330.07,176.48 330.08,176.08C330.09,175.68 330.1,175.27 330.1,174.87C330.11,174.46 330.11,174.06 330.11,173.65C330.11,173.25 330.12,172.84 330.12,172.44C330.12,172.04 330.11,171.63 330.11,171.23C330.1,170.83 330.1,170.42 330.09,170.02C330.08,169.62 330.08,169.21 330.07,168.81C330.06,168.41 330.06,168 330.05,167.6C330.04,167.19 330.04,166.79 330.03,166.38C330.02,165.98 330.01,165.57 330.01,165.17C330.01,164.77 330.01,164.36 330.01,163.96C330.01,163.56 330,163.15 330,162.75C330,162.35 330,161.94 330,161.54C330,161.14 330,160.73 330,160.33C330,159.93 330,159.52 330,159.12C330,158.71 330,158.31 330,157.9C330,157.5 330,157.09 330,156.69C330,156.29 330,155.88 330,155.48C330,155.08 330,154.67 330,154.27C330,153.87 330,153.46 330,153.06C330,152.66 330,152.25 330,151.85C330,151.44 330,151.04 330,150.63C330,150.23 330,149.82 330,149.42C330,149.02 330,148.61 330,148.21C330,147.81 330,147.4 330,147C330,146.6 330,146.19 330,145.79C330,145.39 330,144.98 330,144.58C330,144.18 330,143.77 330,143.37C330,142.96 330,142.56 330,142.15C330,141.75 330,141.34 330,140.94C330,140.54 330,140.13 330,139.73C330,139.33 330,138.92 330,138.52C330,138.12 330,137.71 330,137.31C330,136.91 330,136.5 330,136.1C330,135.69 330,135.29 330,134.88C330,134.48 330,134.07 330,133.67C330,133.27 330.01,132.86 330.01,132.46C330.01,132.06 330.02,131.65 330.02,131.25C330.03,130.85 330.03,130.44 330.04,130.04C330.05,129.64 330.06,129.23 330.07,128.83C330.08,128.43 330.1,128.02 330.11,127.62C330.13,127.21 330.14,126.81 330.16,126.4C330.17,126 330.19,125.59 330.2,125.19C330.21,124.79 330.22,124.38 330.23,123.98C330.24,123.58 330.24,123.17 330.24,122.77C330.24,122.37 330.23,121.96 330.22,121.56C330.21,121.16 330.19,120.75 330.18,120.35C330.16,119.94 330.15,119.54 330.13,119.13C330.12,118.73 330.1,118.32 330.09,117.92C330.08,117.52 330.06,117.11 330.05,116.71C330.04,116.31 330.04,115.9 330.03,115.5C330.03,115.1 330.02,114.69 330.02,114.29C330.02,113.89 330.02,113.48 330.02,113.08C330.02,112.68 330.03,112.27 330.03,111.87C330.04,111.46 330.04,111.06 330.05,110.65C330.06,110.25 330.07,109.84 330.08,109.44C330.09,109.04 330.11,108.63 330.12,108.23C330.13,107.83 330.15,107.42 330.16,107.02C330.17,106.62 330.19,106.21 330.2,105.81C330.21,105.41 330.22,105 330.22,104.6C330.22,104.19 330.22,103.79 330.22,103.38C330.22,102.98 330.21,102.57 330.2,102.17C330.19,101.77 330.18,101.36 330.17,100.96C330.16,100.56 330.14,100.15 330.13,99.75C330.12,99.35 330.1,98.94 330.09,98.54C330.08,98.14 330.07,97.73 330.06,97.33C330.05,96.93 330.04,96.52 330.03,96.12C330.02,95.71 330.02,95.31 330.02,94.9C330.02,94.5 330.01,94.09 330.01,93.69C330.01,93.29 330,92.88 330,92.48C330,92.08 330,91.67 330,91.27C330,90.87 330,90.46 330,90.06C330,89.66 330,89.25 330,88.85C330,88.44 330,88.04 330,87.63C330,87.23 330,86.82 330,86.42C330,86.02 330,85.61 330,85.21C330,84.81 330,84.4 330,84C330,83.6 330,83.19 330,82.79C330,82.39 330,81.98 330,81.58C330,81.18 330,80.77 330,80.37C330,79.96 330,79.56 330,79.15C330,78.75 330,78.34 330,77.94C330,77.54 330,77.13 330,76.73C330,76.33 330,75.92 330,75.52C330,75.12 330,74.71 330,74.31C330,73.91 330,73.5 330,73.1C330,72.69 330,72.29 330,71.88C330,71.48 330,71.07 330,70.67C330,70.27 330,69.86 330,69.46C330,69.06 330,68.65 330,68.25C330,67.85 330,67.44 330,67.04C330,66.64 330.01,66.23 330.01,65.83C330.01,65.43 330.02,65.02 330.02,64.62C330.03,64.21 330.03,63.81 330.04,63.4C330.05,63 330.05,62.59 330.06,62.19C330.07,61.79 330.07,61.38 330.08,60.98C330.09,60.58 330.09,60.17 330.1,59.77C330.11,59.37 330.12,58.96 330.12,58.56C330.12,58.16 330.12,57.75 330.12,57.35C330.12,56.94 330.12,56.54 330.11,56.13C330.11,55.73 330.1,55.32 330.09,54.92C330.08,54.52 330.07,54.11 330.06,53.71C330.05,53.31 330.05,52.9 330.04,52.5C330.03,52.1 330.03,51.69 330.02,51.29C330.02,50.89 330.01,50.48 330.01,50.08C330.01,49.68 330.01,49.27 330.01,48.87C330.01,48.46 330,48.06 330,47.65C330,47.25 330,46.84 330,46.44C330,46.04 330,45.63 330,45.23C330,44.83 330,44.42 330,44.02C330,43.62 330,43.21 330,42.81C330,42.41 330,42 330,41.6C330,41.19 330,40.79 330,40.38C330,39.98 330.01,39.57 330.01,39.17C330.02,38.77 330.02,38.36 330.03,37.96C330.04,37.56 330.04,37.15 330.05,36.75C330.06,36.35 330.08,35.94 330.09,35.54C330.11,35.14 330.12,34.73 330.14,34.33C330.16,33.93 330.19,33.52 330.21,33.12C330.23,32.71 330.25,32.31 330.27,31.9C330.29,31.5 330.31,31.09 330.32,30.69C330.33,30.29 330.34,29.88 330.34,29.48C330.34,29.08 330.34,28.67 330.33,28.27C330.32,27.87 330.31,27.46 330.29,27.06C330.27,26.66 330.24,26.25 330.22,25.85C330.2,25.44 330.18,25.04 330.16,24.63C330.14,24.23 330.12,23.82 330.1,23.42C330.08,23.02 330.07,22.61 330.06,22.21Q330.05,21.81 330.03,21L329.97,21Q329.95,21.81 329.94,22.21C329.93,22.61 329.92,23.02 329.9,23.42C329.88,23.82 329.86,24.23 329.84,24.63C329.82,25.04 329.8,25.44 329.78,25.85C329.76,26.25 329.73,26.66 329.71,27.06C329.69,27.46 329.68,27.87 329.67,28.27C329.66,28.67 329.66,29.08 329.66,29.48C329.66,29.88 329.67,30.29 329.68,30.69C329.69,31.09 329.71,31.5 329.73,31.9C329.75,32.31 329.77,32.71 329.79,33.12C329.81,33.52 329.84,33.93 329.86,34.33C329.88,34.73 329.89,35.14 329.91,35.54C329.92,35.94 329.94,36.35 329.95,36.75C329.96,37.15 329.96,37.56 329.97,37.96C329.98,38.36 329.98,38.77 329.99,39.17C329.99,39.57 330,39.98 330,40.38C330,40.79 330,41.19 330,41.6C330,42 330,42.41 330,42.81C330,43.21 330,43.62 330,44.02C330,44.42 330,44.83 330,45.23C330,45.63 330,46.04 330,46.44C330,46.84 330,47.25 330,47.65C330,48.06 329.99,48.46 329.99,48.87C329.99,49.27 329.99,49.68 329.99,50.08C329.99,50.48 329.98,50.89 329.98,51.29C329.97,51.69 329.97,52.1 329.96,52.5C329.95,52.9 329.95,53.31 329.94,53.71C329.93,54.11 329.92,54.52 329.91,54.92C329.9,55.32 329.89,55.73 329.89,56.13C329.88,56.54 329.88,56.94 329.88,57.35C329.88,57.75 329.88,58.16 329.88,58.56C329.88,58.96 329.89,59.37 329.9,59.77C329.91,60.17 329.91,60.58 329.92,60.98C329.93,61.38 329.93,61.79 329.94,62.19C329.95,62.59 329.95,63 329.96,63.4C329.97,63.81 329.97,64.21 329.98,64.62C329.98,65.02 329.99,65.43 329.99,65.83C329.99,66.23 330,66.64 330,67.04C330,67.44 330,67.85 330,68.25C330,68.65 330,69.06 330,69.46C330,69.86 330,70.27 330,70.67C330,71.07 330,71.48 330,71.88C330,72.29 330,72.69 330,73.1C330,73.5 330,73.91 330,74.31C330,74.71 330,75.12 330,75.52C330,75.92 330,76.33 330,76.73C330,77.13 330,77.54 330,77.94C330,78.34 330,78.75 330,79.15C330,79.56 330,79.96 330,80.37C330,80.77 330,81.18 330,81.58C330,81.98 330,82.39 330,82.79C330,83.19 330,83.6 330,84C330,84.4 330,84.81 330,85.21C330,85.61 330,86.02 330,86.42C330,86.82 330,87.23 330,87.63C330,88.04 330,88.44 330,88.85C330,89.25 330,89.66 330,90.06C330,90.46 330,90.87 330,91.27C330,91.67 330,92.08 330,92.48C330,92.88 329.99,93.29 329.99,93.69C329.99,94.09 329.98,94.5 329.98,94.9C329.98,95.31 329.98,95.71 329.97,96.12C329.96,96.52 329.95,96.93 329.94,97.33C329.93,97.73 329.92,98.14 329.91,98.54C329.9,98.94 329.88,99.35 329.87,99.75C329.86,100.15 329.84,100.56 329.83,100.96C329.82,101.36 329.81,101.77 329.8,102.17C329.79,102.57 329.78,102.98 329.78,103.38C329.78,103.79 329.78,104.19 329.78,104.6C329.78,105 329.79,105.41 329.8,105.81C329.81,106.21 329.83,106.62 329.84,107.02C329.85,107.42 329.87,107.83 329.88,108.23C329.89,108.63 329.91,109.04 329.92,109.44C329.93,109.84 329.94,110.25 329.95,110.65C329.96,111.06 329.96,111.46 329.97,111.87C329.97,112.27 329.98,112.68 329.98,113.08C329.98,113.48 329.98,113.89 329.98,114.29C329.98,114.69 329.97,115.1 329.97,115.5C329.96,115.9 329.96,116.31 329.95,116.71C329.94,117.11 329.92,117.52 329.91,117.92C329.9,118.32 329.88,118.73 329.87,119.13C329.85,119.54 329.84,119.94 329.82,120.35C329.81,120.75 329.79,121.16 329.78,121.56C329.77,121.96 329.76,122.37 329.76,122.77C329.76,123.17 329.76,123.58 329.77,123.98C329.78,124.38 329.79,124.79 329.8,125.19C329.81,125.59 329.83,126 329.84,126.4C329.86,126.81 329.87,127.21 329.89,127.62C329.9,128.02 329.92,128.43 329.93,128.83C329.94,129.23 329.95,129.64 329.96,130.04C329.97,130.44 329.97,130.85 329.98,131.25C329.98,131.65 329.99,132.06 329.99,132.46C329.99,132.86 330,133.27 330,133.67C330,134.07 330,134.48 330,134.88C330,135.29 330,135.69 330,136.1C330,136.5 330,136.91 330,137.31C330,137.71 330,138.12 330,138.52C330,138.92 330,139.33 330,139.73C330,140.13 330,140.54 330,140.94C330,141.34 330,141.75 330,142.15C330,142.56 330,142.96 330,143.37C330,143.77 330,144.18 330,144.58C330,144.98 330,145.39 330,145.79C330,146.19 330,146.6 330,147C330,147.4 330,147.81 330,148.21C330,148.61 330,149.02 330,149.42C330,149.82 330,150.23 330,150.63C330,151.04 330,151.44 330,151.85C330,152.25 330,152.66 330,153.06C330,153.46 330,153.87 330,154.27C330,154.67 330,155.08 330,155.48C330,155.88 330,156.29 330,156.69C330,157.09 330,157.5 330,157.9C330,158.31 330,158.71 330,159.12C330,159.52 330,159.93 330,160.33C330,160.73 330,161.14 330,161.54C330,161.94 330,162.35 330,162.75C330,163.15 329.99,163.56 329.99,163.96C329.99,164.36 329.99,164.77 329.99,165.17C329.99,165.57 329.98,165.98 329.97,166.38C329.96,166.79 329.96,167.19 329.95,167.6C329.94,168 329.94,168.41 329.93,168.81C329.92,169.21 329.92,169.62 329.91,170.02C329.9,170.42 329.9,170.83 329.89,171.23C329.89,171.63 329.88,172.04 329.88,172.44C329.88,172.84 329.89,173.25 329.89,173.65C329.89,174.06 329.89,174.46 329.9,174.87C329.9,175.27 329.91,175.68 329.92,176.08C329.93,176.48 329.94,176.89 329.95,177.29C329.96,177.69 329.96,178.1 329.97,178.5C329.97,178.9 329.98,179.31 329.98,179.71C329.98,180.11 329.99,180.52 329.99,180.92C329.99,181.32 330,181.73 330,182.13C330,182.54 330,182.94 330,183.35C330,183.75 329.99,184.16 329.99,184.56C329.99,184.96 329.99,185.37 329.99,185.77C329.99,186.17 329.98,186.58 329.98,186.98C329.97,187.38 329.97,187.79 329.96,188.19C329.95,188.59 329.95,189 329.94,189.4C329.93,189.81 329.93,190.21 329.92,190.62C329.91,191.02 329.91,191.43 329.9,191.83C329.89,192.23 329.88,192.64 329.88,193.04C329.88,193.44 329.88,193.85 329.88,194.25C329.88,194.65 329.89,195.06 329.89,195.46C329.9,195.86 329.9,196.27 329.91,196.67C329.92,197.07 329.93,197.48 329.93,197.88C329.94,198.29 329.94,198.69 329.94,199.1C329.94,199.5 329.94,199.91 329.94,200.31C329.94,200.71 329.93,201.12 329.93,201.52C329.93,201.92 329.92,202.33 329.92,202.73C329.91,203.13 329.91,203.54 329.9,203.94C329.89,204.34 329.88,204.75 329.88,205.15C329.88,205.56 329.88,205.96 329.88,206.37C329.88,206.77 329.89,207.18 329.89,207.58C329.89,207.98 329.9,208.39 329.9,208.79C329.91,209.19 329.91,209.6 329.92,210C329.92,210.4 329.93,210.81 329.93,211.21C329.93,211.61 329.94,212.02 329.94,212.42C329.94,212.82 329.93,213.23 329.93,213.63C329.92,214.04 329.92,214.44 329.91,214.85C329.9,215.25 329.9,215.66 329.89,216.06C329.89,216.46 329.88,216.87 329.88,217.27C329.88,217.67 329.88,218.08 329.88,218.48C329.88,218.88 329.89,219.29 329.89,219.69C329.9,220.09 329.9,220.5 329.91,220.9C329.92,221.31 329.93,221.71 329.94,222.12C329.95,222.52 329.95,222.93 329.96,223.33C329.96,223.73 329.97,224.14 329.97,224.54C329.97,224.94 329.98,225.35 329.98,225.75C329.98,226.15 329.98,226.56 329.98,226.96C329.98,227.36 329.97,227.77 329.97,228.17C329.96,228.57 329.96,228.98 329.95,229.38C329.94,229.79 329.93,230.19 329.92,230.6C329.91,231 329.91,231.41 329.9,231.81C329.89,232.21 329.89,232.62 329.88,233.02C329.88,233.42 329.87,233.83 329.87,234.23C329.87,234.63 329.87,235.04 329.87,235.44C329.87,235.84 329.88,236.25 329.88,236.65C329.88,237.06 329.88,237.46 329.88,237.87C329.88,238.27 329.88,238.68 329.88,239.08C329.88,239.48 329.87,239.89 329.86,240.29C329.85,240.69 329.85,241.1 329.84,241.5C329.83,241.9 329.83,242.31 329.82,242.71C329.81,243.11 329.8,243.52 329.79,243.92C329.78,244.32 329.77,244.73 329.76,245.13C329.75,245.54 329.75,245.94 329.74,246.35C329.73,246.75 329.72,247.16 329.71,247.56C329.7,247.96 329.7,248.37 329.69,248.77C329.68,249.17 329.68,249.58 329.67,249.98C329.67,250.38 329.66,250.79 329.66,251.19C329.66,251.59 329.65,252 329.65,252.4C329.65,252.81 329.65,253.21 329.66,253.62C329.67,254.02 329.68,254.43 329.69,254.83C329.7,255.23 329.72,255.64 329.73,256.04C329.75,256.44 329.76,256.85 329.78,257.25C329.8,257.65 329.82,258.06 329.84,258.46C329.86,258.86 329.87,259.27 329.89,259.67C329.9,260.07 329.92,260.48 329.93,260.88C329.94,261.29 329.95,261.69 329.96,262.1C329.97,262.5 329.97,262.91 329.98,263.31C329.98,263.71 329.99,264.12 329.99,264.52C329.99,264.92 330,265.33 330,265.73C330,266.13 330,266.54 330,266.94C330,267.34 330,267.75 330,268.15C330,268.56 330,268.96 330,269.37C330,269.77 330,270.18 330,270.58C330,270.98 330,271.39 330,271.79C330,272.19 330,272.6 330,273C330,273.4 330,273.81 330,274.21C330,274.61 330,275.02 330,275.42C330,275.82 329.99,276.23 329.99,276.63C329.99,277.04 329.99,277.44 329.99,277.85C329.99,278.25 329.98,278.66 329.98,279.06C329.97,279.46 329.97,279.87 329.96,280.27C329.95,280.67 329.95,281.08 329.94,281.48C329.93,281.88 329.92,282.29 329.91,282.69C329.9,283.09 329.89,283.5 329.88,283.9C329.87,284.31 329.87,284.71 329.86,285.12C329.85,285.52 329.84,285.93 329.83,286.33C329.82,286.73 329.82,287.14 329.81,287.54C329.8,287.94 329.8,288.35 329.79,288.75C329.78,289.15 329.77,289.56 329.76,289.96C329.75,290.36 329.73,290.77 329.72,291.17C329.71,291.57 329.69,291.98 329.68,292.38C329.67,292.79 329.65,293.19 329.64,293.6C329.63,294 329.62,294.41 329.61,294.81C329.6,295.21 329.59,295.62 329.59,296.02C329.59,296.42 329.59,296.83 329.59,297.23C329.59,297.63 329.6,298.04 329.61,298.44C329.62,298.84 329.63,299.25 329.64,299.65C329.65,300.06 329.66,300.46 329.68,300.87C329.69,301.27 329.71,301.68 329.73,302.08C329.75,302.48 329.77,302.89 329.79,303.29C329.81,303.69 329.82,304.1 329.83,304.5C329.84,304.9 329.86,305.31 329.87,305.71C329.88,306.11 329.89,306.52 329.89,306.92C329.89,307.32 329.89,307.73 329.89,308.13C329.89,308.54 329.88,308.94 329.88,309.35C329.88,309.75 329.88,310.16 329.88,310.56C329.88,310.96 329.88,311.37 329.88,311.77C329.88,312.17 329.89,312.58 329.89,312.98C329.9,313.38 329.9,313.79 329.91,314.19C329.92,314.59 329.93,315 329.93,315.4C329.94,315.81 329.94,316.21 329.94,316.62C329.94,317.02 329.94,317.43 329.93,317.83C329.92,318.23 329.92,318.64 329.9,319.04C329.88,319.44 329.85,319.85 329.81,320.25C329.77,320.65 329.71,321.06 329.64,321.46C329.57,321.86 329.49,322.27 329.37,322.67C329.25,323.08 329.12,323.48 328.94,323.88C328.76,324.29 328.54,324.7 328.29,325.1C328.03,325.51 327.72,325.92 327.38,326.31C327.01,326.73 326.59,327.13 326.14,327.52C325.65,327.94 325.1,328.34 324.52,328.73C323.88,329.15 323.18,329.55 322.45,329.94C321.65,330.36 320.79,330.76 319.9,331.15C318.94,331.57 317.92,331.98 316.86,332.37C315.73,332.79 314.54,333.19 313.32,333.58C312.02,334 310.67,334.4 309.29,334.79C307.85,335.2 306.35,335.6 304.84,336C303.27,336.41 301.66,336.81 300.04,337.21C298.4,337.62 296.72,338.02 295.06,338.42C293.41,338.82 291.73,339.22 290.11,339.63C288.54,340.03 286.97,340.43 285.49,340.85C284.11,341.24 282.74,341.63 281.52,342.06C280.44,342.44 279.38,342.82 278.52,343.27C277.81,343.64 277.1,344.01 276.69,344.48C276.37,344.84 276.1,345.29 276.1,345.69C276.1,346.09 276.38,346.53 276.68,346.9C277.05,347.36 277.67,347.74 278.29,348.12C279.01,348.56 279.88,348.95 280.78,349.33C281.79,349.76 282.9,350.15 284.05,350.54C285.29,350.96 286.62,351.36 287.98,351.75C289.42,352.17 290.93,352.56 292.45,352.96C294.02,353.37 295.64,353.77 297.24,354.17C298.85,354.57 300.5,354.97 302.1,355.38C303.67,355.78 305.24,356.19 306.75,356.6C308.2,357 309.63,357.39 310.99,357.81C312.27,358.2 313.52,358.6 314.7,359.02C315.81,359.41 316.87,359.81 317.88,360.23C318.82,360.62 319.71,361.02 320.56,361.44C321.35,361.83 322.11,362.23 322.81,362.65C323.47,363.04 324.09,363.45 324.66,363.87C325.19,364.26 325.68,364.66 326.13,365.08C326.55,365.47 326.93,365.87 327.26,366.29C327.57,366.68 327.84,367.09 328.07,367.5C328.29,367.89 328.48,368.3 328.63,368.71C328.78,369.11 328.89,369.51 328.99,369.92C329.09,370.32 329.15,370.72 329.21,371.13C329.27,371.53 329.31,371.94 329.36,372.35C329.4,372.75 329.44,373.16 329.48,373.56C329.52,373.96 329.55,374.37 329.58,374.77C329.61,375.17 329.64,375.58 329.67,375.98C329.7,376.38 329.73,376.79 329.76,377.19C329.79,377.59 329.82,378 329.84,378.4C329.86,378.81 329.88,379.21 329.9,379.62C329.92,380.02 329.93,380.43 329.94,380.83C329.95,381.23 329.96,381.64 329.97,382.04C329.98,382.44 329.98,382.85 329.98,383.25C329.98,383.65 329.98,384.06 329.98,384.46C329.98,384.86 329.97,385.27 329.97,385.67C329.96,386.07 329.96,386.48 329.95,386.88C329.94,387.29 329.94,387.69 329.93,388.1C329.92,388.5 329.91,388.91 329.9,389.31C329.89,389.71 329.89,390.12 329.89,390.52C329.89,390.92 329.88,391.33 329.88,391.73C329.88,392.13 329.89,392.54 329.89,392.94C329.89,393.34 329.89,393.75 329.9,394.15C329.91,394.56 329.92,394.96 329.93,395.37C329.94,395.77 329.94,396.18 329.95,396.58C329.96,396.98 329.96,397.39 329.97,397.79Q329.97,398.19 329.98,399Z" style="vector-effect: non-scaling-stroke; stroke-width: 2px; stroke: rgb(0, 0, 0); stroke-opacity: 1; fill: rgb(99, 110, 250); fill-opacity: 0.2;"/><path class="box" d="M316.52,345.75H343.48M316.52,351.02H343.48V340.79H316.52ZM330,351.02V365.98M330,340.79V325.64" style="vector-effect: non-scaling-stroke; stroke-width: 2px; stroke: rgb(0, 0, 0); stroke-opacity: 1; fill: rgb(99, 110, 250); fill-opacity: 0.2;"/><g class="points"><path class="point" transform="translate(330,391.73)" d="M3,0A3,3 0 1,1 0,-3A3,3 0 0,1 3,0Z" style="opacity: 1; stroke-width: 0px; fill: rgb(0, 0, 0); fill-opacity: 1;"/><path class="point" transform="translate(330,375.18)" d="M3,0A3,3 0 1,1 0,-3A3,3 0 0,1 3,0Z" style="opacity: 1; stroke-width: 0px; fill: rgb(0, 0, 0); fill-opacity: 1;"/><path class="point" transform="translate(330,373.09)" d="M3,0A3,3 0 1,1 0,-3A3,3 0 0,1 3,0Z" style="opacity: 1; stroke-width: 0px; fill: rgb(0, 0, 0); fill-opacity: 1;"/><path class="point" transform="translate(330,371.91)" d="M3,0A3,3 0 1,1 0,-3A3,3 0 0,1 3,0Z" style="opacity: 1; stroke-width: 0px; fill: rgb(0, 0, 0); fill-opacity: 1;"/><path class="point" transform="translate(330,370.43)" d="M3,0A3,3 0 1,1 0,-3A3,3 0 0,1 3,0Z" style="opacity: 1; stroke-width: 0px; fill: rgb(0, 0, 0); fill-opacity: 1;"/><path class="point" transform="translate(330,367.7)" d="M3,0A3,3 0 1,1 0,-3A3,3 0 0,1 3,0Z" style="opacity: 1; stroke-width: 0px; fill: rgb(0, 0, 0); fill-opacity: 1;"/><path class="point" transform="translate(330,366.37)" d="M3,0A3,3 0 1,1 0,-3A3,3 0 0,1 3,0Z" style="opacity: 1; stroke-width: 0px; fill: rgb(0, 0, 0); fill-opacity: 1;"/><path class="point" transform="translate(330,311.52)" d="M3,0A3,3 0 1,1 0,-3A3,3 0 0,1 3,0Z" style="opacity: 1; stroke-width: 0px; fill: rgb(0, 0, 0); fill-opacity: 1;"/><path class="point" transform="translate(330,302.03)" d="M3,0A3,3 0 1,1 0,-3A3,3 0 0,1 3,0Z" style="opacity: 1; stroke-width: 0px; fill: rgb(0, 0, 0); fill-opacity: 1;"/><path class="point" transform="translate(330,298.56)" d="M3,0A3,3 0 1,1 0,-3A3,3 0 0,1 3,0Z" style="opacity: 1; stroke-width: 0px; fill: rgb(0, 0, 0); fill-opacity: 1;"/><path class="point" transform="translate(330,297.54)" d="M3,0A3,3 0 1,1 0,-3A3,3 0 0,1 3,0Z" style="opacity: 1; stroke-width: 0px; fill: rgb(0, 0, 0); fill-opacity: 1;"/><path class="point" transform="translate(330,294.2)" d="M3,0A3,3 0 1,1 0,-3A3,3 0 0,1 3,0Z" style="opacity: 1; stroke-width: 0px; fill: rgb(0, 0, 0); fill-opacity: 1;"/><path class="point" transform="translate(330,292.01)" d="M3,0A3,3 0 1,1 0,-3A3,3 0 0,1 3,0Z" style="opacity: 1; stroke-width: 0px; fill: rgb(0, 0, 0); fill-opacity: 1;"/><path class="point" transform="translate(330,285.68)" d="M3,0A3,3 0 1,1 0,-3A3,3 0 0,1 3,0Z" style="opacity: 1; stroke-width: 0px; fill: rgb(0, 0, 0); fill-opacity: 1;"/><path class="point" transform="translate(330,255.35)" d="M3,0A3,3 0 1,1 0,-3A3,3 0 0,1 3,0Z" style="opacity: 1; stroke-width: 0px; fill: rgb(0, 0, 0); fill-opacity: 1;"/><path class="point" transform="translate(330,254.49)" d="M3,0A3,3 0 1,1 0,-3A3,3 0 0,1 3,0Z" style="opacity: 1; stroke-width: 0px; fill: rgb(0, 0, 0); fill-opacity: 1;"/><path class="point" transform="translate(330,250.56)" d="M3,0A3,3 0 1,1 0,-3A3,3 0 0,1 3,0Z" style="opacity: 1; stroke-width: 0px; fill: rgb(0, 0, 0); fill-opacity: 1;"/><path class="point" transform="translate(330,247.7)" d="M3,0A3,3 0 1,1 0,-3A3,3 0 0,1 3,0Z" style="opacity: 1; stroke-width: 0px; fill: rgb(0, 0, 0); fill-opacity: 1;"/><path class="point" transform="translate(330,242.95)" d="M3,0A3,3 0 1,1 0,-3A3,3 0 0,1 3,0Z" style="opacity: 1; stroke-width: 0px; fill: rgb(0, 0, 0); fill-opacity: 1;"/><path class="point" transform="translate(330,234.05)" d="M3,0A3,3 0 1,1 0,-3A3,3 0 0,1 3,0Z" style="opacity: 1; stroke-width: 0px; fill: rgb(0, 0, 0); fill-opacity: 1;"/><path class="point" transform="translate(330,218.07)" d="M3,0A3,3 0 1,1 0,-3A3,3 0 0,1 3,0Z" style="opacity: 1; stroke-width: 0px; fill: rgb(0, 0, 0); fill-opacity: 1;"/><path class="point" transform="translate(330,206.17)" d="M3,0A3,3 0 1,1 0,-3A3,3 0 0,1 3,0Z" style="opacity: 1; stroke-width: 0px; fill: rgb(0, 0, 0); fill-opacity: 1;"/><path class="point" transform="translate(330,193.83)" d="M3,0A3,3 0 1,1 0,-3A3,3 0 0,1 3,0Z" style="opacity: 1; stroke-width: 0px; fill: rgb(0, 0, 0); fill-opacity: 1;"/><path class="point" transform="translate(330,172.62)" d="M3,0A3,3 0 1,1 0,-3A3,3 0 0,1 3,0Z" style="opacity: 1; stroke-width: 0px; fill: rgb(0, 0, 0); fill-opacity: 1;"/><path class="point" transform="translate(330,123.55)" d="M3,0A3,3 0 1,1 0,-3A3,3 0 0,1 3,0Z" style="opacity: 1; stroke-width: 0px; fill: rgb(0, 0, 0); fill-opacity: 1;"/><path class="point" transform="translate(330,122.77)" d="M3,0A3,3 0 1,1 0,-3A3,3 0 0,1 3,0Z" style="opacity: 1; stroke-width: 0px; fill: rgb(0, 0, 0); fill-opacity: 1;"/><path class="point" transform="translate(330,105.35)" d="M3,0A3,3 0 1,1 0,-3A3,3 0 0,1 3,0Z" style="opacity: 1; stroke-width: 0px; fill: rgb(0, 0, 0); fill-opacity: 1;"/><path class="point" transform="translate(330,102.41)" d="M3,0A3,3 0 1,1 0,-3A3,3 0 0,1 3,0Z" style="opacity: 1; stroke-width: 0px; fill: rgb(0, 0, 0); fill-opacity: 1;"/><path class="point" transform="translate(330,57.81)" d="M3,0A3,3 0 1,1 0,-3A3,3 0 0,1 3,0Z" style="opacity: 1; stroke-width: 0px; fill: rgb(0, 0, 0); fill-opacity: 1;"/><path class="point" transform="translate(330,30.75)" d="M3,0A3,3 0 1,1 0,-3A3,3 0 0,1 3,0Z" style="opacity: 1; stroke-width: 0px; fill: rgb(0, 0, 0); fill-opacity: 1;"/><path class="point" transform="translate(330,29.03)" d="M3,0A3,3 0 1,1 0,-3A3,3 0 0,1 3,0Z" style="opacity: 1; stroke-width: 0px; fill: rgb(0, 0, 0); fill-opacity: 1;"/><path class="point" transform="translate(330,28.27)" d="M3,0A3,3 0 1,1 0,-3A3,3 0 0,1 3,0Z" style="opacity: 1; stroke-width: 0px; fill: rgb(0, 0, 0); fill-opacity: 1;"/></g></g></g></g><g class="overplot"/><path class="xlines-above crisp" d="M0,0" style="fill: none;"/><path class="ylines-above crisp" d="M0,0" style="fill: none;"/><g class="overlines-above"/><g class="xaxislayer-above"><g class="xtick"><text text-anchor="middle" x="0" y="533" transform="translate(190,0)" style="font-family: 'Open Sans', verdana, arial, sans-serif; font-size: 12px; fill: rgb(42, 63, 95); fill-opacity: 1; white-space: pre; opacity: 1;">P1000-US</text></g><g class="xtick"><text text-anchor="middle" x="0" y="533" transform="translate(410,0)" style="font-family: 'Open Sans', verdana, arial, sans-serif; font-size: 12px; fill: rgb(42, 63, 95); fill-opacity: 1; white-space: pre; opacity: 1;">MUTO-INTL</text></g></g><g class="yaxislayer-above"><g class="ytick"><text text-anchor="end" x="79" y="4.199999999999999" transform="translate(0,500.5)" style="font-family: 'Open Sans', verdana, arial, sans-serif; font-size: 12px; fill: rgb(42, 63, 95); fill-opacity: 1; white-space: pre; opacity: 1;">0</text></g><g class="ytick"><text text-anchor="end" x="79" y="4.199999999999999" style="font-family: 'Open Sans', verdana, arial, sans-serif; font-size: 12px; fill: rgb(42, 63, 95); fill-opacity: 1; white-space: pre; opacity: 1;" transform="translate(0,446.77)">100M</text></g><g class="ytick"><text text-anchor="end" x="79" y="4.199999999999999" style="font-family: 'Open Sans', verdana, arial, sans-serif; font-size: 12px; fill: rgb(42, 63, 95); fill-opacity: 1; white-space: pre; opacity: 1;" transform="translate(0,393.04)">200M</text></g><g class="ytick"><text text-anchor="end" x="79" y="4.199999999999999" style="font-family: 'Open Sans', verdana, arial, sans-serif; font-size: 12px; fill: rgb(42, 63, 95); fill-opacity: 1; white-space: pre; opacity: 1;" transform="translate(0,339.3)">300M</text></g><g class="ytick"><text text-anchor="end" x="79" y="4.199999999999999" style="font-family: 'Open Sans', verdana, arial, sans-serif; font-size: 12px; fill: rgb(42, 63, 95); fill-opacity: 1; white-space: pre; opacity: 1;" transform="translate(0,285.57)">400M</text></g><g class="ytick"><text text-anchor="end" x="79" y="4.199999999999999" style="font-family: 'Open Sans', verdana, arial, sans-serif; font-size: 12px; fill: rgb(42, 63, 95); fill-opacity: 1; white-space: pre; opacity: 1;" transform="translate(0,231.84)">500M</text></g><g class="ytick"><text text-anchor="end" x="79" y="4.199999999999999" style="font-family: 'Open Sans', verdana, arial, sans-serif; font-size: 12px; fill: rgb(42, 63, 95); fill-opacity: 1; white-space: pre; opacity: 1;" transform="translate(0,178.11)">600M</text></g><g class="ytick"><text text-anchor="end" x="79" y="4.199999999999999" style="font-family: 'Open Sans', verdana, arial, sans-serif; font-size: 12px; fill: rgb(42, 63, 95); fill-opacity: 1; white-space: pre; opacity: 1;" transform="translate(0,124.38)">700M</text></g></g><g class="overaxes-above"/></g></g><g class="polarlayer"/><g class="smithlayer"/><g class="ternarylayer"/><g class="geolayer"/><g class="funnelarealayer"/><g class="pielayer"/><g class="iciclelayer"/><g class="treemaplayer"/><g class="sunburstlayer"/><g class="glimages"/><defs id="topdefs-07d6b1"><g class="clips"/></defs><g class="layer-above"><g class="imagelayer"/><g class="shapelayer"/></g><g class="infolayer"><g class="g-gtitle"><text class="gtitle" x="30" y="50" text-anchor="start" dy="0em" style="font-family: 'Open Sans', verdana, arial, sans-serif; font-size: 20px; fill: rgb(42, 63, 95); opacity: 1; font-weight: normal; white-space: pre;">Comparing processing times oxog for projects</text></g><g class="g-xtitle"/><g class="g-ytitle"><text class="ytitle" transform="rotate(-90,21.200000000000003,310)" x="21.200000000000003" y="310" text-anchor="middle" style="font-family: 'Open Sans', verdana, arial, sans-serif; font-size: 14px; fill: rgb(42, 63, 95); opacity: 1; font-weight: normal; white-space: pre;">ReadsAlignedPerHour</text></g></g></svg>